<svg width="40" height="40" viewBox="0 0 40 40" fill="none" xmlns="http://www.w3.org/2000/svg">
<rect width="40" height="40" rx="7" fill="#4DBAAD"/>
<g clip-path="url(#clip0_1049_64800)">
<path fill-rule="evenodd" clip-rule="evenodd" d="M27.5346 15.5351C27.5346 14.7209 27.2112 13.9401 26.6355 13.3644C26.0598 12.7888 25.279 12.4653 24.4648 12.4653H15.5346C14.7205 12.4653 13.9397 12.7888 13.364 13.3644C12.7883 13.9401 12.4648 14.7209 12.4648 15.5351V24.4653C12.4648 25.2795 12.7883 26.0603 13.364 26.636C13.9397 27.2117 14.7205 27.5351 15.5346 27.5351H24.4648C25.279 27.5351 26.0598 27.2117 26.6355 26.636C27.2112 26.0603 27.5346 25.2795 27.5346 24.4653V15.5351ZM22.2323 17.7677V22.2328C22.2323 22.4548 22.3205 22.6678 22.4775 22.8248C22.6345 22.9818 22.8475 23.07 23.0695 23.07C23.2915 23.07 23.5045 22.9818 23.6615 22.8248C23.8185 22.6678 23.9067 22.4548 23.9067 22.2328V17.7677C23.9067 17.5456 23.8185 17.3327 23.6615 17.1757C23.5045 17.0187 23.2915 16.9304 23.0695 16.9304C22.8475 16.9304 22.6345 17.0187 22.4775 17.1757C22.3205 17.3327 22.2323 17.5456 22.2323 17.7677ZM21.116 22.2328V18.8839C21.116 18.3658 20.9102 17.869 20.5438 17.5026C20.1775 17.1363 19.6806 16.9304 19.1625 16.9304H18.0462C17.5281 16.9304 17.0313 17.1363 16.6649 17.5026C16.2986 17.869 16.0928 18.3658 16.0928 18.8839V22.2328C16.0928 22.4548 16.181 22.6678 16.338 22.8248C16.495 22.9818 16.7079 23.07 16.93 23.07C17.152 23.07 17.3649 22.9818 17.522 22.8248C17.679 22.6678 17.7672 22.4548 17.7672 22.2328V21.3956H19.4416V22.2328C19.4416 22.4548 19.5298 22.6678 19.6868 22.8248C19.8438 22.9818 20.0568 23.07 20.2788 23.07C20.5008 23.07 20.7138 22.9818 20.8708 22.8248C21.0278 22.6678 21.116 22.4548 21.116 22.2328ZM17.7672 19.7211H19.4416V18.8839C19.4416 18.8099 19.4122 18.7389 19.3598 18.6866C19.3075 18.6343 19.2365 18.6049 19.1625 18.6049H18.0462C17.9722 18.6049 17.9012 18.6343 17.8489 18.6866C17.7966 18.7389 17.7672 18.8099 17.7672 18.8839V19.7211Z" fill="white"/>
<path fill-rule="evenodd" clip-rule="evenodd" d="M26.6977 20.8372H31.1628C31.3848 20.8372 31.5978 20.749 31.7548 20.592C31.9118 20.435 32 20.222 32 20C32 19.778 31.9118 19.565 31.7548 19.408C31.5978 19.251 31.3848 19.1628 31.1628 19.1628H26.6977C26.4756 19.1628 26.2627 19.251 26.1057 19.408C25.9487 19.565 25.8605 19.778 25.8605 20C25.8605 20.222 25.9487 20.435 26.1057 20.592C26.2627 20.749 26.4756 20.8372 26.6977 20.8372ZM20.8372 13.3023V8.83721C20.8372 8.61517 20.749 8.40222 20.592 8.24521C20.435 8.08821 20.222 8 20 8C19.778 8 19.565 8.08821 19.408 8.24521C19.251 8.40222 19.1628 8.61517 19.1628 8.83721V13.3023C19.1628 13.5244 19.251 13.7373 19.408 13.8943C19.565 14.0513 19.778 14.1395 20 14.1395C20.222 14.1395 20.435 14.0513 20.592 13.8943C20.749 13.7373 20.8372 13.5244 20.8372 13.3023ZM19.1628 26.6977V31.1628C19.1628 31.3848 19.251 31.5978 19.408 31.7548C19.565 31.9118 19.778 32 20 32C20.222 32 20.435 31.9118 20.592 31.7548C20.749 31.5978 20.8372 31.3848 20.8372 31.1628V26.6977C20.8372 26.4756 20.749 26.2627 20.592 26.1057C20.435 25.9487 20.222 25.8605 20 25.8605C19.778 25.8605 19.565 25.9487 19.408 26.1057C19.251 26.2627 19.1628 26.4756 19.1628 26.6977ZM13.3023 19.1628H8.83721C8.61517 19.1628 8.40222 19.251 8.24521 19.408C8.08821 19.565 8 19.778 8 20C8 20.222 8.08821 20.435 8.24521 20.592C8.40222 20.749 8.61517 20.8372 8.83721 20.8372H13.3023C13.5244 20.8372 13.7373 20.749 13.8943 20.592C14.0513 20.435 14.1395 20.222 14.1395 20C14.1395 19.778 14.0513 19.565 13.8943 19.408C13.7373 19.251 13.5244 19.1628 13.3023 19.1628ZM26.6977 17.4884H29.4884C29.7104 17.4884 29.9234 17.4002 30.0804 17.2432C30.2374 17.0862 30.3256 16.8732 30.3256 16.6512C30.3256 16.4291 30.2374 16.2162 30.0804 16.0592C29.9234 15.9022 29.7104 15.814 29.4884 15.814H26.6977C26.4756 15.814 26.2627 15.9022 26.1057 16.0592C25.9487 16.2162 25.8605 16.4291 25.8605 16.6512C25.8605 16.8732 25.9487 17.0862 26.1057 17.2432C26.2627 17.4002 26.4756 17.4884 26.6977 17.4884ZM17.4884 13.3023V10.5116C17.4884 10.2896 17.4002 10.0766 17.2432 9.91963C17.0862 9.76262 16.8732 9.67442 16.6512 9.67442C16.4291 9.67442 16.2162 9.76262 16.0592 9.91963C15.9022 10.0766 15.814 10.2896 15.814 10.5116V13.3023C15.814 13.5244 15.9022 13.7373 16.0592 13.8943C16.2162 14.0513 16.4291 14.1395 16.6512 14.1395C16.8732 14.1395 17.0862 14.0513 17.2432 13.8943C17.4002 13.7373 17.4884 13.5244 17.4884 13.3023ZM15.814 26.6977V29.4884C15.814 29.7104 15.9022 29.9234 16.0592 30.0804C16.2162 30.2374 16.4291 30.3256 16.6512 30.3256C16.8732 30.3256 17.0862 30.2374 17.2432 30.0804C17.4002 29.9234 17.4884 29.7104 17.4884 29.4884V26.6977C17.4884 26.4756 17.4002 26.2627 17.2432 26.1057C17.0862 25.9487 16.8732 25.8605 16.6512 25.8605C16.4291 25.8605 16.2162 25.9487 16.0592 26.1057C15.9022 26.2627 15.814 26.4756 15.814 26.6977ZM13.3023 15.814H10.5116C10.2896 15.814 10.0766 15.9022 9.91963 16.0592C9.76262 16.2162 9.67442 16.4291 9.67442 16.6512C9.67442 16.8732 9.76262 17.0862 9.91963 17.2432C10.0766 17.4002 10.2896 17.4884 10.5116 17.4884H13.3023C13.5244 17.4884 13.7373 17.4002 13.8943 17.2432C14.0513 17.0862 14.1395 16.8732 14.1395 16.6512C14.1395 16.4291 14.0513 16.2162 13.8943 16.0592C13.7373 15.9022 13.5244 15.814 13.3023 15.814ZM26.6977 24.186H29.4884C29.7104 24.186 29.9234 24.0978 30.0804 23.9408C30.2374 23.7838 30.3256 23.5709 30.3256 23.3488C30.3256 23.1268 30.2374 22.9138 30.0804 22.7568C29.9234 22.5998 29.7104 22.5116 29.4884 22.5116H26.6977C26.4756 22.5116 26.2627 22.5998 26.1057 22.7568C25.9487 22.9138 25.8605 23.1268 25.8605 23.3488C25.8605 23.5709 25.9487 23.7838 26.1057 23.9408C26.2627 24.0978 26.4756 24.186 26.6977 24.186ZM24.186 13.3023V10.5116C24.186 10.2896 24.0978 10.0766 23.9408 9.91963C23.7838 9.76262 23.5709 9.67442 23.3488 9.67442C23.1268 9.67442 22.9138 9.76262 22.7568 9.91963C22.5998 10.0766 22.5116 10.2896 22.5116 10.5116V13.3023C22.5116 13.5244 22.5998 13.7373 22.7568 13.8943C22.9138 14.0513 23.1268 14.1395 23.3488 14.1395C23.5709 14.1395 23.7838 14.0513 23.9408 13.8943C24.0978 13.7373 24.186 13.5244 24.186 13.3023ZM22.5116 26.6977V29.4884C22.5116 29.7104 22.5998 29.9234 22.7568 30.0804C22.9138 30.2374 23.1268 30.3256 23.3488 30.3256C23.5709 30.3256 23.7838 30.2374 23.9408 30.0804C24.0978 29.9234 24.186 29.7104 24.186 29.4884V26.6977C24.186 26.4756 24.0978 26.2627 23.9408 26.1057C23.7838 25.9487 23.5709 25.8605 23.3488 25.8605C23.1268 25.8605 22.9138 25.9487 22.7568 26.1057C22.5998 26.2627 22.5116 26.4756 22.5116 26.6977ZM13.3023 22.5116H10.5116C10.2896 22.5116 10.0766 22.5998 9.91963 22.7568C9.76262 22.9138 9.67442 23.1268 9.67442 23.3488C9.67442 23.5709 9.76262 23.7838 9.91963 23.9408C10.0766 24.0978 10.2896 24.186 10.5116 24.186H13.3023C13.5244 24.186 13.7373 24.0978 13.8943 23.9408C14.0513 23.7838 14.1395 23.5709 14.1395 23.3488C14.1395 23.1268 14.0513 22.9138 13.8943 22.7568C13.7373 22.5998 13.5244 22.5116 13.3023 22.5116Z" fill="white"/>
</g>
<defs>
<clipPath id="clip0_1049_64800">
<rect width="24" height="24" fill="white" transform="translate(8 8)"/>
</clipPath>
</defs>
</svg>
