<svg width="40" height="40" viewBox="0 0 40 40" fill="none" xmlns="http://www.w3.org/2000/svg">
<rect width="40" height="40" rx="7" fill="#0AAFFF"/>
<g clip-path="url(#clip0_1049_64698)">
<path d="M22.4121 8V11.5464H25.9571L22.4121 8Z" fill="white"/>
<path d="M30.0692 26.8176V23.3837C30.0692 22.9954 29.7544 22.6806 29.3661 22.6806H20.8451V21.4508H24.2238C25.1791 21.4508 25.9568 20.6736 25.9568 19.7178V12.9528H21.709C21.3204 12.9528 21.0058 12.6378 21.0058 12.2497V8H15.9448C14.989 8 14.2118 8.77766 14.2118 9.73344V19.7178C14.2118 20.6736 14.989 21.4508 15.9448 21.4508H19.4388V22.6806H10.6339C10.2456 22.6806 9.93078 22.9954 9.93078 23.3837V26.8176C8.8175 27.1257 8 28.1479 8 29.3613C8 30.8186 9.17923 32 10.6339 32C12.0886 32 13.2678 30.8186 13.2678 29.3613C13.2678 28.1479 12.4504 27.1258 11.3371 26.8176V24.0868H19.4389V26.8176C18.3256 27.1258 17.5081 28.1479 17.5081 29.3613C17.5081 30.8186 18.6873 32 20.142 32C21.5967 32 22.7759 30.8186 22.7759 29.3613C22.7759 28.1479 21.9584 27.1258 20.8451 26.8176V24.0868H28.663V26.8176C27.5497 27.1258 26.7322 28.1479 26.7322 29.3613C26.7322 30.8186 27.9115 32 29.3661 32C30.8208 32 32 30.8186 32 29.3613C32 28.1479 31.1825 27.1257 30.0692 26.8176ZM17.4429 16.0625C17.4429 15.6739 17.7574 15.3594 18.146 15.3594H22.0226C22.4107 15.3594 22.7257 15.6739 22.7257 16.0625C22.7257 16.4506 22.4107 16.7656 22.0226 16.7656H18.146C17.7574 16.7656 17.4429 16.4506 17.4429 16.0625ZM18.8491 18.9256C18.4605 18.9256 18.146 18.6106 18.146 18.2225C18.146 17.8339 18.4605 17.5194 18.8491 17.5194H21.3194C21.7076 17.5194 22.0226 17.8339 22.0226 18.2225C22.0226 18.6106 21.7076 18.9256 21.3194 18.9256H18.8491Z" fill="white"/>
</g>
<defs>
<clipPath id="clip0_1049_64698">
<rect width="24" height="24" fill="white" transform="translate(8 8)"/>
</clipPath>
</defs>
</svg>
