<svg width="40" height="40" viewBox="0 0 40 40" fill="none" xmlns="http://www.w3.org/2000/svg">
<rect width="40" height="40" rx="7" fill="#7551E9"/>
<g clip-path="url(#clip0_1049_64748)">
<path d="M31.2968 27.4639H13.3868C13.1118 27.4639 12.888 27.2401 12.888 26.9649V9.89C12.888 8.84797 12.04 8 10.9977 8H8.70312C8.31477 8 8 8.31477 8 8.70312C8 9.09148 8.31477 9.40625 8.70312 9.40625H10.9978C11.2646 9.40625 11.4817 9.62342 11.4817 9.89V26.9649C11.4817 28.0154 12.3363 28.8701 13.3868 28.8701H14.1633C14.0506 29.1435 13.9927 29.4363 13.9931 29.732C13.9931 30.9826 15.0104 32 16.261 32C17.5115 32 18.5291 30.9826 18.5291 29.732C18.5293 29.4363 18.4714 29.1435 18.3588 28.8701H26.1216C26.0089 29.1435 25.951 29.4363 25.9513 29.732C25.9513 30.9826 26.9688 32 28.2194 32C29.47 32 30.4873 30.9826 30.4873 29.732C30.4876 29.4363 30.4298 29.1435 30.317 28.8701H31.2968C31.6852 28.8701 32 28.5554 32 28.167C32 27.7789 31.6852 27.4639 31.2968 27.4639Z" fill="white"/>
<path d="M30.1308 8H16.5247C15.4945 8 14.6562 8.83827 14.6562 9.86844V11.7092H31.9993V9.86839C31.9993 8.83827 31.1612 8 30.1308 8ZM19.0622 10.5578H17.8991C17.5107 10.5578 17.1959 10.2429 17.1959 9.85466C17.1959 9.4663 17.5107 9.15153 17.8991 9.15153H19.0622C19.4505 9.15153 19.7653 9.4663 19.7653 9.85466C19.7653 10.2429 19.4505 10.5578 19.0622 10.5578ZM28.7567 10.5578H21.9395C21.551 10.5578 21.2363 10.2429 21.2363 9.85466C21.2363 9.4663 21.551 9.15153 21.9395 9.15153H28.7566C29.145 9.15153 29.4597 9.4663 29.4597 9.85466C29.4597 10.2429 29.145 10.5578 28.7566 10.5578H28.7567ZM14.6562 16.2126H31.9993V13.1156H14.6562V16.2126ZM21.9395 13.961H28.7566C29.145 13.961 29.4597 14.2758 29.4597 14.6641C29.4597 15.0525 29.145 15.3672 28.7566 15.3672H21.9395C21.551 15.3672 21.2363 15.0525 21.2363 14.6641C21.2363 14.2758 21.551 13.961 21.9395 13.961ZM17.899 13.961H19.0621C19.4505 13.961 19.7652 14.2758 19.7652 14.6641C19.7652 15.0525 19.4505 15.3672 19.0621 15.3672H17.899C17.5107 15.3672 17.1959 15.0525 17.1959 14.6641C17.1959 14.2758 17.5107 13.961 17.899 13.961ZM14.6562 20.8064H31.9993V17.6189H14.6562V20.8064ZM21.9395 18.5095H28.7566C29.145 18.5095 29.4597 18.8245 29.4597 19.2126C29.4597 19.601 29.145 19.9158 28.7566 19.9158H21.9395C21.551 19.9158 21.2363 19.601 21.2363 19.2126C21.2363 18.8245 21.551 18.5095 21.9395 18.5095ZM17.899 18.5095H19.0621C19.4505 18.5095 19.7652 18.8245 19.7652 19.2126C19.7652 19.601 19.4505 19.9158 19.0621 19.9158H17.899C17.5107 19.9158 17.1959 19.601 17.1959 19.2126C17.1959 18.8245 17.5107 18.5095 17.899 18.5095ZM14.6562 23.9633C14.6562 24.9936 15.4945 25.8317 16.5246 25.8317H30.1309C31.1612 25.8317 31.9993 24.9935 31.9993 23.9633V22.2126H14.6562V23.9633ZM21.9394 23.3192H28.7566C29.1449 23.3192 29.4597 23.6339 29.4597 24.0223C29.4597 24.4107 29.1449 24.7255 28.7566 24.7255H21.9395C21.551 24.7255 21.2363 24.4107 21.2363 24.0223C21.2363 23.634 21.551 23.3192 21.9394 23.3192ZM17.899 23.3192H19.0621C19.4502 23.3192 19.7652 23.6339 19.7652 24.0223C19.7652 24.4107 19.4502 24.7255 19.0621 24.7255H17.899C17.5106 24.7255 17.1958 24.4107 17.1958 24.0223C17.1958 23.634 17.5106 23.3192 17.899 23.3192Z" fill="white"/>
</g>
<defs>
<clipPath id="clip0_1049_64748">
<rect width="24" height="24" fill="white" transform="translate(8 8)"/>
</clipPath>
</defs>
</svg>
