<svg width="40" height="40" viewBox="0 0 40 40" fill="none" xmlns="http://www.w3.org/2000/svg">
<rect width="40" height="40" rx="7" fill="#0CCCEE"/>
<g clip-path="url(#clip0_1049_64776)">
<path d="M29.6013 9.94807C29.1849 9.53165 28.4729 9.82657 28.4729 10.4155C28.4729 10.7806 28.7689 11.0765 29.1339 11.0765C29.7228 11.0765 30.0178 10.3645 29.6013 9.94807ZM17.792 24.0074C17.7393 23.662 17.3209 23.5172 17.066 23.7563C16.8105 23.9959 16.9294 24.4238 17.2719 24.4973C17.5689 24.5611 17.8379 24.3078 17.792 24.0074ZM12.3442 16.7703C11.9658 16.3673 11.3324 16.3477 10.9299 16.7265L10.4297 17.1972C10.0278 17.5754 10.0082 18.2077 10.3859 18.61L14.6101 23.1087C14.9884 23.5117 15.6218 23.5313 16.0244 23.1525L16.5246 22.6818C16.9265 22.3036 16.946 21.6713 16.5683 21.269L12.3442 16.7703ZM10.7816 15.1054C10.2909 14.5801 9.40203 14.5513 8.87677 15.0477C8.61793 15.2922 8.46652 15.6293 8.4557 15.9853C8.44488 16.3412 8.57554 16.6869 8.81905 16.9467C8.87051 16.9981 8.95353 16.9994 9.00652 16.9495L10.7759 15.2845C10.8269 15.2366 10.8294 15.1564 10.7816 15.1054ZM27.8957 12.2309C27.5725 12.2309 27.3185 11.9769 27.3185 11.6537V9C27.3185 8.44772 26.8708 8 26.3185 8H15.112C14.5597 8 14.112 8.44772 14.112 9V16.5684C14.112 16.8225 14.2088 17.0672 14.3827 17.2525L18.4873 21.6278C18.5489 21.6895 18.5968 21.7884 18.6207 21.8598C18.6367 21.9078 18.6412 21.9589 18.6488 22.0089L19.1164 25.0641C19.1279 25.1396 19.1519 25.2127 19.1659 25.2877C19.1711 25.3159 19.1741 25.3449 19.1741 25.3739C19.1741 25.6914 18.9144 25.9511 18.5969 25.9511H18.5854C18.5392 25.9511 18.4988 25.9453 18.4584 25.9396L15.1452 25.218C15.0336 25.1862 14.9308 25.1289 14.8451 25.0507C14.5828 24.7698 14.112 24.9554 14.112 25.3397V31.0002C14.112 31.5525 14.5597 32.0002 15.112 32.0002H30.5436C31.0959 32.0002 31.5436 31.5525 31.5436 31.0002V13.2309C31.5436 12.6786 31.0959 12.2309 30.5436 12.2309H27.8957ZM23.6936 28.0752C23.6936 28.5485 23.3069 28.941 22.8278 28.941C22.3488 28.941 21.962 28.5485 21.962 28.0752V27.3422C21.962 26.8631 22.3488 26.4764 22.8278 26.4764C23.3069 26.4764 23.6936 26.8631 23.6936 27.3422V28.0752ZM24.4792 21.3477C24.0366 21.5258 23.6936 21.9253 23.6936 22.4024V23.5557C23.6936 24.0348 23.3069 24.4215 22.8278 24.4215C22.3488 24.4215 21.962 24.0348 21.962 23.5557V20.8024C21.962 20.3233 22.3488 19.9366 22.8278 19.9366C24.317 19.9366 25.5349 18.7245 25.5349 17.2295C25.5349 15.7403 24.317 14.5224 22.8278 14.5224C21.3329 14.5224 20.1207 15.7403 20.1207 17.2295C20.1207 17.7086 19.734 18.0953 19.2549 18.0953C18.7759 18.0953 18.3891 17.7086 18.3891 17.2295C18.3891 14.7822 20.3805 12.7908 22.8278 12.7908C25.2752 12.7908 27.2666 14.7822 27.2666 17.2295C27.2666 19.0949 26.1097 20.6916 24.4792 21.3477Z" fill="white"/>
</g>
<defs>
<clipPath id="clip0_1049_64776">
<rect width="24" height="24" fill="white" transform="translate(8 8)"/>
</clipPath>
</defs>
</svg>
