<svg width="40" height="41" viewBox="0 0 40 41" fill="none" xmlns="http://www.w3.org/2000/svg">
<rect y="0.5" width="40" height="40" rx="7" fill="#4656FF"/>
<g clip-path="url(#clip0_1049_64723)">
<path d="M29.2731 10.8345V9.59091C29.2731 8.99091 28.7822 8.5 28.1822 8.5H27.0913C26.4913 8.5 26.0004 8.99091 26.0004 9.59091V10.8345C25.8355 10.9297 25.6984 11.0664 25.6027 11.231C25.507 11.3956 25.456 11.5823 25.4549 11.7727V13.9545C25.4549 14.9691 26.1531 15.8145 27.0913 16.06V28.6818C27.0913 30.1873 25.8694 31.4091 24.364 31.4091H20.5458C19.9166 31.4079 19.3071 31.1897 18.8201 30.7912C18.3332 30.3927 17.9987 29.8384 17.8731 29.2218C18.4513 29.1945 18.9094 28.72 18.9094 28.1364V27.0455H15.6367V28.1364C15.6367 28.7364 16.1276 29.2273 16.7276 29.2273H16.7713C17.0385 31.0764 18.6258 32.5 20.5458 32.5H24.364C26.4694 32.5 28.1822 30.7873 28.1822 28.6818V16.06C29.1204 15.8145 29.8185 14.9691 29.8185 13.9545V11.7727C29.8174 11.5823 29.7664 11.3956 29.6707 11.231C29.5751 11.0664 29.438 10.9297 29.2731 10.8345ZM27.0913 9.59091H28.1822V10.6818H27.0913V9.59091Z" fill="white"/>
<path d="M18.9642 11.7729H15.5824C15.4748 12.2968 15.2159 12.7775 14.8378 13.1557C14.4597 13.5338 13.9789 13.7927 13.4551 13.9002V20.5548C14.5242 20.773 15.3642 21.6129 15.5824 22.682H18.9642C19.0717 22.1582 19.3306 21.6775 19.7087 21.2993C20.0869 20.9212 20.5676 20.6623 21.0914 20.5548V13.9002C20.5676 13.7927 20.0869 13.5338 19.7087 13.1557C19.3306 12.7775 19.0717 12.2968 18.9642 11.7729Z" fill="white"/>
<path d="M24.3635 23.7727V10.6818C24.3635 9.47636 23.3871 8.5 22.1816 8.5H12.3635C11.158 8.5 10.1816 9.47636 10.1816 10.6818V23.7727C10.1816 24.9782 11.158 25.9545 12.3635 25.9545H22.1816C23.3871 25.9545 24.3635 24.9782 24.3635 23.7727ZM21.6416 10.6818C21.9416 10.6818 22.1871 10.9273 22.1871 11.2273C22.1871 11.5273 21.9416 11.7727 21.6416 11.7727C21.3416 11.7727 21.0962 11.5273 21.0962 11.2273C21.0962 10.9273 21.3362 10.6818 21.6416 10.6818ZM12.9144 10.6818C13.2144 10.6818 13.4598 10.9273 13.4598 11.2273C13.4598 11.5273 13.2144 11.7727 12.9144 11.7727C12.6144 11.7727 12.3689 11.5273 12.3689 11.2273C12.3689 10.9273 12.6089 10.6818 12.9144 10.6818ZM12.9198 23.7727C12.6198 23.7727 12.3744 23.5273 12.3744 23.2273C12.3744 22.9273 12.6144 22.6818 12.9198 22.6818C13.2198 22.6818 13.4653 22.9273 13.4653 23.2273C13.4653 23.5273 13.2198 23.7727 12.9198 23.7727ZM19.9998 23.2273C19.9998 23.5273 19.7544 23.7727 19.4544 23.7727H15.0907C14.7907 23.7727 14.5453 23.5273 14.5453 23.2273C14.5453 22.3273 13.8089 21.5909 12.9089 21.5909C12.6089 21.5909 12.3635 21.3455 12.3635 21.0455V13.4091C12.3635 13.1091 12.6089 12.8636 12.9089 12.8636C13.8089 12.8636 14.5453 12.1273 14.5453 11.2273C14.5453 10.9273 14.7907 10.6818 15.0907 10.6818H19.4544C19.7544 10.6818 19.9998 10.9273 19.9998 11.2273C19.9998 12.1273 20.7362 12.8636 21.6362 12.8636C21.9362 12.8636 22.1816 13.1091 22.1816 13.4091V21.0455C22.1816 21.3455 21.9362 21.5909 21.6362 21.5909C20.7362 21.5909 19.9998 22.3273 19.9998 23.2273ZM21.6471 23.7727C21.3471 23.7727 21.1016 23.5273 21.1016 23.2273C21.1016 22.9273 21.3416 22.6818 21.6471 22.6818C21.9471 22.6818 22.1926 22.9273 22.1926 23.2273C22.1926 23.5273 21.9471 23.7727 21.6471 23.7727Z" fill="white"/>
</g>
<defs>
<clipPath id="clip0_1049_64723">
<rect width="24" height="24" fill="white" transform="translate(8 8.5)"/>
</clipPath>
</defs>
</svg>
