<svg width="40" height="40" viewBox="0 0 40 40" fill="none" xmlns="http://www.w3.org/2000/svg">
<rect width="40" height="40" rx="7" fill="#FFC113"/>
<path d="M25.25 23H19.25C19.0511 23 18.8603 23.079 18.7197 23.2197C18.579 23.3603 18.5 23.5511 18.5 23.75V29.75C18.5 29.9489 18.579 30.1397 18.7197 30.2803C18.8603 30.421 19.0511 30.5 19.25 30.5H25.25C25.4489 30.5 25.6397 30.421 25.7803 30.2803C25.921 30.1397 26 29.9489 26 29.75V23.75C26 23.5511 25.921 23.3603 25.7803 23.2197C25.6397 23.079 25.4489 23 25.25 23Z" fill="white"/>
<path d="M27.5 20.75H21.5C21.3011 20.75 21.1103 20.829 20.9697 20.9697C20.829 21.1103 20.75 21.3011 20.75 21.5C20.75 21.6989 20.829 21.8897 20.9697 22.0303C21.1103 22.171 21.3011 22.25 21.5 22.25H26.75V27.5C26.75 27.6989 26.829 27.8897 26.9697 28.0303C27.1103 28.171 27.3011 28.25 27.5 28.25C27.6989 28.25 27.8897 28.171 28.0303 28.0303C28.171 27.8897 28.25 27.6989 28.25 27.5V21.5C28.25 21.3011 28.171 21.1103 28.0303 20.9697C27.8897 20.829 27.6989 20.75 27.5 20.75Z" fill="white"/>
<path d="M29.75 18.5H23.75C23.5511 18.5 23.3603 18.579 23.2197 18.7197C23.079 18.8603 23 19.0511 23 19.25C23 19.4489 23.079 19.6397 23.2197 19.7803C23.3603 19.921 23.5511 20 23.75 20H29V25.25C29 25.4489 29.079 25.6397 29.2197 25.7803C29.3603 25.921 29.5511 26 29.75 26C29.9489 26 30.1397 25.921 30.2803 25.7803C30.421 25.6397 30.5 25.4489 30.5 25.25V19.25C30.5 19.0511 30.421 18.8603 30.2803 18.7197C30.1397 18.579 29.9489 18.5 29.75 18.5ZM26 15.1895L25.7803 14.9698C25.7111 14.8981 25.6283 14.841 25.5368 14.8017C25.4453 14.7624 25.3469 14.7417 25.2473 14.7408C25.1477 14.7399 25.049 14.7589 24.9568 14.7966C24.8646 14.8343 24.7809 14.89 24.7105 14.9605C24.64 15.0309 24.5843 15.1146 24.5466 15.2068C24.5089 15.299 24.4899 15.3977 24.4908 15.4973C24.4917 15.5969 24.5124 15.6953 24.5517 15.7868C24.591 15.8783 24.6481 15.9611 24.7197 16.0302L26.2197 17.5302C26.2892 17.6001 26.3719 17.6556 26.4629 17.6934C26.5539 17.7313 26.6514 17.7508 26.75 17.7508C26.8486 17.7508 26.9461 17.7313 27.0371 17.6934C27.1281 17.6556 27.2108 17.6001 27.2803 17.5302L28.7803 16.0302C28.8519 15.9611 28.909 15.8783 28.9483 15.7868C28.9876 15.6953 29.0083 15.5969 29.0092 15.4973C29.0101 15.3977 28.9911 15.299 28.9534 15.2068C28.9157 15.1146 28.86 15.0309 28.7895 14.9605C28.7191 14.89 28.6354 14.8343 28.5432 14.7966C28.451 14.7589 28.3523 14.7399 28.2527 14.7408C28.1531 14.7417 28.0547 14.7624 27.9632 14.8017C27.8717 14.841 27.7889 14.8981 27.7197 14.9698L27.5 15.1895V13.25C27.5 13.0511 27.421 12.8603 27.2803 12.7197C27.1397 12.579 26.9489 12.5 26.75 12.5H20.75V14H26V15.1895ZM16.0302 24.7197C15.9611 24.6481 15.8783 24.591 15.7868 24.5517C15.6953 24.5124 15.5969 24.4917 15.4973 24.4908C15.3977 24.4899 15.299 24.5089 15.2068 24.5466C15.1146 24.5843 15.0309 24.64 14.9605 24.7105C14.89 24.7809 14.8343 24.8646 14.7966 24.9568C14.7589 25.049 14.7399 25.1477 14.7408 25.2473C14.7417 25.3469 14.7624 25.4453 14.8017 25.5368C14.841 25.6283 14.8981 25.7111 14.9698 25.7803L15.1895 26H14V20.75H12.5V26.75C12.5 26.9489 12.579 27.1397 12.7197 27.2803C12.8603 27.421 13.0511 27.5 13.25 27.5H15.1895L14.9698 27.7197C14.8981 27.7889 14.841 27.8717 14.8017 27.9632C14.7624 28.0547 14.7417 28.1531 14.7408 28.2527C14.7399 28.3523 14.7589 28.451 14.7966 28.5432C14.8343 28.6354 14.89 28.7191 14.9605 28.7895C15.0309 28.86 15.1146 28.9157 15.2068 28.9534C15.299 28.9911 15.3977 29.0101 15.4973 29.0092C15.5969 29.0083 15.6953 28.9876 15.7868 28.9483C15.8783 28.909 15.9611 28.8519 16.0302 28.7803L17.5302 27.2803C17.6709 27.1396 17.7498 26.9489 17.7498 26.75C17.7498 26.5511 17.6709 26.3604 17.5302 26.2197L16.0302 24.7197ZM12.5 12.5V19.25C12.5 19.4489 12.579 19.6397 12.7197 19.7803C12.8603 19.921 13.0511 20 13.25 20H19.25C19.4489 20 19.6397 19.921 19.7803 19.7803C19.921 19.6397 20 19.4489 20 19.25V13.25C20 13.0511 19.921 12.8603 19.7803 12.7197C19.6397 12.579 19.4489 12.5 19.25 12.5H12.5ZM9.5 17L11.75 19.25V12.275L9.5 10.025V17ZM17 9.5H10.025L12.275 11.75H19.25L17 9.5Z" fill="white"/>
</svg>
