<svg width="69" height="69" viewBox="0 0 69 69" fill="none" xmlns="http://www.w3.org/2000/svg">
<path d="M64.3068 31.4149C64.1188 31.0905 63.8487 30.8213 63.5238 30.6342C63.1988 30.4471 62.8303 30.3487 62.4554 30.349H45.3321V41.6782L47.785 39.2231C47.9859 39.0222 48.2585 38.9093 48.5427 38.9093C48.8269 38.9093 49.0994 39.0222 49.3004 39.2231C49.5014 39.4241 49.6143 39.6966 49.6143 39.9808C49.6143 40.265 49.5014 40.5376 49.3004 40.7385L45.0196 45.0194C44.9205 45.1195 44.8025 45.1991 44.6724 45.2534C44.5423 45.3076 44.4028 45.3356 44.2619 45.3356C44.1209 45.3356 43.9814 45.3076 43.8514 45.2534C43.7213 45.1991 43.6033 45.1195 43.5042 45.0194L39.2233 40.7385C39.1238 40.639 39.0449 40.5209 38.9911 40.3909C38.9372 40.2609 38.9095 40.1216 38.9095 39.9808C38.9095 39.8401 38.9372 39.7008 38.9911 39.5708C39.0449 39.4408 39.1238 39.3226 39.2233 39.2231C39.3228 39.1236 39.441 39.0447 39.571 38.9909C39.701 38.937 39.8403 38.9093 39.9811 38.9093C40.1218 38.9093 40.2611 38.937 40.3911 38.9909C40.5211 39.0447 40.6393 39.1236 40.7388 39.2231L43.1917 41.6782V30.349H26.0684V41.6782L28.5213 39.2231C28.7222 39.0222 28.9948 38.9093 29.279 38.9093C29.5632 38.9093 29.8357 39.0222 30.0367 39.2231C30.2377 39.4241 30.3506 39.6966 30.3506 39.9808C30.3506 40.265 30.2377 40.5376 30.0367 40.7385L25.7559 45.0194C25.6568 45.1195 25.5388 45.1991 25.4087 45.2534C25.2786 45.3076 25.1391 45.3356 24.9982 45.3356C24.8572 45.3356 24.7177 45.3076 24.5877 45.2534C24.4576 45.1991 24.3396 45.1195 24.2405 45.0194L19.9596 40.7385C19.8601 40.639 19.7812 40.5209 19.7274 40.3909C19.6735 40.2609 19.6458 40.1216 19.6458 39.9808C19.6458 39.8401 19.6735 39.7008 19.7274 39.5708C19.7812 39.4408 19.8601 39.3226 19.9596 39.2231C20.0591 39.1236 20.1773 39.0447 20.3073 38.9909C20.4373 38.937 20.5766 38.9093 20.7174 38.9093C20.8581 38.9093 20.9974 38.937 21.1274 38.9909C21.2574 39.0447 21.3756 39.1236 21.4751 39.2231L23.928 41.6782V30.349H6.80468C6.41144 30.349 6.0258 30.4572 5.69006 30.662C5.35433 30.8667 5.08149 31.16 4.90148 31.5096C4.72147 31.8592 4.64126 32.2517 4.66965 32.6439C4.69803 33.0361 4.83392 33.4129 5.06239 33.733L15.7644 48.7159C16.1668 49.2788 16.8154 49.6127 17.5067 49.6127H53.8937C54.271 49.6126 54.6415 49.5127 54.9678 49.3233C55.2941 49.1338 55.5645 48.8615 55.7516 48.5339L64.3132 33.551C64.4993 33.2256 64.5967 32.857 64.5956 32.4821C64.5944 32.1072 64.4949 31.7392 64.3068 31.4149ZM47.4725 51.7531H21.7876C20.6522 51.7531 19.5634 52.2041 18.7606 53.0069C17.9577 53.8097 17.5067 54.8986 17.5067 56.0339V60.3147C17.5067 61.4501 17.9577 62.5389 18.7606 63.3417C19.5634 64.1446 20.6522 64.5956 21.7876 64.5956H47.4725C48.6078 64.5956 49.6967 64.1446 50.4995 63.3417C51.3023 62.5389 51.7533 61.4501 51.7533 60.3147V56.0339C51.7533 54.8986 51.3023 53.8097 50.4995 53.0069C49.6967 52.2041 48.6078 51.7531 47.4725 51.7531ZM31.4194 59.2445H22.8578C22.5739 59.2445 22.3017 59.1318 22.101 58.9311C21.9003 58.7304 21.7876 58.4582 21.7876 58.1743C21.7876 57.8905 21.9003 57.6183 22.101 57.4176C22.3017 57.2169 22.5739 57.1041 22.8578 57.1041H31.4194C31.7032 57.1041 31.9755 57.2169 32.1762 57.4176C32.3769 57.6183 32.4896 57.8905 32.4896 58.1743C32.4896 58.4582 32.3769 58.7304 32.1762 58.9311C31.9755 59.1318 31.7032 59.2445 31.4194 59.2445ZM38.9108 60.3147C38.3432 60.3147 37.7987 60.0892 37.3973 59.6878C36.9959 59.2864 36.7704 58.742 36.7704 58.1743C36.7704 57.6067 36.9959 57.0622 37.3973 56.6608C37.7987 56.2594 38.3432 56.0339 38.9108 56.0339C39.4785 56.0339 40.0229 56.2594 40.4243 56.6608C40.8258 57.0622 41.0513 57.6067 41.0513 58.1743C41.0513 58.742 40.8258 59.2864 40.4243 59.6878C40.0229 60.0892 39.4785 60.3147 38.9108 60.3147ZM45.3321 60.3147C44.7644 60.3147 44.22 60.0892 43.8186 59.6878C43.4172 59.2864 43.1917 58.742 43.1917 58.1743C43.1917 57.6067 43.4172 57.0622 43.8186 56.6608C44.22 56.2594 44.7644 56.0339 45.3321 56.0339C45.8997 56.0339 46.4442 56.2594 46.8456 56.6608C47.247 57.0622 47.4725 57.6067 47.4725 58.1743C47.4725 58.742 47.247 59.2864 46.8456 59.6878C46.4442 60.0892 45.8997 60.3147 45.3321 60.3147ZM15.3663 4.66406V13.2257H6.80468L15.3663 4.66406Z" fill="#2DCA73"/>
<path d="M6.80469 15.3661V28.2086H32.4896V6.80447C32.4896 6.2368 32.2641 5.69238 31.8627 5.29097C31.4613 4.88957 30.9169 4.66406 30.3492 4.66406H17.5067V13.2257C17.5067 13.7934 17.2812 14.3378 16.8798 14.7392C16.4784 15.1406 15.934 15.3661 15.3663 15.3661H6.80469ZM11.0855 24.998C11.0855 24.7141 11.1983 24.4419 11.399 24.2412C11.5997 24.0405 11.8719 23.9278 12.1557 23.9278H27.1386C27.4224 23.9278 27.6946 24.0405 27.8953 24.2412C28.096 24.4419 28.2088 24.7141 28.2088 24.998C28.2088 25.2818 28.096 25.554 27.8953 25.7547C27.6946 25.9554 27.4224 26.0682 27.1386 26.0682H12.1557C11.8719 26.0682 11.5997 25.9554 11.399 25.7547C11.1983 25.554 11.0855 25.2818 11.0855 24.998ZM11.0855 20.7171C11.0855 20.4333 11.1983 20.1611 11.399 19.9604C11.5997 19.7597 11.8719 19.6469 12.1557 19.6469H27.1386C27.4224 19.6469 27.6946 19.7597 27.8953 19.9604C28.096 20.1611 28.2088 20.4333 28.2088 20.7171C28.2088 21.001 28.096 21.2732 27.8953 21.4739C27.6946 21.6746 27.4224 21.7874 27.1386 21.7874H12.1557C11.8719 21.7874 11.5997 21.6746 11.399 21.4739C11.1983 21.2732 11.0855 21.001 11.0855 20.7171ZM45.3321 4.66406V13.2257H36.7704L45.3321 4.66406Z" fill="#2DCA73"/>
<path d="M36.7695 15.3661V28.2086H62.4545V6.80447C62.4545 6.2368 62.229 5.69238 61.8276 5.29097C61.4261 4.88957 60.8817 4.66406 60.3141 4.66406H47.4716V13.2257C47.4716 13.7934 47.2461 14.3378 46.8447 14.7392C46.4433 15.1406 45.8988 15.3661 45.3312 15.3661H36.7695ZM41.0504 24.998C41.0504 24.7141 41.1631 24.4419 41.3638 24.2412C41.5645 24.0405 41.8367 23.9278 42.1206 23.9278H57.1034C57.3873 23.9278 57.6595 24.0405 57.8602 24.2412C58.0609 24.4419 58.1736 24.7141 58.1736 24.998C58.1736 25.2818 58.0609 25.554 57.8602 25.7547C57.6595 25.9554 57.3873 26.0682 57.1034 26.0682H42.1206C41.8367 26.0682 41.5645 25.9554 41.3638 25.7547C41.1631 25.554 41.0504 25.2818 41.0504 24.998ZM41.0504 20.7171C41.0504 20.4333 41.1631 20.1611 41.3638 19.9604C41.5645 19.7597 41.8367 19.6469 42.1206 19.6469H57.1034C57.3873 19.6469 57.6595 19.7597 57.8602 19.9604C58.0609 20.1611 58.1736 20.4333 58.1736 20.7171C58.1736 21.001 58.0609 21.2732 57.8602 21.4739C57.6595 21.6746 57.3873 21.7874 57.1034 21.7874H42.1206C41.8367 21.7874 41.5645 21.6746 41.3638 21.4739C41.1631 21.2732 41.0504 21.001 41.0504 20.7171Z" fill="#2DCA73"/>
</svg>
