<svg width="40" height="40" viewBox="0 0 40 40" fill="none" xmlns="http://www.w3.org/2000/svg">
<rect width="40" height="40" rx="7" fill="#FF3C83"/>
<g clip-path="url(#clip0_1049_64760)">
<path d="M19.948 18.2785H15.2917V13.6221C15.2917 12.2659 14.1883 11.1626 12.8322 11.1626H9.58203V20.9309H20.6511V27.0811H9.58203V28.8374H22.4075V20.7379C22.4075 19.3818 21.3042 18.2785 19.948 18.2785Z" fill="white"/>
<path d="M8 22.3371H19.2441V25.6748H8V22.3371ZM19.5597 16.8722L16.6972 14.0096V16.8722H19.5597ZM26.6993 28.8374H25.2192V23.8833H26.6993C26.6512 23.6563 26.6255 23.4213 26.6255 23.1802C26.6255 22.9391 26.6512 22.704 26.6993 22.4771H25.2192V17.5229H26.6993C26.6512 17.296 26.6255 17.0609 26.6255 16.8198C26.6255 16.5787 26.6512 16.3436 26.6993 16.1167H25.2192V11.1626H26.6993C26.6512 10.9356 26.6255 10.7006 26.6255 10.4595C26.6255 10.2184 26.6512 9.98332 26.6993 9.75635H23.813V30.2436H26.6993C26.6512 30.0167 26.6255 29.7816 26.6255 29.5405C26.6255 29.2994 26.6512 29.0643 26.6993 28.8374Z" fill="white"/>
<path d="M30.7843 31.3695C31.7968 30.9505 32.278 29.79 31.859 28.7775C31.44 27.7649 30.2795 27.2838 29.267 27.7028C28.2544 28.1218 27.7733 29.2822 28.1922 30.2948C28.6112 31.3073 29.7717 31.7885 30.7843 31.3695Z" fill="white"/>
<path d="M30.7823 25.0086C31.7948 24.5897 32.276 23.4292 31.857 22.4166C31.438 21.4041 30.2775 20.9229 29.265 21.3419C28.2525 21.7609 27.7713 22.9214 28.1903 23.9339C28.6093 24.9465 29.7698 25.4276 30.7823 25.0086Z" fill="white"/>
<path d="M30.0154 18.8042C31.1112 18.8042 31.9995 17.9159 31.9995 16.8201C31.9995 15.7243 31.1112 14.8359 30.0154 14.8359C28.9196 14.8359 28.0312 15.7243 28.0312 16.8201C28.0312 17.9159 28.9196 18.8042 30.0154 18.8042Z" fill="white"/>
<path d="M30.0154 12.4438C31.1112 12.4438 31.9995 11.5555 31.9995 10.4597C31.9995 9.36391 31.1112 8.47559 30.0154 8.47559C28.9196 8.47559 28.0312 9.36391 28.0312 10.4597C28.0312 11.5555 28.9196 12.4438 30.0154 12.4438Z" fill="white"/>
</g>
<defs>
<clipPath id="clip0_1049_64760">
<rect width="24" height="24" fill="white" transform="translate(8 8)"/>
</clipPath>
</defs>
</svg>
