<svg width="40" height="40" viewBox="0 0 40 40" fill="none" xmlns="http://www.w3.org/2000/svg">
<rect width="40" height="40" rx="7" fill="#FF4842"/>
<g clip-path="url(#clip0_1049_64787)">
<path d="M11 21.5C11 20.2595 12.0095 19.25 13.25 19.25C14.4905 19.25 15.5 20.2595 15.5 21.5H17V19.0475C17 18.4872 17.645 18.119 18.1287 18.4002C18.6163 18.6837 19.25 18.3148 19.25 17.75C19.25 17.2055 18.608 16.8178 18.1287 17.0998C17.6405 17.387 17 17.0173 17 16.4525V12.5H10.25C9.0095 12.5 8 13.5095 8 14.75V21.5H11Z" fill="white"/>
<path d="M17 29C15.7595 29 14.75 27.9905 14.75 26.75C14.75 25.5095 15.7595 24.5 17 24.5V23H14.5475C13.988 23 13.6093 22.3685 13.9002 21.8705C14.1815 21.3905 13.8177 20.75 13.25 20.75C12.707 20.75 12.32 21.3935 12.5998 21.8705C12.8878 22.361 12.5202 23 11.9525 23H8V29.75C8 30.9905 9.0095 32 10.25 32H17V29Z" fill="white"/>
<path d="M24.5 23C24.5 24.2405 23.4905 25.25 22.25 25.25C21.0095 25.25 20 24.2405 20 23H18.5V25.4525C18.5 26.0142 17.8557 26.3825 17.3712 26.0998C16.8867 25.817 16.25 26.1845 16.25 26.75C16.25 27.2967 16.8912 27.683 17.3712 27.4002C17.8572 27.1145 18.5 27.4888 18.5 28.0475V32H25.25C26.4905 32 27.5 30.9905 27.5 29.75V23H24.5ZM29.75 8H22.25C22.0511 8 21.8603 8.07902 21.7197 8.21967C21.579 8.36032 21.5 8.55109 21.5 8.75V11.9525C21.5 12.521 22.139 12.8855 22.6295 12.5998C23.12 12.3125 23.75 12.6912 23.75 13.25C23.75 13.7975 23.1095 14.1838 22.6295 13.9002C22.142 13.613 21.5 13.9887 21.5 14.5475V17.75C21.5 17.9489 21.579 18.1397 21.7197 18.2803C21.8603 18.421 22.0511 18.5 22.25 18.5H24.5C24.5 19.7405 25.5095 20.75 26.75 20.75C27.9905 20.75 29 19.7405 29 18.5H31.25C31.4489 18.5 31.6397 18.421 31.7803 18.2803C31.921 18.1397 32 17.9489 32 17.75V10.25C32 9.0095 30.9905 8 29.75 8Z" fill="white"/>
</g>
<defs>
<clipPath id="clip0_1049_64787">
<rect width="24" height="24" fill="white" transform="translate(8 8)"/>
</clipPath>
</defs>
</svg>
