<?xml version="1.0" encoding="UTF-8"?>
<svg version="1.1" xmlns="http://www.w3.org/2000/svg" width="512" height="512">
<path d="M0 0 C5.69543405 4.67125512 8.32176076 10.24182667 11.09375 16.8984375 C11.70476562 18.33509766 11.70476562 18.33509766 12.328125 19.80078125 C13.53709329 22.66025408 14.73346585 25.52463231 15.9229126 28.39227295 C16.87019668 30.67530639 17.82058887 32.95703454 18.77099609 35.23876953 C20.95025564 40.47571462 23.11742097 45.71760109 25.28125 50.9609375 C25.81656845 52.25498001 25.81656845 52.25498001 26.36270142 53.57516479 C27.39182892 56.06663845 28.41548767 58.56028801 29.4375 61.0546875 C29.74543991 61.7987233 30.05337982 62.54275909 30.37065125 63.30934143 C33.71028419 71.49825325 36.26115539 78.72206417 33.0625 87.4140625 C30.24289896 93.00465076 25.67215754 96.49730165 19.78125 98.4609375 C13.10230197 99.21623049 8.14938169 98.86258217 2.53515625 95.04296875 C-2.14852393 90.81826837 -4.5512347 86.03214308 -6.96875 80.3359375 C-7.28457031 79.62050781 -7.60039062 78.90507813 -7.92578125 78.16796875 C-9.24146553 75.12082118 -10.21875 72.81415395 -10.21875 69.4609375 C-10.87875 69.4609375 -11.53875 69.4609375 -12.21875 69.4609375 C-12.33040497 70.00906601 -12.44205994 70.55719452 -12.55709839 71.12193298 C-13.72200029 76.62238661 -15.22879935 81.89521208 -17.0390625 87.21484375 C-17.30258514 88.00116684 -17.56610779 88.78748993 -17.83761597 89.59764099 C-18.66872597 92.07436607 -19.50611455 94.54891273 -20.34375 97.0234375 C-20.91317958 98.71665597 -21.48219375 100.4100142 -22.05078125 102.10351562 C-23.43531373 106.22428533 -24.82547572 110.34311569 -26.21875 114.4609375 C-25.65533905 114.64171341 -25.0919281 114.82248932 -24.51144409 115.00874329 C-14.22820614 118.32069228 -4.48067275 122.03953093 5.09375 127.0859375 C6.38962036 127.76813354 6.38962036 127.76813354 7.71166992 128.46411133 C12.67973776 131.14864696 17.25864546 134.07966501 21.78125 137.4609375 C25.46081291 135.89861729 27.94640793 133.62509668 30.84375 130.8984375 C34.55603591 127.44631179 38.32941138 124.14168566 42.28125 120.9609375 C46.06585334 117.90745071 49.70332537 114.75425449 53.28125 111.4609375 C57.72852112 107.36742659 62.32842463 103.53651251 67.03125 99.7421875 C70.82030407 96.59899492 74.41394352 93.25935155 78.03515625 89.92578125 C80.70000166 87.53386453 83.42956825 85.26838866 86.21875 83.0234375 C90.75602021 79.36393222 95.04155973 75.51098729 99.30493164 71.54272461 C102.49431313 68.59176313 105.7648083 65.80107997 109.15625 63.0859375 C114.40473521 58.87182529 119.30546753 54.34147074 124.18701172 49.71337891 C128.58633099 45.55839701 128.58633099 45.55839701 130.78125 44.4609375 C129.43546875 44.4923584 129.43546875 44.4923584 128.0625 44.52441406 C124.70025141 44.59301366 121.33875765 44.64294044 117.97607422 44.68066406 C116.52706083 44.70065045 115.07812675 44.72784947 113.62939453 44.76269531 C104.22148473 44.98314254 97.0060621 45.03947493 89.5390625 38.49609375 C89.00023437 37.84511719 88.46140625 37.19414063 87.90625 36.5234375 C87.35195313 35.87503906 86.79765625 35.22664063 86.2265625 34.55859375 C81.9299727 28.32273234 82.06298988 21.79428468 82.78125 14.4609375 C84.7807655 7.68420118 89.1734328 2.7236922 95.35549927 -0.64634705 C100.04899901 -2.92684672 104.19097611 -3.11191818 109.34326172 -3.07250977 C110.72543381 -3.08543312 110.72543381 -3.08543312 112.13552856 -3.09861755 C115.16095625 -3.12119349 118.18545118 -3.1145532 121.2109375 -3.10546875 C123.32789381 -3.11070857 125.44484777 -3.11698636 127.5617981 -3.12425232 C131.99166881 -3.13464154 136.421218 -3.13011697 140.85107422 -3.11547852 C146.50905844 -3.09830601 152.16602564 -3.12177548 157.82389641 -3.15696812 C162.19416955 -3.17900198 166.56420169 -3.17748589 170.93451309 -3.1692028 C173.01957437 -3.16838632 175.10465389 -3.17519134 177.18966293 -3.18997383 C199.50342156 -3.32392044 199.50342156 -3.32392044 208.21875 4.70703125 C208.9921875 5.79177734 208.9921875 5.79177734 209.78125 6.8984375 C210.585625 7.97931641 210.585625 7.97931641 211.40625 9.08203125 C214.70651695 14.79186811 215.07884678 20.00966029 215.07177734 26.42871094 C215.07849457 27.31085266 215.08521179 28.19299438 215.09213257 29.10186768 C215.11107538 32.00807383 215.11503512 34.91404851 215.1171875 37.8203125 C215.1236188 39.85044447 215.13034741 41.88057552 215.13735962 43.91070557 C215.14932367 48.16412503 215.15304142 52.41746334 215.15185547 56.67089844 C215.15165252 62.10233697 215.17893441 67.53325089 215.21339989 72.96456528 C215.23571722 77.15808468 215.2396915 81.35147889 215.23863602 85.54505157 C215.24098547 87.54638727 215.24977178 89.54772677 215.26530075 91.5490036 C215.41863456 113.35388932 215.41863456 113.35388932 208.95703125 121.86328125 C202.47264113 127.20576619 196.72789012 129.83703209 188.21875 129.4609375 C180.20189193 128.40844496 175.1735101 124.39051276 170.0078125 118.40234375 C167.00767379 113.65371655 166.50853622 108.82510002 166.3671875 103.3125 C166.34782135 102.65510834 166.3284552 101.99771667 166.3085022 101.32040405 C166.24922539 99.24237615 166.20253206 97.16429126 166.15625 95.0859375 C166.11802222 93.667946 166.07896777 92.24997653 166.0390625 90.83203125 C165.94356829 87.37520289 165.85934811 83.91820767 165.78125 80.4609375 C159.29206348 87.36736444 152.99369809 94.32011158 147.05859375 101.71484375 C144.56298453 104.72412897 141.94358195 107.60030772 139.28125 110.4609375 C134.99164593 115.07092693 130.97713878 119.83877266 127.02734375 124.74609375 C124.6929441 127.56767245 122.26134402 130.26684462 119.78125 132.9609375 C116.48793301 136.53886213 113.33473679 140.17633416 110.28125 143.9609375 C106.44405969 148.71689169 102.38739899 153.21598551 98.25 157.7109375 C95.05364601 161.27143309 92.06951851 164.98359577 89.06640625 168.70703125 C86.69758975 171.56175883 84.23198583 174.2953296 81.71875 177.0234375 C78.46420367 180.58915519 75.22138035 184.15797498 72.09375 187.8359375 C71.42988281 188.60679687 70.76601563 189.37765625 70.08203125 190.171875 C68.5605976 192.36806459 68.5605976 192.36806459 68.9140625 194.83984375 C70.32621348 199.1081019 72.02464007 203.24148258 73.72265625 207.40234375 C74.78125 210.4609375 74.78125 210.4609375 74.78125 214.4609375 C75.8826351 214.44815765 75.8826351 214.44815765 77.00627041 214.43511963 C84.09539395 214.38865813 91.09181917 214.65452308 98.15844727 215.1953125 C99.2251767 215.27334106 100.29190613 215.35136963 101.39096069 215.4317627 C103.68429672 215.60007488 105.97748749 215.77037631 108.27054024 215.94250488 C111.90776564 216.21544821 115.5453593 216.48290743 119.18309021 216.74902344 C126.90367208 217.31480725 134.6237346 217.88748357 142.34375 218.4609375 C151.29975694 219.12587173 160.25596133 219.78792361 169.21265984 220.44348145 C172.78172148 220.70608615 176.35039865 220.97353024 179.91908264 221.24121094 C182.12385388 221.40322583 184.32864128 221.56502114 186.53344727 221.7265625 C188.00274437 221.83877136 188.00274437 221.83877136 189.50172424 221.95324707 C195.93878069 222.41828474 202.32829149 222.54379012 208.78125 222.4609375 C207.68453979 221.38779297 207.68453979 221.38779297 206.56567383 220.29296875 C203.82755963 217.60959122 201.09974383 214.91593918 198.37475586 212.21923828 C197.19910954 211.05857964 196.02077236 209.90063953 194.83959961 208.74560547 C185.27689027 199.38911101 177.59203176 191.51463133 176.46875 177.5859375 C176.82829863 168.38149268 179.99605755 162.20074253 186.37109375 155.59765625 C192.57953083 150.09357994 199.2810873 148.08299711 207.546875 148.25390625 C219.97699259 149.40564791 227.97706143 157.35430237 236.42480469 165.81396484 C237.13009811 166.51254105 237.83539154 167.21111725 238.5620575 167.93086243 C240.86432995 170.21432047 243.15916174 172.50507171 245.453125 174.796875 C247.06481824 176.40213181 248.67665747 178.00724206 250.28863525 179.61221313 C253.65414958 182.96579831 257.01555164 186.3234445 260.37451172 189.68359375 C264.6669993 193.97628496 268.97310781 198.25502586 273.28284836 202.53038597 C276.61151924 205.83676869 279.93100863 209.15225363 283.24802399 212.47032547 C284.83154784 214.0514988 286.41829375 215.62945242 288.0083847 217.20402145 C290.23368733 219.40961437 292.44582588 221.62766039 294.65527344 223.84912109 C295.30576157 224.48837021 295.95624969 225.12761932 296.62644958 225.78623962 C303.91090063 233.1711825 307.85137669 240.54834125 308.15625 250.9609375 C308.01007557 266.58536008 298.88310857 275.49216706 288.50415039 285.91503906 C287.81372147 286.61203918 287.12329254 287.30903931 286.41194153 288.02716064 C284.15379407 290.30482629 281.89181527 292.578628 279.62890625 294.8515625 C278.46199658 296.02458546 278.46199658 296.02458546 277.27151299 297.22130585 C273.16093595 301.35264217 269.04716271 305.48076609 264.9309082 309.60644531 C260.69140895 313.85704673 256.46372495 318.11920408 252.23851871 322.3840065 C248.97400713 325.67468035 245.70062409 328.95642048 242.42480278 332.23583221 C240.8621961 333.80329803 239.30295848 335.37413024 237.74724007 336.94843292 C235.57009048 339.14998615 233.38058891 341.33850852 231.18774414 343.52441406 C230.23750366 344.49386963 230.23750366 344.49386963 229.26806641 345.48291016 C222.66692409 352.00850096 215.70782127 355.55393989 206.34375 355.8984375 C197.87657989 355.82838852 191.22827932 353.31796491 184.80859375 347.75 C178.9346367 341.3709115 176.34486902 333.40162945 176.5078125 324.765625 C178.62031332 306.96026091 196.12984728 295.35861745 208.78125 284.4609375 C194.3026084 284.14238352 179.97623757 285.14537958 165.54296875 286.2109375 C163.0434013 286.39086871 160.54379209 286.5702205 158.04414368 286.74902344 C151.5172419 287.2172554 144.99086688 287.69244931 138.46459961 288.16943359 C127.97543612 288.93542083 117.48530926 289.68820294 106.99537086 290.44348145 C103.33912265 290.70760341 99.68305848 290.97415778 96.02702332 291.24121094 C93.79755817 291.40301696 91.5680915 291.56480197 89.33862305 291.7265625 C88.32307846 291.80136841 87.30753387 291.87617432 86.26121521 291.95324707 C85.32948486 292.0205603 84.39775452 292.08787354 83.43778992 292.15722656 C82.63025615 292.21622131 81.82272238 292.27521606 80.99071789 292.33599854 C78.92377828 292.45287794 76.85149156 292.4609375 74.78125 292.4609375 C74.41 294.3790625 74.41 294.3790625 74.03125 296.3359375 C73.05081562 300.87313018 71.43268737 304.89669837 69.48828125 309.1015625 C68.58140507 312.12782335 68.68032086 313.48618202 69.78125 316.4609375 C71.5597677 318.63788936 73.3153373 320.59607216 75.28125 322.5859375 C76.38532143 323.73979203 77.48685857 324.89607647 78.5859375 326.0546875 C79.13088867 326.62832031 79.67583984 327.20195312 80.23730469 327.79296875 C82.40620589 330.13609541 84.40955191 332.59543235 86.40625 335.0859375 C89.41488119 338.83314963 92.52617917 342.4254298 95.78125 345.9609375 C99.05543423 349.51763994 102.18767433 353.13255561 105.21875 356.8984375 C108.44068101 360.89317736 111.78780495 364.70648099 115.28125 368.4609375 C119.57080113 373.07098086 123.58535672 377.83876706 127.53515625 382.74609375 C129.8695559 385.56767245 132.30115598 388.26684462 134.78125 390.9609375 C138.07456699 394.53886213 141.22776321 398.17633416 144.28125 401.9609375 C148.09854342 406.6887161 152.10383448 411.19733787 156.2265625 415.66015625 C159.46688337 419.21261813 162.62557109 422.83332312 165.78125 426.4609375 C165.79526855 425.16845093 165.79526855 425.16845093 165.80957031 423.84985352 C165.85393242 420.61207169 165.91570068 417.37519102 165.98876953 414.13793945 C166.01676371 412.74450532 166.03808406 411.35091875 166.05224609 409.95727539 C166.15301465 400.59587622 166.62067134 392.71734309 172.60546875 385.15625 C179.0626145 379.71437874 184.79561161 377.08311923 193.34375 377.4609375 C200.3577434 378.37324713 204.67418875 381.35387625 209.59375 386.2734375 C214.14893983 392.91099983 215.22850733 398.8269522 215.18530273 406.67163086 C215.19559761 407.99769096 215.19559761 407.99769096 215.20610046 409.35054016 C215.22428817 412.25078743 215.22054251 415.15048961 215.21484375 418.05078125 C215.21940934 420.08045119 215.22471603 422.11011959 215.23072815 424.13978577 C215.23964345 428.38549088 215.23725402 432.63100774 215.22729492 436.87670898 C215.21580626 442.30149184 215.23602351 447.72562364 215.26521206 453.15032101 C215.28361003 457.3395242 215.28327443 461.52857239 215.27757454 465.71780586 C215.27742177 467.71716793 215.28342908 469.71654079 215.29586601 471.71586418 C215.31084265 474.51793453 215.30005029 477.31881498 215.28295898 480.12084961 C215.29262695 480.93619171 215.30229492 481.75153381 215.31225586 482.59158325 C215.21846537 489.98211086 212.66319124 495.58267442 208.65625 501.7109375 C198.63417938 511.29726592 187.11992236 510.18225331 174.0859375 510.08984375 C171.96704995 510.09067348 169.84816247 510.09313677 167.72927856 510.09715271 C163.30288162 510.10000182 158.87699317 510.08539351 154.45068359 510.05786133 C148.7904071 510.02373873 143.13103669 510.02981938 137.47071648 510.0485239 C133.10051988 510.05911365 128.73053254 510.05013874 124.36035538 510.03513908 C122.27365872 510.02997416 120.18694007 510.03041845 118.10024643 510.03668404 C115.18077642 510.04216176 112.26258574 510.02168054 109.34326172 509.99438477 C108.06346436 510.00417358 108.06346436 510.00417358 106.7578125 510.01416016 C99.60400554 509.90098373 94.54918 507.7256075 89.03125 503.2109375 C83.60340459 496.57690423 82.0863271 491.2360385 82.40625 482.578125 C83.32382409 474.95079037 86.96965678 470.79092773 92.68359375 465.90625 C97.39765126 462.65820293 101.37791251 462.21893472 107.05078125 462.265625 C108.07228523 462.26986984 108.07228523 462.26986984 109.11442566 462.27420044 C111.27438455 462.28533225 113.43391794 462.31042293 115.59375 462.3359375 C117.06444711 462.34597639 118.53515076 462.35510065 120.00585938 462.36328125 C123.59779286 462.38524837 127.18947985 462.4197293 130.78125 462.4609375 C123.24215621 455.60090896 123.24215621 455.60090896 115.40625 449.0859375 C110.85344493 445.40521903 106.54707589 441.53445102 102.2644043 437.54956055 C98.15364043 433.74708736 93.85858477 430.21830451 89.49609375 426.70703125 C86.67451505 424.3726316 83.97534288 421.94103152 81.28125 419.4609375 C77.70332537 416.16762051 74.06585334 413.01442429 70.28125 409.9609375 C65.52385332 406.12258336 61.02341082 402.06471391 56.52734375 397.92578125 C53.86249834 395.53386453 51.13293175 393.26838866 48.34375 391.0234375 C43.72996931 387.30073034 39.35167889 383.38830895 35.00708008 379.36035156 C31.34143633 375.96212698 27.60648636 372.67761353 23.78125 369.4609375 C20.19914504 370.77100062 17.29095846 372.36385822 14.15625 374.5234375 C9.11909074 377.77518856 3.93626335 380.49447037 -1.46875 383.0859375 C-2.20561035 383.4456665 -2.9424707 383.80539551 -3.70166016 384.17602539 C-10.9804379 387.60055408 -18.57036807 390.01442118 -26.21875 392.4609375 C-26.04335693 392.98045486 -25.86796387 393.49997223 -25.68725586 394.03523254 C-23.86518066 399.43516665 -22.04940735 404.83718988 -20.23730469 410.24047852 C-19.55988897 412.25762509 -18.88085984 414.27423058 -18.20019531 416.2902832 C-17.22297857 419.18560831 -16.25155114 422.08281986 -15.28125 424.98046875 C-14.97501709 425.88368362 -14.66878418 426.7868985 -14.35327148 427.71748352 C-14.07298096 428.55812851 -13.79269043 429.3987735 -13.50390625 430.26489258 C-13.25519775 431.00435623 -13.00648926 431.74381989 -12.75024414 432.50569153 C-12.21875 434.4609375 -12.21875 434.4609375 -12.21875 437.4609375 C-11.55875 437.4609375 -10.89875 437.4609375 -10.21875 437.4609375 C-10.11820313 436.79964844 -10.01765625 436.13835937 -9.9140625 435.45703125 C-7.69075058 425.87680516 -3.6717175 415.8835959 4.78125 410.4609375 C9.57904955 407.62814109 14.3549056 407.8596805 19.78125 408.4609375 C25.61384728 410.18911447 29.43917994 413.34953623 32.78125 418.4609375 C35.70633068 425.37875332 35.01016513 432.67834225 32.35766602 439.59008789 C31.76227452 441.00142745 31.15421379 442.40747343 30.53515625 443.80859375 C30.20823288 444.57513779 29.88130951 445.34168182 29.54447937 446.13145447 C28.48868918 448.60039865 27.41655265 451.06184436 26.34375 453.5234375 C25.61112957 455.22670857 24.87969106 456.93048849 24.14941406 458.63476562 C23.05623563 461.18490763 21.96201144 463.73455054 20.86288452 466.28213501 C18.74257367 471.19804073 16.66445812 476.12720073 14.63671875 481.08203125 C14.18804443 482.17829834 13.73937012 483.27456543 13.27709961 484.40405273 C12.47296142 486.3771302 11.67270659 488.3517969 10.87719727 490.32836914 C7.70947112 498.04759875 4.44872396 504.8464209 -3.53515625 508.52954102 C-16.53848057 513.04261255 -28.52501654 506.20581807 -40.21875 501.0234375 C-42.0524524 500.23026139 -43.88708512 499.43923246 -45.72265625 498.65039062 C-49.3880489 497.07214506 -53.04404392 495.47439606 -56.6953125 493.86376953 C-60.43952502 492.21934511 -64.20297027 490.63888407 -67.9921875 489.10107422 C-68.93191406 488.71459213 -69.87164062 488.32811005 -70.83984375 487.92991638 C-72.61071149 487.20383902 -74.3864613 486.4894979 -76.16796875 485.78993225 C-82.8018646 483.04659777 -89.04317634 479.26386334 -92.69140625 472.88671875 C-94.09457266 466.43215326 -94.50419787 459.78194761 -91.03125 453.9609375 C-86.99329853 448.50913747 -82.97586671 445.69974223 -76.21875 444.4609375 C-69.44887028 444.4904466 -64.12170926 446.49626755 -58.15625 449.5234375 C-57.38603516 449.90048828 -56.61582031 450.27753906 -55.82226562 450.66601562 C-53.94840657 451.58548684 -52.08267239 452.52148638 -50.21875 453.4609375 C-50.56953613 452.76380646 -50.92032227 452.06667542 -51.28173828 451.34841919 C-54.58214276 444.78763578 -57.87872214 438.22495159 -61.17098999 431.66008186 C-62.86383016 428.28485175 -64.55815494 424.91038406 -66.25585938 421.53759766 C-67.89328189 418.28443673 -69.52682153 415.02935373 -71.15765381 411.77288437 C-71.78144591 410.5290039 -72.40664894 409.28582998 -73.03326416 408.04336929 C-73.90868789 406.30697739 -74.77869744 404.56785903 -75.6484375 402.82861328 C-76.14585449 401.83822052 -76.64327148 400.84782776 -77.15576172 399.8274231 C-78.21875 397.4609375 -78.21875 397.4609375 -78.21875 395.4609375 C-78.98574219 395.38617188 -79.75273438 395.31140625 -80.54296875 395.234375 C-115.51694967 391.09111594 -150.08043474 373.18973641 -172.21875 345.4609375 C-172.61819824 344.96271484 -173.01764648 344.46449219 -173.42919922 343.95117188 C-198.7830329 311.95100508 -207.65200217 273.34190716 -203.90234375 233.06201172 C-203.09528955 227.08452168 -201.82051023 221.27262218 -200.21875 215.4609375 C-200.04214844 214.79723145 -199.86554688 214.13352539 -199.68359375 213.44970703 C-192.36494542 186.77052326 -175.85515279 160.75605559 -154.21875 143.4609375 C-153.19523437 142.63851562 -152.17171875 141.81609375 -151.1171875 140.96875 C-131.52672653 125.69906793 -103.78503262 111.4609375 -78.21875 111.4609375 C-77.942659 110.58343842 -77.66656799 109.70593933 -77.3821106 108.80184937 C-76.30789858 105.71695232 -75.06973457 102.92163494 -73.60498047 100.00634766 C-73.08459198 98.96572174 -72.56420349 97.92509583 -72.02804565 96.85293579 C-71.46964996 95.74646698 -70.91125427 94.63999817 -70.3359375 93.5 C-69.76167023 92.35429535 -69.18740295 91.2085907 -68.59573364 90.02816772 C-67.0769671 86.99823135 -65.55340918 83.97072965 -64.02880859 80.94372559 C-62.47070701 77.84806657 -60.9171934 74.75010721 -59.36328125 71.65234375 C-56.31931033 65.58642176 -53.27077977 59.52280837 -50.21875 53.4609375 C-51.34152344 54.02683594 -52.46429688 54.59273437 -53.62109375 55.17578125 C-55.13246085 55.91738374 -56.64419978 56.65822881 -58.15625 57.3984375 C-58.89166016 57.77162109 -59.62707031 58.14480469 -60.38476562 58.52929688 C-66.90647654 61.69047553 -73.30095955 63.61737134 -80.40625 61.3359375 C-85.36110479 59.15461697 -88.86812001 56.30679849 -92.09375 51.8984375 C-94.12028468 45.70624819 -94.1123224 39.29934395 -92.15625 33.0859375 C-87.32166511 26.53585475 -81.25194252 23.18369145 -73.84375 20.1484375 C-72.41506592 19.55023193 -72.41506592 19.55023193 -70.95751953 18.93994141 C-68.72292738 18.00569934 -66.48625543 17.0764235 -64.24804688 16.15087891 C-60.39089237 14.54470707 -56.56202915 12.87626266 -52.73294067 11.20448303 C-49.10566971 9.62542072 -45.46944191 8.06767351 -41.83172607 6.5128479 C-40.02180695 5.73485986 -38.21511671 4.94931206 -36.41192627 4.15585327 C-12.18312179 -6.47920568 -12.18312179 -6.47920568 0 0 Z M-127.83203125 199.4765625 C-142.55963445 217.89209253 -149.17956978 240.56542517 -146.59375 263.9609375 C-142.93922638 287.05752676 -131.71247827 306.98327354 -113.21875 321.4609375 C-94.66119104 334.47413934 -73.07276029 340.91176586 -50.40234375 337.96484375 C-31.34752519 334.44794815 -16.13476683 326.95675489 -2.21875 313.4609375 C-1.60644531 312.92210937 -0.99414062 312.38328125 -0.36328125 311.828125 C13.00206109 299.65557065 21.84662651 279.22274677 22.90722656 261.33642578 C23.67194259 238.09970654 18.55442873 215.86007356 2.46875 198.2734375 C0.6036792 196.30109091 -1.29845288 194.38123462 -3.21875 192.4609375 C-4.04632813 191.63335937 -4.87390625 190.80578125 -5.7265625 189.953125 C-21.82749531 174.680536 -43.45838343 167.64384441 -65.4296875 168.17578125 C-90.10048093 170.03244921 -111.48185503 180.89331668 -127.83203125 199.4765625 Z " fill="#0188D1" transform="translate(204.21875,2.5390625)"/>
</svg>
