<svg width="40" height="40" viewBox="0 0 40 40" fill="none" xmlns="http://www.w3.org/2000/svg">
<rect width="40" height="40" rx="7" fill="#FF7D51"/>
<g clip-path="url(#clip0_694_5817)">
<path d="M28.8726 31.9924H22.6401C22.2267 31.9912 21.8306 31.8265 21.5383 31.5342C21.246 31.2419 21.0813 30.8458 21.0801 30.4324V27.3904C21.1581 27.3904 21.2361 27.3746 21.3066 27.3431C23.4831 26.4461 25.9791 27.2186 27.2421 29.1761C27.2578 29.2001 28.8726 31.9924 28.8726 31.9924Z" fill="white"/>
<path d="M30.4409 21.0722H22.6409C21.7836 21.0722 21.0809 21.7742 21.0809 22.6322V26.1887C22.2453 25.7529 23.5161 25.6884 24.7187 26.0039C25.9213 26.3195 26.9967 26.9998 27.7971 27.9512C28.9192 26.8512 30.4295 26.2377 32.0009 26.2435V22.6322C32.0009 22.2185 31.8365 21.8217 31.5439 21.5291C31.2514 21.2366 30.8546 21.0722 30.4409 21.0722ZM28.1009 24.9722C27.6719 24.9722 27.3209 24.6212 27.3209 24.1922C27.3209 23.7632 27.6719 23.4122 28.1009 23.4122C28.5381 23.4122 28.8809 23.7632 28.8809 24.1922C28.8809 24.6212 28.5381 24.9722 28.1009 24.9722ZM28.4676 28.942C28.9192 28.4571 29.4662 28.071 30.0743 27.808C30.6824 27.5449 31.3383 27.4106 32.0009 27.4135V30.4322C32.0009 30.8459 31.8365 31.2427 31.5439 31.5353C31.2514 31.8278 30.8546 31.9922 30.4409 31.9922H30.1364C30.1376 31.8881 30.111 31.7855 30.0591 31.6952L28.4676 28.942ZM22.8209 18.7322C22.8209 19.1372 22.7579 19.5355 22.6484 19.9022H22.6409C21.9171 19.903 21.2231 20.1909 20.7113 20.7027C20.1995 21.2145 19.9117 21.9084 19.9109 22.6322V22.6472C19.5366 22.765 19.1384 22.8272 18.7259 22.8272C16.4639 22.8272 14.6309 20.9942 14.6309 18.7322C14.6309 16.4702 16.4639 14.6372 18.7259 14.6372C20.9879 14.6372 22.8209 16.4702 22.8209 18.7322Z" fill="white"/>
<path d="M28.958 16.7043L26.9382 16.3691C26.7581 15.7533 26.5096 15.1595 26.1973 14.5991L27.398 12.9296C27.4784 12.8162 27.5162 12.678 27.5048 12.5395C27.4934 12.4009 27.4336 12.2709 27.3358 12.1721L25.2845 10.1223C25.1858 10.0247 25.0558 9.96498 24.9174 9.95359C24.7791 9.94221 24.6411 9.97991 24.5278 10.0601L22.8583 11.2608C22.2978 10.9485 21.7041 10.6999 21.0883 10.5198L20.7523 8.49932C20.7299 8.3622 20.6595 8.23748 20.5538 8.14737C20.448 8.05727 20.3137 8.00764 20.1747 8.00732H17.2738C17.1348 8.00764 17.0005 8.05727 16.8947 8.14737C16.789 8.23748 16.7186 8.3622 16.6962 8.49932L16.361 10.5191C15.7452 10.6991 15.152 10.9481 14.591 11.2601L12.9215 10.0593C12.8081 9.97916 12.6702 9.94146 12.5318 9.95284C12.3934 9.96423 12.2635 10.024 12.1648 10.1216L10.1135 12.1728C10.0159 12.2716 9.95615 12.4015 9.94477 12.5399C9.93339 12.6783 9.97108 12.8162 10.0512 12.9296L11.2527 14.5983C10.9407 15.1601 10.6902 15.7533 10.5117 16.3683L8.49125 16.7043C8.35426 16.7269 8.22972 16.7973 8.13976 16.903C8.04981 17.0088 8.00029 17.143 8 17.2818V20.1828C8 20.4716 8.21 20.7138 8.49125 20.7603L10.5117 21.0956C10.691 21.7121 10.9407 22.3046 11.2527 22.8656L10.0512 24.5351C9.97088 24.6485 9.93307 24.7866 9.94446 24.9252C9.95584 25.0637 10.0157 25.1938 10.1135 25.2926L12.1648 27.3431C12.3672 27.5456 12.6875 27.5696 12.9223 27.4053L14.591 26.2046C15.1528 26.5166 15.7452 26.7663 16.361 26.9456L16.697 28.9653C16.7194 29.1025 16.7897 29.2272 16.8955 29.3173C17.0012 29.4074 17.1356 29.457 17.2745 29.4573H19.91V23.8571C19.5275 23.9501 19.13 23.9973 18.725 23.9973C15.8233 23.9973 13.46 21.6341 13.46 18.7323C13.46 15.8306 15.8233 13.4673 18.725 13.4673C21.6267 13.4673 23.99 15.8306 23.99 18.7323C23.99 19.1373 23.9427 19.5273 23.8573 19.9023H29.4493V17.2818C29.449 17.143 29.3994 17.0088 29.3095 16.903C29.2195 16.7973 29.095 16.7269 28.958 16.7043Z" fill="white"/>
</g>
<defs>
<clipPath id="clip0_694_5817">
<rect width="24" height="24" fill="white" transform="translate(8 8)"/>
</clipPath>
</defs>
</svg>
