<svg width="25" height="25" viewBox="0 0 25 25" fill="none" xmlns="http://www.w3.org/2000/svg">
<path opacity="0.4" d="M16.0877 2.04004H19.4737C20.876 2.04004 22.0122 3.18589 22.0122 4.6V8.01456C22.0122 9.42868 20.876 10.5745 19.4737 10.5745H16.0877C14.6855 10.5745 13.5492 9.42868 13.5492 8.01456V4.6C13.5492 3.18589 14.6855 2.04004 16.0877 2.04004Z" fill="white"/>
<path d="M7.9367 13.5056C9.33897 13.5056 10.4752 14.6514 10.4752 16.0655V19.4801C10.4752 20.8932 9.33897 22.04 7.9367 22.04H4.55073C3.14846 22.04 2.01221 20.8932 2.01221 19.4801V16.0655C2.01221 14.6514 3.14846 13.5056 4.55073 13.5056H7.9367ZM19.4737 13.5056C20.876 13.5056 22.0122 14.6514 22.0122 16.0655V19.4801C22.0122 20.8932 20.876 22.04 19.4737 22.04H16.0877C14.6854 22.04 13.5492 20.8932 13.5492 19.4801V16.0655C13.5492 14.6514 14.6854 13.5056 16.0877 13.5056H19.4737ZM7.9367 2.04004C9.33897 2.04004 10.4752 3.18589 10.4752 4.6V8.01456C10.4752 9.42868 9.33897 10.5745 7.9367 10.5745H4.55073C3.14846 10.5745 2.01221 9.42868 2.01221 8.01456V4.6C2.01221 3.18589 3.14846 2.04004 4.55073 2.04004H7.9367Z" fill="white"/>
</svg>
