<?xml version="1.0" encoding="UTF-8"?>
<svg version="1.1" xmlns="http://www.w3.org/2000/svg" width="512" height="512">
<path d="M0 0 C15.68468707 14.73777872 25.22503319 32.64600735 26.5234375 54.37109375 C26.93566286 75.72952009 20.22800692 95.67049289 5.5234375 111.37109375 C-9.97620112 127.01057873 -28.44459224 134.87381433 -50.44433594 135.38232422 C-71.88969709 135.26381309 -90.4703603 126.51155804 -106 112.015625 C-121.54762382 96.20488754 -127.13000582 76.67376089 -126.94775391 54.93481445 C-126.38611762 34.48263608 -118.45839406 17.46944231 -104.06640625 2.9375 C-75.41458877 -23.98885145 -30.16726238 -26.23047887 0 0 Z M-80.7890625 26.40625 C-89.65708155 35.66056534 -94.01384158 46.61734826 -94.4765625 59.37109375 C-94.0058806 71.16755898 -88.9249607 81.84563465 -80.7890625 90.3359375 C-71.62760772 98.39863672 -60.89304128 102.50949422 -48.67578125 102.30859375 C-36.01366967 101.06695666 -24.91412205 96.05327415 -16.4765625 86.37109375 C-12.4017159 80.50862288 -8.76605271 74.46328992 -7.4765625 67.37109375 C-7.33347656 66.58734375 -7.19039063 65.80359375 -7.04296875 64.99609375 C-5.27452691 52.45291864 -8.80705709 41.13699767 -16.15625 31.0703125 C-24.60875968 20.63619785 -35.37541708 16.14380028 -48.4765625 14.37109375 C-60.66971111 14.37109375 -71.63385478 18.34904861 -80.7890625 26.40625 Z " fill="#000000" transform="translate(126.4765625,197.62890625)"/>
<path d="M0 0 C0.89948868 -0.0065712 1.79897736 -0.0131424 2.72572327 -0.01991272 C5.70468223 -0.03963662 8.68359085 -0.05130504 11.66259766 -0.0612793 C12.67963398 -0.06535482 13.6966703 -0.06943035 14.74452591 -0.07362938 C20.12541755 -0.09448417 25.50628372 -0.10878963 30.88720703 -0.11816406 C36.4481037 -0.12923972 42.00860146 -0.16365478 47.56935692 -0.20333576 C51.84329989 -0.22945943 56.11714708 -0.23785202 60.39116287 -0.24144554 C62.44129766 -0.24632087 64.49142791 -0.25796165 66.54148483 -0.27648354 C69.40949064 -0.30078904 72.27645433 -0.29992587 75.14453125 -0.29296875 C75.99146042 -0.30577881 76.83838959 -0.31858887 77.71098328 -0.33178711 C81.68130719 -0.29666953 83.73371843 -0.10569293 87.20523071 1.99153137 C89.97214596 5.02044476 90.20166016 7.11681462 90.20166016 11.17700195 C88.85603616 14.12455927 88.11611471 15.71977467 85.20166016 17.17700195 C57.81166016 17.17700195 30.42166016 17.17700195 2.20166016 17.17700195 C2.20166016 72.61700195 2.20166016 128.05700195 2.20166016 185.17700195 C30.65340543 185.05824392 30.65340543 185.05824392 59.10498047 184.90673828 C64.609375 184.89318848 64.609375 184.89318848 67.18670654 184.89067078 C68.98572007 184.88606579 70.78472436 184.87551816 72.5836792 184.86027527 C75.30969312 184.83833306 78.03514154 184.83528332 80.76123047 184.83642578 C81.56188557 184.82563146 82.36254066 184.81483713 83.18745804 184.80371571 C86.41607982 184.82184356 88.79176137 184.95945444 91.67059326 186.48735046 C94.13234652 189.20408679 94.13985637 191.59238244 94.20166016 195.17700195 C92.85603616 198.12455927 92.11611471 199.71977467 89.20166016 201.17700195 C86.45532793 201.2702068 83.73466191 201.30275951 80.98828125 201.29052734 C80.12568003 201.29064788 79.2630788 201.29076841 78.37433815 201.2908926 C75.57456533 201.29014459 72.77485861 201.28252142 69.97509766 201.2746582 C68.24959343 201.27318844 66.52408875 201.27216794 64.79858398 201.27160645 C58.39126925 201.26635757 51.98396406 201.25239644 45.57666016 201.23950195 C31.26291016 201.21887695 16.94916016 201.19825195 2.20166016 201.17700195 C2.20166016 256.61700195 2.20166016 312.05700195 2.20166016 369.17700195 C29.59166016 369.17700195 56.98166016 369.17700195 85.20166016 369.17700195 C90.09749349 374.07283529 90.09749349 374.07283529 90.20166016 379.17700195 C88.59754167 382.70606262 87.46006654 384.00473103 84.20166016 386.17700195 C81.23788471 386.37728557 78.36782345 386.4602906 75.40332031 386.45166016 C74.50383163 386.45677109 73.60434296 386.46188202 72.67759705 386.46714783 C69.69857157 386.48106903 66.71977683 386.48008499 63.74072266 386.4777832 C61.67190464 386.48166908 59.60308742 386.48600352 57.53427124 386.49076843 C53.19485897 386.49823633 48.85552804 386.49793548 44.51611328 386.49267578 C38.95526715 386.48688397 33.3947544 386.50380252 27.83396339 386.52702045 C23.56000827 386.54175396 19.28613346 386.54262995 15.01215744 386.53951073 C12.96204341 386.54002425 10.91192492 386.54526775 8.86183548 386.55532265 C5.99393331 386.56766057 3.12668086 386.56091086 0.25878906 386.54931641 C-0.58814011 386.55696014 -1.43506927 386.56460388 -2.30766296 386.57247925 C-6.95344435 386.53097006 -10.02817212 386.20179808 -13.79833984 383.17700195 C-15.26211185 380.24945794 -14.93204929 377.31122254 -14.91859436 374.10299683 C-14.91944879 373.36624855 -14.92030321 372.62950028 -14.92118353 371.8704263 C-14.92283734 369.38909775 -14.91731855 366.90783604 -14.91186523 364.42651367 C-14.91158332 362.65284222 -14.91174119 360.87917065 -14.91230774 359.10549927 C-14.91259553 354.27931518 -14.90670175 349.45315578 -14.89973378 344.62697744 C-14.89349721 339.58742999 -14.8928962 334.54788202 -14.89170837 329.5083313 C-14.88859596 319.96024764 -14.88038377 310.41217539 -14.87035888 300.86409676 C-14.85919497 289.99606039 -14.85368659 279.12802349 -14.84866345 268.25998282 C-14.83820109 245.89898287 -14.82060337 223.53799305 -14.79833984 201.17700195 C-15.54114197 201.1858844 -16.28394409 201.19476685 -17.04925537 201.20391846 C-24.0528389 201.28409939 -31.05626319 201.34498382 -38.06017685 201.38425064 C-41.6609227 201.40511708 -45.261289 201.43341616 -48.86181641 201.47875977 C-52.33721898 201.5222532 -55.81225672 201.54614617 -59.28791046 201.55651093 C-61.25779768 201.5674881 -63.22753832 201.59870895 -65.19720459 201.63018799 C-66.99861908 201.63064117 -66.99861908 201.63064117 -68.83642578 201.63110352 C-69.89343689 201.63998596 -70.950448 201.64886841 -72.03948975 201.65802002 C-75.48830851 201.05670278 -76.65360751 199.88489699 -78.79833984 197.17700195 C-79.32958984 195.17700195 -79.32958984 195.17700195 -79.29833984 193.17700195 C-79.31380859 192.18700195 -79.31380859 192.18700195 -79.32958984 191.17700195 C-78.54994707 188.24187622 -77.13742961 187.08011746 -74.79833984 185.17700195 C-72.03948975 184.69598389 -72.03948975 184.69598389 -68.83642578 184.72290039 C-67.63548279 184.72320251 -66.43453979 184.72350464 -65.19720459 184.72381592 C-63.90542297 184.74446106 -62.61364136 184.7651062 -61.28271484 184.78637695 C-59.94322556 184.79384124 -58.60372532 184.79953329 -57.26422119 184.80352783 C-53.74582548 184.81876982 -50.22809469 184.85803778 -46.70996094 184.90234375 C-43.11711623 184.94332831 -39.52416364 184.96154555 -35.93115234 184.98168945 C-28.88661018 185.0245345 -21.84251852 185.09276749 -14.79833984 185.17700195 C-14.80110522 184.25301731 -14.8038706 183.32903267 -14.80671978 182.37704849 C-14.87327309 159.91038516 -14.92259555 137.44373459 -14.95377636 114.97699356 C-14.96925536 104.11231232 -14.99036461 93.24769613 -15.0246582 82.38305664 C-15.05452894 72.91513328 -15.07390733 63.44725703 -15.08060533 53.97928786 C-15.08452153 48.9645287 -15.09374659 43.94990432 -15.11553001 38.93518829 C-15.13585842 34.21730604 -15.14218104 29.49961439 -15.13766289 24.7816925 C-15.13848972 23.04825048 -15.14447706 21.31480222 -15.15595627 19.58139801 C-15.17084354 17.21786833 -15.16730755 14.85506191 -15.15910339 12.49151611 C-15.16784192 11.80279679 -15.17658044 11.11407746 -15.18558377 10.40448785 C-15.15747348 7.41622228 -14.93021063 5.41353681 -13.46329212 2.78234482 C-9.75625105 -0.79197501 -4.81459824 0.01521308 0 0 Z " fill="#000000" transform="translate(246.79833984375,62.822998046875)"/>
<path d="M0 0 C10.87071404 7.38972555 18.0372268 17.27774892 20.68359375 30.30859375 C22.16535628 41.76957333 20.55166337 53.4758531 14.06640625 63.26953125 C5.83910511 73.88059771 -2.86818583 79.91379748 -15.87109375 82.95703125 C-30.92002838 84.49263682 -41.98681428 80.63550895 -54.18359375 71.95703125 C-63.489427 62.86269421 -68.00741518 51.55798771 -68.24609375 38.70703125 C-68.25933368 25.82899172 -63.88827318 15.67243326 -55.0546875 6.26953125 C-40.23158588 -7.62525492 -17.48798853 -10.31581747 0 0 Z " fill="#000000" transform="translate(463.93359375,401.73046875)"/>
<path d="M0 0 C10.24883824 8.7825365 16.57924923 18.89777488 17.69921875 32.53125 C17.95118616 46.45244958 13.57790443 58.16147509 4.16796875 68.46875 C-5.17188853 77.35034325 -16.90048878 80.7121789 -29.61791992 80.52905273 C-42.30084188 79.95499169 -52.7046307 74.43322499 -61.31640625 65.24609375 C-70.40177161 54.18937553 -72.38705841 41.99583876 -71.50390625 28.05859375 C-69.54943393 16.54553025 -63.15435361 6.32032993 -53.81640625 -0.56640625 C-37.42455296 -11.6083104 -16.00299921 -12.40794167 0 0 Z " fill="#000000" transform="translate(467.50390625,35.94140625)"/>
<path d="M0 0 C10.26247805 7.34345477 16.75561015 17.57622934 19.02734375 30.015625 C20.65598501 43.13399569 17.46922631 55.77015052 9.3125 66.3125 C0.19259386 76.32997159 -9.58632221 80.73318663 -22.97265625 82.16015625 C-35.48775491 82.67339373 -46.36291114 78.56826247 -55.6875 70.3125 C-63.98412414 62.41682795 -69.2449503 53.23584177 -69.890625 41.67578125 C-70.17071674 27.27055668 -67.07034558 16.10829092 -57.1875 5.125 C-41.66314525 -9.67729174 -17.84487462 -10.83978001 0 0 Z " fill="#000000" transform="translate(465.6875,218.6875)"/>
<path d="M0 0 C6.34432549 6.97193619 8.84540125 13.59758521 9 23 C8.40340169 30.91487088 4.84077123 37.48242478 -0.99609375 42.828125 C-7.93868883 48.23521228 -14.66339301 50.447641 -23.48828125 49.82421875 C-31.88565425 48.53131062 -38.21732517 44.62387406 -43.4375 37.9375 C-48.85739161 30.38671083 -49.08553336 21.96981425 -48 13 C-45.74646978 4.88729121 -40.37939369 -0.87833899 -33.17578125 -5.05859375 C-21.95288599 -10.32957153 -9.11423978 -8.2118398 0 0 Z " fill="#000000" transform="translate(96,235)"/>
<path d="M0 0 C3.88924176 3.31037787 6.04719095 6.62056509 8.25 11.1875 C15.24476081 24.58655479 25.67710162 33.45330794 39.3984375 39.4453125 C42.45537001 41.27212803 43.5497926 42.77291732 45 46 C44.93611417 49.70537805 44.79259706 52.01717965 42.4375 54.9375 C37.33342401 57.16235364 33.81719084 56.70194737 28.75390625 54.74609375 C10.19515957 45.98506437 -2.67983053 31.82550924 -11.23046875 13.33984375 C-12.50136248 9.47555266 -11.89552133 6.96588016 -11 3 C-7.98260982 -0.71371099 -4.54917296 -0.63848041 0 0 Z " fill="#000000" transform="translate(380,456)"/>
<path d="M0 0 C2.35509706 2.92032035 2.49861417 5.23212195 2.5625 8.9375 C0.47285549 13.87525258 -2.86116045 15.51447925 -7.5 17.6875 C-21.93202355 24.93300028 -30.7362788 35.9852941 -37.859375 50.21484375 C-39.4375 52.9375 -39.4375 52.9375 -42.4375 54.9375 C-45.95728551 55.2574805 -48.53451781 55.31770303 -51.8125 53.9375 C-54.25493818 50.93142224 -54.5068811 47.69996161 -54.4375 43.9375 C-53.68229386 41.11680856 -52.45444663 38.68321484 -51.0625 36.125 C-50.69817871 35.43140381 -50.33385742 34.73780762 -49.95849609 34.02319336 C-42.44567585 20.19633905 -18.92205289 -8.24807434 0 0 Z " fill="#000000" transform="translate(422.4375,1.0625)"/>
<path d="M0 0 C9.7522059 3.05923396 18.07893218 9.13299224 25.65234375 15.83203125 C26.26464844 16.35023438 26.87695312 16.8684375 27.5078125 17.40234375 C35.0362102 24.25887072 43.27858288 35.9261721 45.05078125 46.125 C45.01393356 49.10352167 44.78403147 51.52992414 43.58984375 54.26953125 C40.6695234 56.62462831 38.3577218 56.76814542 34.65234375 56.83203125 C29.71500182 54.74256053 28.07458237 51.40857851 25.90234375 46.76953125 C22.40488443 39.78049917 18.28871682 34.30293282 12.65234375 28.83203125 C12.12511719 28.28417969 11.59789062 27.73632812 11.0546875 27.171875 C6.63342146 22.93153033 1.24738395 20.3372565 -4.19384766 17.63427734 C-7.52055605 15.95614341 -9.23806031 14.99642516 -11.34765625 11.83203125 C-11.90588502 7.52569506 -11.78693118 5.51219888 -9.41015625 1.83203125 C-5.76974678 -0.54537901 -4.18706163 -0.74545024 0 0 Z " fill="#000000" transform="translate(467.34765625,368.16796875)"/>
<path d="M0 0 C3.30154871 0.98813958 4.3211664 2.8429106 6.21875 5.6640625 C7.27510044 7.66655889 8.29406775 9.68907894 9.28125 11.7265625 C16.23884161 24.82582346 26.3375113 33.46673014 39.71875 39.8515625 C44.87120902 42.5198002 44.87120902 42.5198002 46.21875 45.6640625 C46.14983944 49.52305397 45.74290508 51.87782988 43.59375 55.1015625 C40.26647739 57.29055764 38.1695727 56.97851574 34.21875 56.6640625 C31.5004812 55.66964341 29.13763826 54.67226475 26.59375 53.3515625 C25.90079834 52.99545898 25.20784668 52.63935547 24.49389648 52.27246094 C8.15677824 43.50391942 -4.23744877 29.04406191 -10.78125 11.6640625 C-11.09893499 7.90630285 -11.03763575 6.176834 -9.34375 2.7890625 C-6.1002114 0.09929878 -4.09674626 0.07014976 0 0 Z " fill="#000000" transform="translate(378.78125,271.3359375)"/>
<path d="M0 0 C2.76904341 2.23309953 2.97743728 3.87816133 3.625 7.375 C3.05949197 20.57838307 -8.78032494 33.13077118 -17.6875 41.6875 C-25.07370344 48.12437949 -35.19004203 55.00688113 -45 56.4375 C-48 56 -48 56 -50.875 53.9375 C-53 51 -53 51 -53.625 47.5 C-53.01828651 44.10240444 -52.46315352 42.49943892 -49.87109375 40.23046875 C-47.45719837 38.64304277 -44.92712269 37.47823331 -42.3125 36.25 C-35.80939088 33.13842626 -31.0398102 29.10337537 -26 24 C-25.45988281 23.48179688 -24.91976563 22.96359375 -24.36328125 22.4296875 C-19.9613005 17.82268299 -17.15741891 12.12554521 -14.24584961 6.50952148 C-11.50733422 1.36817969 -11.50733422 1.36817969 -8.94921875 -0.48828125 C-5.71119521 -1.33834354 -3.20573174 -0.81600444 0 0 Z " fill="#000000" transform="translate(509,88)"/>
<path d="M0 0 C2.08425141 2.5652325 2.43338921 4.6534812 2.9375 7.8671875 C2.4545026 11.16364476 0.94203091 12.65287778 -1.375 15 C-4.40625 16.6328125 -4.40625 16.6328125 -7.875 18.125 C-19.84997207 23.70294419 -28.01106411 32.44622335 -34.375 44 C-34.85710937 44.86496094 -35.33921875 45.72992188 -35.8359375 46.62109375 C-36.6810965 48.14775379 -37.51506019 49.68072794 -38.33203125 51.22265625 C-39.375 53 -39.375 53 -41.375 55 C-44.43257892 55.56075289 -47.31391683 55.52739799 -50.375 55 C-53.33483504 52.54550265 -54.25319341 51.11068376 -54.671875 47.29296875 C-54.30370394 43.20917656 -52.90569676 40.03457948 -51.0625 36.4375 C-50.70784668 35.74076172 -50.35319336 35.04402344 -49.98779297 34.32617188 C-42.49070241 20.23742097 -31.28981099 9.82219819 -17.1875 2.5 C-16.52210205 2.14897217 -15.8567041 1.79794434 -15.17114258 1.4362793 C-10.13661721 -1.04374855 -5.42755735 -2.28528731 0 0 Z " fill="#000000" transform="translate(422.375,185)"/>
<path d="M0 0 C2.26275631 1.61625451 2.95297288 2.56909059 3.75 5.25 C3.61776701 8.95252366 3.47587859 11.35687622 1.10546875 14.2734375 C-1.69580215 16.62408937 -4.47265316 17.88979436 -7.8125 19.375 C-21.8951565 26.09451252 -29.9581399 37.02026095 -36.5 50.9375 C-38.32826175 54.3981383 -38.77518108 54.95016033 -42.25 56.25 C-46.39469235 56.17598764 -48.52768325 55.84591132 -51.75 53.1875 C-53.79671875 49.17934245 -53.53612092 46.41097943 -52.25 42.25 C-48.88803058 33.87395934 -44.24181447 26.95179608 -38.25 20.25 C-37.52167969 19.41597656 -36.79335938 18.58195312 -36.04296875 17.72265625 C-28.15760466 9.23575526 -12.45469284 -4.15156428 0 0 Z " fill="#000000" transform="translate(421.25,368.75)"/>
<path d="M0 0 C3.66896486 3.00188034 5.21844787 6.27515287 7.125 10.5625 C14.03608973 25.10125835 25.55341275 33.40350161 40.00390625 39.76171875 C42.4079893 41.25309708 43.08077379 42.34723306 44 45 C43.92484951 49.20842764 43.65198603 51.27350128 40.8125 54.4375 C37.4348767 56.31395739 35.82836017 56.33630601 32 56 C22.94608908 52.56723757 15.1604758 47.47852572 8 41 C7.24203125 40.33484375 6.4840625 39.6696875 5.703125 38.984375 C-2.39551076 31.44426584 -10.32798581 20.87891492 -13 10 C-13 5.67553348 -12.68184525 3.80217088 -9.875 0.5 C-6.05036816 -1.49546009 -4.10368679 -1.19379979 0 0 Z " fill="#000000" transform="translate(381,88)"/>
<path d="M0 0 C9.06188762 3.33694366 16.8672959 8.54544773 24 15 C24.76957031 15.67675781 25.53914063 16.35351562 26.33203125 17.05078125 C34.28135159 24.45841025 42.36592725 35.35855219 44.43359375 46.29296875 C44.44028475 49.53810604 44.17726664 51.7045556 42.5 54.5 C39.49511516 56.30293091 37.44327882 56.47744877 34 56.53125 C31.04093935 55.74524951 29.93750205 54.36085387 28 52 C26.67988753 49.61769619 25.4477707 47.25305665 24.25 44.8125 C16.77036964 30.29424696 5.89904228 22.77699122 -8.41015625 15.48046875 C-11 14 -11 14 -12 12 C-12.49055907 7.66672826 -12.47744439 5.67999656 -9.9375 2.0625 C-6.22247533 -0.54592158 -4.48019422 -0.37880557 0 0 Z " fill="#000000" transform="translate(468,184)"/>
<path d="M0 0 C2.5 1.5 2.5 1.5 4 4 C5.65605883 12.12974337 1.14214756 19.23442692 -3 26 C-5.45415478 29.55193773 -8.11009283 32.7958505 -11 36 C-11.59167969 36.68449219 -12.18335938 37.36898437 -12.79296875 38.07421875 C-20.40567232 46.33619341 -32.32668074 54.94161114 -43.625 56.5 C-47 56 -47 56 -49.9375 53.9375 C-52.52001338 50.25937488 -52.72125695 48.40768137 -52 44 C-48.95822994 40.20153344 -45.09341502 38.35097748 -40.8125 36.25 C-26.29424696 28.77036964 -18.77699122 17.89904228 -11.48046875 3.58984375 C-8.8649422 -0.98560243 -4.86422231 -0.66330304 0 0 Z " fill="#000000" transform="translate(508,272)"/>
<path d="M0 0 C18.71146728 7.72683359 33.44543346 21.83024914 42 40.203125 C43.44921436 44.25639641 44.01630265 47.78323548 43 52 C41.5 54.5625 41.5 54.5625 39 56 C35.74616221 56.51648219 34.06108648 56.78363814 31 56 C27.39690764 52.81587187 25.69569214 49.48301346 23.625 45.1875 C17.43576877 32.36694959 7.70096789 23.94555687 -4.859375 17.70092773 C-11.18146647 14.54725996 -11.18146647 14.54725996 -13 12 C-13.47993784 7.68055941 -13.72659573 5.26364476 -11.5625 1.5 C-7.55514261 -0.84577018 -4.41423487 -0.99320285 0 0 Z " fill="#000000" transform="translate(469,0)"/>
<path d="M0 0 C2.5 1.4375 2.5 1.4375 4 4 C5.79455595 13.12232609 0.75545601 20.55685314 -4 28 C-12.19478493 40.12765494 -25.04348434 51.12410273 -39 56 C-43.47959917 56.85293717 -46.59617121 56.82175344 -50.5625 54.5 C-52.58104033 50.98949508 -52.99296837 47.87878269 -52 44 C-48.22397998 39.72713524 -43.66356828 37.81842029 -38.5859375 35.37109375 C-26.2021914 28.8050894 -18.36370905 17.88903696 -12.3125 5.5625 C-9.41296626 -0.09849444 -6.36405861 -1.10122543 0 0 Z " fill="#000000" transform="translate(508,456)"/>
</svg>
