<svg width="24" height="20" viewBox="0 0 24 20" fill="none" xmlns="http://www.w3.org/2000/svg">
<path d="M9.18743 7.89084H14.8124C15.2012 7.89084 15.5156 7.57645 15.5156 7.18772C15.5156 6.79912 15.2012 6.48459 14.8124 6.48459H9.18743C8.79883 6.48459 8.4843 6.79912 8.4843 7.18772C8.4843 7.57645 8.79883 7.89084 9.18743 7.89084ZM9.18743 10.7033H14.8124C15.2012 10.7033 15.5156 10.389 15.5156 10.0002C15.5156 9.61162 15.2012 9.29709 14.8124 9.29709H9.18743C8.79883 9.29709 8.4843 9.61162 8.4843 10.0002C8.4843 10.389 8.79883 10.7033 9.18743 10.7033ZM9.18743 13.5158H14.8124C15.2012 13.5158 15.5156 13.2015 15.5156 12.8127C15.5156 12.4241 15.2012 12.1096 14.8124 12.1096H9.18743C8.79883 12.1096 8.4843 12.4241 8.4843 12.8127C8.4843 13.2015 8.79883 13.5158 9.18743 13.5158ZM15.5646 3.16251C17.426 4.13592 18.8493 5.83204 19.4345 7.89084H18.3281C18.2007 7.89082 18.0758 7.92536 17.9666 7.9908C17.8573 8.05623 17.7679 8.1501 17.7079 8.26237C17.648 8.3746 17.6197 8.50096 17.6258 8.62802C17.632 8.75508 17.6725 8.87809 17.7431 8.98396C17.8256 9.12646 20.3638 13.4977 20.204 13.2223C20.4649 13.6136 21.1131 13.6136 21.374 13.2223C21.6421 12.7609 23.9739 8.82557 23.882 8.98396C23.9525 8.87807 23.9929 8.75505 23.9991 8.628C24.0053 8.50094 23.9769 8.37459 23.917 8.26237C23.857 8.1501 23.7676 8.05624 23.6584 7.9908C23.5492 7.92536 23.4243 7.89081 23.297 7.89084H22.3351C21.6937 4.73156 19.6271 2.10871 16.8484 0.665527C16.8947 0.841824 16.9211 1.02403 16.9211 1.21115C16.9226 2.71556 15.7058 3.06876 15.5646 3.16251ZM0.0828954 13.1443C0.142941 13.2566 0.232345 13.3504 0.341567 13.4159C0.450789 13.4813 0.575729 13.5159 0.703052 13.5158H2.0659C2.96074 16.0431 4.80096 18.1039 7.14874 19.3278C7.10261 19.152 7.0791 18.971 7.0788 18.7893C7.0773 17.2913 8.28433 16.9365 8.42515 16.843C7.00976 16.1018 5.84979 14.9393 5.11938 13.5158H5.6718C5.79912 13.5159 5.92406 13.4813 6.03329 13.4159C6.14251 13.3504 6.23191 13.2566 6.29196 13.1443C6.35184 13.0321 6.3802 12.9057 6.374 12.7787C6.36781 12.6516 6.32731 12.5286 6.2568 12.4227C6.17425 12.2802 3.63602 7.90898 3.79586 8.18437C3.53496 7.79306 2.88677 7.79306 2.62586 8.18437C2.44052 8.5035 -0.033589 12.6838 0.117864 12.4227C0.0474266 12.5286 0.00698261 12.6516 0.000825797 12.7787C-0.00533102 12.9057 0.0230291 13.0321 0.0828954 13.1443Z" fill="white"/>
</svg>
