<svg width="24" height="24" viewBox="0 0 24 24" fill="none" xmlns="http://www.w3.org/2000/svg">
<g clip-path="url(#clip0_3102_2396)">
<path d="M21.5347 18.2665C21.4694 18.2012 21.3919 18.1494 21.3066 18.114C21.2213 18.0787 21.1298 18.0605 21.0375 18.0605H20.2344V8.86753C22.3656 8.52923 24 6.67912 24 4.45424C23.7753 -1.46607 15.2863 -1.46438 15.0625 4.45429C15.0625 6.67912 16.6969 8.52923 18.8282 8.86748V18.0605H15.7863L17.2571 19.5314C17.6556 19.9298 17.875 20.4595 17.875 21.023C17.875 21.5864 17.6556 22.1161 17.2571 22.5145L15.7863 23.9855H21.0375C21.224 23.9855 21.4029 23.9114 21.5347 23.7795L23.794 21.5201C23.9259 21.3883 24 21.2094 24 21.023C24 20.8365 23.9259 20.6577 23.794 20.5258L21.5347 18.2665ZM19.1547 5.91051C19.0623 5.91064 18.9709 5.89251 18.8855 5.85716C18.8002 5.82181 18.7227 5.76995 18.6575 5.70454L17.9044 4.95145C17.27 4.26848 18.2158 3.32263 18.8988 3.95709L19.1547 4.21298L20.1638 3.20395C20.8466 2.56959 21.7926 3.51515 21.1582 4.19831L19.6519 5.70454C19.5867 5.76994 19.5092 5.82181 19.4239 5.85715C19.3385 5.8925 19.2471 5.91063 19.1547 5.91051Z" fill="white"/>
<path opacity="0.4" d="M16.2628 20.5258L14.0035 18.2664C13.9382 18.2011 13.8607 18.1493 13.7754 18.114C13.6901 18.0786 13.5987 18.0604 13.5064 18.0604H12.7032V16.3987C14.8343 16.0604 16.4688 14.2104 16.4688 11.9855C16.2441 6.06518 7.75503 6.06687 7.53125 11.9855C7.53125 14.2104 9.16569 16.0605 11.2969 16.3987V18.0604H8.255L9.72594 19.5314C10.5484 20.3538 10.5484 21.692 9.72594 22.5145L8.255 23.9854H13.5063C13.6928 23.9854 13.8717 23.9113 14.0035 23.7795L16.2628 21.5201C16.5374 21.2456 16.5374 20.8004 16.2628 20.5258ZM11.6234 13.4418C11.5311 13.4419 11.4396 13.4238 11.3543 13.3884C11.269 13.3531 11.1915 13.3012 11.1263 13.2358L10.3732 12.4827C9.73878 11.7997 10.6846 10.8539 11.3675 11.4883L11.6235 11.7442L12.6326 10.7352C13.3154 10.1008 14.2614 11.0464 13.6269 11.7296L12.1207 13.2358C12.0555 13.3012 11.978 13.3531 11.8926 13.3884C11.8073 13.4237 11.7158 13.4419 11.6234 13.4418Z" fill="white"/>
<path d="M8.73155 20.5258L6.47217 18.2664C6.34032 18.1345 6.16149 18.0604 5.97502 18.0604H5.17191V8.8675C7.30308 8.5292 8.93752 6.67914 8.93752 4.45426C8.7128 -1.4661 0.223781 -1.46436 0 4.45431C0 6.67914 1.63444 8.52925 3.76566 8.8675V18.0605H0.703125C0.314812 18.0605 0 18.3753 0 18.7636V23.2824C0 23.6707 0.314812 23.9855 0.703125 23.9855H5.97502C6.16149 23.9855 6.34032 23.9114 6.47217 23.7795L8.73155 21.5201C9.00614 21.2455 9.00614 20.8004 8.73155 20.5258ZM4.09219 5.91048C3.99983 5.91061 3.90837 5.89248 3.82305 5.85713C3.73772 5.82179 3.66023 5.76992 3.59503 5.70451L2.84194 4.95142C2.20753 4.26845 3.15328 3.32261 3.83625 3.95706L4.09219 4.21295L5.10127 3.20392C5.78409 2.56956 6.73008 3.51512 6.09562 4.19828L4.58939 5.70451C4.52418 5.76991 4.44668 5.82178 4.36135 5.85713C4.27602 5.89248 4.18455 5.91061 4.09219 5.91048Z" fill="white"/>
</g>
<defs>
<clipPath id="clip0_3102_2396">
<rect width="24" height="24" fill="white"/>
</clipPath>
</defs>
</svg>
