<?xml version="1.0" encoding="UTF-8"?>
<svg version="1.1" xmlns="http://www.w3.org/2000/svg" width="512" height="512">
<path d="M0 0 C1.09867543 -0.00307895 1.09867543 -0.00307895 2.21954632 -0.0062201 C4.68114696 -0.01188785 7.14269162 -0.01043313 9.60429764 -0.00901413 C11.38411309 -0.01159789 13.16392797 -0.01461108 14.94374204 -0.01801753 C19.84055256 -0.02608942 24.73734842 -0.02787721 29.63416481 -0.028615 C34.91310266 -0.03046521 40.19203289 -0.03801234 45.47096634 -0.04475021 C57.01635986 -0.05833504 68.5617499 -0.06435839 80.10715008 -0.06876087 C87.31468848 -0.07152284 94.52222554 -0.07576009 101.72976303 -0.08026505 C121.68149481 -0.09245753 141.63322551 -0.10275713 161.58496094 -0.10614014 C163.50056353 -0.10646949 163.50056353 -0.10646949 165.45486517 -0.10680549 C166.73500307 -0.10702377 168.01514097 -0.10724204 169.33407092 -0.10746694 C171.92815447 -0.1079104 174.52223802 -0.10835697 177.11632156 -0.10880661 C178.40307884 -0.10902804 179.68983612 -0.10924947 181.01558605 -0.10947761 C201.87021857 -0.11342645 222.72481617 -0.13088321 243.5794352 -0.15416613 C264.98546325 -0.17787199 286.39147376 -0.19034163 307.79751515 -0.19150805 C319.81830068 -0.1924252 331.83904069 -0.19818767 343.85981369 -0.21632767 C354.09475918 -0.23171825 364.3296451 -0.23685523 374.56459996 -0.22858956 C379.78693175 -0.22467949 385.00914351 -0.2256302 390.23146057 -0.23964691 C395.0132951 -0.25236407 399.79491914 -0.25120748 404.57675329 -0.2390562 C406.30555668 -0.23709543 408.03437487 -0.24019516 409.76315746 -0.24890056 C430.79340839 -0.34808528 430.79340839 -0.34808528 439.22569656 7.51814651 C444.59414081 13.54305813 444.81403808 20.23073841 444.82432938 27.88801956 C444.82929428 28.77147552 444.83425919 29.65493149 444.83937454 30.56515884 C444.8539747 33.48699602 444.86079545 36.40877886 444.86632156 39.33064651 C444.87207582 41.36603166 444.87783352 43.40141679 444.88359451 45.43680191 C444.89409912 49.70635098 444.89994498 53.97588126 444.90343094 58.24544144 C444.90890727 63.7015915 444.93291926 69.15749096 444.96140289 74.61356258 C444.98008051 78.81989631 444.98523765 83.02617036 444.98676682 87.23254204 C444.9897835 89.24307306 444.9977786 91.25360327 445.010952 93.2640934 C445.02811584 96.08554045 445.02610684 98.90638442 445.01964188 101.72786331 C445.02885666 102.54948959 445.03807144 103.37111588 445.04756546 104.21763992 C444.99819117 111.13901332 443.82268918 117.50501783 439.35069656 122.94392776 C432.37479262 128.62198912 428.28627459 130.25444027 419.38417816 130.26285553 C418.64582863 130.26490816 417.9074791 130.2669608 417.14675534 130.26907563 C414.65907541 130.27475473 412.17145069 130.27328726 409.68376541 130.27186966 C407.88760112 130.27445277 406.09143741 130.27746578 404.2952745 130.28087306 C399.34866775 130.28895261 394.4020755 130.29073316 389.45546293 130.29147053 C384.12471978 130.29331941 378.79398419 130.3008659 373.46324539 130.30760574 C361.802161 130.32119619 350.14108004 130.32721484 338.47998905 130.3316164 C331.20127222 130.33437752 323.92255672 130.33861462 316.64384079 130.34312057 C296.4982766 130.35531397 276.35271349 130.36561328 256.20714569 130.36899567 C254.91742017 130.36921523 253.62769464 130.3694348 252.29888652 130.36966102 C250.35962465 130.36998843 250.35962465 130.36998843 248.38118577 130.37032247 C245.76132218 130.37076593 243.14145859 130.3712125 240.521595 130.37166214 C239.22204745 130.37188357 237.9224999 130.372105 236.58357212 130.37233314 C215.52127177 130.37628204 194.459006 130.39373857 173.39671901 130.41702166 C151.78167517 130.4407233 130.16664869 130.45319697 108.55159163 130.45436358 C96.41177472 130.45528099 84.27200286 130.46104988 72.13219833 130.4791832 C61.79582426 130.49456812 51.45950917 130.49971414 41.12312582 130.49144509 C35.84826841 130.48753295 30.57352984 130.48849575 25.29868698 130.50250244 C20.46998814 130.51520734 15.64149784 130.51407385 10.81279942 130.50191173 C9.06581449 130.49994882 7.31881496 130.5030605 5.57185057 130.51175609 C3.19617407 130.52283259 0.82123566 130.51537154 -1.55442047 130.50336456 C-2.87367893 130.50396165 -4.19293739 130.50455874 -5.55217338 130.50517392 C-12.6729882 129.80196723 -17.68184266 127.6915198 -22.33680344 122.13142776 C-27.07860751 115.67730556 -27.48750096 111.13354311 -27.49793625 103.26716995 C-27.50290115 102.37235413 -27.50786606 101.4775383 -27.51298141 100.55560684 C-27.52758101 97.59649764 -27.53440179 94.63744206 -27.53992844 91.67830276 C-27.5456822 89.61810174 -27.55143991 87.55790074 -27.55720139 85.49769974 C-27.56770545 81.17687608 -27.57355185 76.85607099 -27.57703781 72.53523636 C-27.58251779 67.00948712 -27.60653785 61.48398486 -27.63500977 55.95831299 C-27.65367169 51.70140755 -27.65884367 47.44456114 -27.66037369 43.18761826 C-27.66339328 41.15114112 -27.67139832 39.11466485 -27.68455887 37.078228 C-27.70169174 34.22305112 -27.6997213 31.36847171 -27.69324875 28.5132637 C-27.70246353 27.67869141 -27.71167831 26.84411911 -27.72117233 25.98425674 C-27.66441677 17.95642408 -25.43965337 11.57347881 -19.94617844 5.60408401 C-14.16972571 0.31834936 -7.45384558 0.00711677 0 0 Z " fill="#000000" transform="translate(47.3368034362793,18.868572235107422)"/>
<path d="M0 0 C1.05797651 -0.00467997 2.11595302 -0.00935994 3.20598942 -0.01418173 C6.74496279 -0.02613112 10.28354889 -0.01667439 13.82252502 -0.00723267 C16.36227138 -0.0112984 18.90201597 -0.01664029 21.4417572 -0.02316284 C27.62048785 -0.03542226 33.79907552 -0.03362781 39.97780805 -0.02492492 C45.00094185 -0.01814333 50.02404502 -0.01723371 55.04718208 -0.02049637 C55.76274243 -0.02095607 56.47830278 -0.02141577 57.21554678 -0.0218894 C58.6693132 -0.0228486 60.12307961 -0.02382124 61.57684601 -0.02480717 C75.20245287 -0.03335763 88.82799914 -0.02353266 102.45359606 -0.00740607 C114.13698685 0.00599394 125.8202882 0.00367099 137.50367737 -0.01016235 C151.07975281 -0.02622921 164.65577516 -0.03253067 178.23185879 -0.02332556 C179.6805131 -0.02236994 181.12916741 -0.02142683 182.57782173 -0.02049637 C183.64689265 -0.01980213 183.64689265 -0.01980213 184.73756097 -0.01909386 C189.75231436 -0.01650707 194.76703399 -0.02086832 199.78178215 -0.02793503 C206.53613161 -0.03724414 213.2902864 -0.0305839 220.04462814 -0.01325226 C222.52299659 -0.0092869 225.00137926 -0.01042228 227.47974205 -0.01704025 C230.86396486 -0.02524362 234.24764749 -0.01494796 237.63183594 0 C238.61151398 -0.00669217 239.59119202 -0.01338433 240.60055727 -0.02027929 C247.72535626 0.04071695 253.50044969 0.96000721 259.12940979 5.69345093 C265.50331399 13.30672539 266.5276371 18.68791546 266.5405426 28.26693726 C266.54550751 29.15214554 266.55047241 30.03735382 266.55558777 30.9493866 C266.57016282 33.87059311 266.57700347 36.79174532 266.58253479 39.71298218 C266.58828988 41.74933371 266.59404757 43.78568523 266.59980774 45.82203674 C266.61030434 50.08980562 266.61615585 54.35755573 266.61964417 58.62533569 C266.6251274 64.08267621 266.64915757 69.53976705 266.67761612 74.9970293 C266.69627746 79.20332048 266.70144996 83.4095519 266.70298004 87.61588097 C266.70599896 89.62723849 266.71400171 91.63859516 266.72716522 93.64991188 C266.74429953 96.46905941 266.74232751 99.28760194 266.7358551 102.10678101 C266.74506989 102.93043152 266.75428467 103.75408203 266.76377869 104.60269165 C266.70656427 112.59413836 264.45881864 118.97481393 258.98487854 124.90829468 C252.28215765 131.05653257 243.63125312 130.52907378 235.12031555 130.52139282 C234.08910591 130.52436394 233.05789628 130.52733507 231.99543786 130.53039622 C228.54106349 130.53906572 225.08672386 130.54058999 221.63233948 130.54208374 C219.15509975 130.54671311 216.67786074 130.55173794 214.20062256 130.55712891 C207.47118087 130.57024258 200.74175273 130.57673271 194.01230145 130.58113956 C189.80736096 130.58390614 185.60242276 130.58814422 181.39748383 130.59264374 C169.74613464 130.60483244 158.09478728 130.61513289 146.44343185 130.61851883 C145.3258129 130.61884818 145.3258129 130.61884818 144.18561579 130.61918418 C143.06538782 130.6195116 143.06538782 130.6195116 141.92252898 130.61984563 C140.40929524 130.62028909 138.8960615 130.62073565 137.38282776 130.6211853 C136.25691362 130.62151745 136.25691362 130.62151745 135.10825375 130.6218563 C122.94859362 130.62580345 110.78899345 130.64325672 98.62935647 130.66654482 C86.13343873 130.69028307 73.63755104 130.70272179 61.14161038 130.70388675 C54.1303361 130.70480206 47.11913997 130.71051817 40.10788727 130.72870636 C33.51198964 130.74575733 26.91621392 130.74734152 20.32029152 130.73856735 C17.90242173 130.73779711 15.48454396 130.74213799 13.06669426 130.7520256 C9.7597665 130.76475367 6.45336307 130.7588632 3.1464386 130.7484436 C1.71965542 130.76052821 1.71965542 130.76052821 0.26404834 130.77285695 C-7.78350744 130.71376883 -15.43342479 129.70660457 -21.55809021 124.13095093 C-27.2813872 118.22484592 -28.06568485 111.74237784 -28.02464294 103.91659546 C-28.0315062 102.99368713 -28.03836945 102.07077881 -28.04544067 101.11990356 C-28.06366608 98.08436475 -28.05987682 95.04934495 -28.05418396 92.01376343 C-28.05874815 89.89298333 -28.06405443 87.77220471 -28.07006836 85.65142822 C-28.07899139 81.21143579 -28.07658587 76.77162329 -28.06663513 72.33163452 C-28.05515306 66.65684986 -28.07534978 60.98268816 -28.10455227 55.30798531 C-28.12294707 50.92920012 -28.12261513 46.55056327 -28.11691475 42.17174911 C-28.1167619 40.08028159 -28.12277581 37.98880379 -28.13520622 35.8973732 C-28.15017435 32.96588962 -28.13939586 30.03554475 -28.12229919 27.10409546 C-28.13196716 26.24977936 -28.14163513 25.39546326 -28.15159607 24.51525879 C-28.07267475 18.01469632 -26.61821129 11.86614874 -22.27953243 6.82176399 C-15.42481068 0.69204154 -8.76710456 -0.0597519 0 0 Z " fill="#000000" transform="translate(225.62059020996094,362.6190490722656)"/>
<path d="M0 0 C1.5700937 -0.00701996 1.5700937 -0.00701996 3.17190647 -0.01418173 C6.6608778 -0.02609738 10.14945385 -0.01668768 13.63842773 -0.00723267 C16.14729033 -0.01129988 18.65615113 -0.01664259 21.16500854 -0.02316284 C27.26091606 -0.03540698 33.35667847 -0.03363605 39.45258784 -0.02492492 C44.40892237 -0.0181368 49.36522587 -0.01723652 54.32156372 -0.02049637 C55.38157556 -0.02118592 55.38157556 -0.02118592 56.46300179 -0.0218894 C57.89880841 -0.02284862 59.33461502 -0.02382126 60.77042162 -0.02480717 C74.21914065 -0.03335218 87.66779823 -0.02354092 101.11650717 -0.00740607 C112.6443526 0.00599631 124.17210738 0.00366797 135.69995117 -0.01016235 C149.10208979 -0.02623391 162.50417462 -0.03252829 175.90632153 -0.02332556 C177.33670742 -0.02236996 178.76709333 -0.02142685 180.19747925 -0.02049637 C180.90117018 -0.02003354 181.60486111 -0.01957072 182.32987601 -0.01909386 C187.27755788 -0.0165087 192.22520551 -0.02086474 197.17288208 -0.02793503 C203.83779744 -0.03725034 210.50251567 -0.03057363 217.16742325 -0.01325226 C219.61150962 -0.00929006 222.0556104 -0.01041687 224.49969101 -0.01704025 C227.83966835 -0.02525606 231.17910023 -0.01493303 234.51904297 0 C235.48277108 -0.00669217 236.4464992 -0.01338433 237.43943119 -0.02027929 C244.62838923 0.04192601 250.72748152 1.37411004 257.00952148 4.94345093 C266.12443036 14.81793555 264.99467059 26.37362055 264.92358398 39.00595093 C264.92695723 41.12004881 264.93181407 43.2341448 264.93807983 45.34823608 C264.94542709 49.766231 264.93481479 54.18371841 264.91137695 58.60165405 C264.88289093 64.24392093 264.8993064 69.88499836 264.92923927 75.52722168 C264.94737021 79.88893477 264.94152762 84.25036925 264.92860031 88.61209106 C264.92528232 90.6915603 264.92929634 92.77105543 264.94099808 94.85049438 C265.03402582 116.02494783 265.03402582 116.02494783 259.25952148 123.38095093 C256.97827148 125.63485718 256.97827148 125.63485718 254.75952148 126.94345093 C254.02733398 127.39848999 253.29514648 127.85352905 252.54077148 128.32235718 C248.68630383 130.11098857 244.88234285 130.50557 240.66858196 130.51237869 C239.77181104 130.51621984 238.87504012 130.52006098 237.95109433 130.52401853 C236.48700193 130.5227188 236.48700193 130.5227188 234.99333191 130.52139282 C233.94931491 130.52436394 232.90529791 130.52733507 231.82964402 130.53039622 C228.32603714 130.5390783 224.82246445 130.54059106 221.31884766 130.54208374 C218.80895413 130.54671221 216.29906131 130.55173691 213.78916931 130.55712891 C206.9668315 130.57025094 200.14450495 130.57673412 193.32215667 130.58113956 C189.06078641 130.58390447 184.79941842 130.58814224 180.5380497 130.59264374 C168.73490002 130.60483349 156.93175214 130.61513385 145.12859631 130.61851883 C144.37357593 130.6187384 143.61855555 130.61895796 142.84065576 130.61918418 C142.08385325 130.61940246 141.32705074 130.61962074 140.54731482 130.61984563 C139.01380233 130.62028909 137.48028984 130.62073565 135.94677734 130.6211853 C134.80577026 130.62151745 134.80577026 130.62151745 133.64171252 130.6218563 C121.31574165 130.62580446 108.9898299 130.64326032 96.66388186 130.66654482 C84.00302365 130.69026861 71.34219509 130.70272112 58.68131429 130.70388675 C51.57507405 130.70480285 44.46891087 130.71053907 37.36269188 130.72870636 C30.67897405 130.74573364 23.99542737 130.74735233 17.31168556 130.73856735 C14.85911289 130.73779593 12.40653242 130.74215347 9.95397949 130.7520256 C6.60469895 130.76471636 3.25593887 130.75888347 -0.09333801 130.7484436 C-1.06270745 130.75650001 -2.03207688 130.76455641 -3.03082114 130.77285695 C-10.60269486 130.71769689 -17.12731303 129.33509277 -23.05297852 124.25595093 C-23.68848633 123.7377478 -24.32399414 123.21954468 -24.97875977 122.68563843 C-29.5796334 116.66675718 -30.18341386 109.39373885 -30.12866211 102.05673218 C-30.13391907 101.17254608 -30.13917603 100.28835999 -30.14459229 99.37738037 C-30.15769248 96.48255237 -30.14908978 93.58828358 -30.13891602 90.69345093 C-30.14093962 88.66521093 -30.14385344 86.63697165 -30.14761353 84.60873413 C-30.15202337 80.36899858 -30.14564902 76.12945333 -30.1315918 71.88973999 C-30.11450084 66.47292428 -30.12434921 61.05655462 -30.14230919 55.63975525 C-30.15318324 51.45485106 -30.14968408 47.27005149 -30.14192581 43.08514404 C-30.13993381 41.08858181 -30.14234768 39.09200988 -30.14936447 37.09545898 C-30.15703875 34.29844229 -30.14529155 31.50213403 -30.12866211 28.70516968 C-30.1347348 27.89139862 -30.1408075 27.07762756 -30.14706421 26.23919678 C-30.07589368 19.73192317 -28.83856555 13.58787153 -25.23266602 8.07626343 C-24.69899414 7.5580603 -24.16532227 7.03985718 -23.61547852 6.50595093 C-23.09727539 5.97227905 -22.57907227 5.43860718 -22.04516602 4.88876343 C-15.24264199 0.43829856 -7.91931748 -0.05499205 0 0 Z " fill="#000000" transform="translate(49.740478515625,190.61904907226563)"/>
<path d="M0 0 C15.22896522 12.09954101 23.64411585 27.57435522 26.25927734 46.73193359 C27.78473246 63.30297343 23.049326 80.07175111 12.67724609 93.12646484 C-0.11206494 108.14603923 -16.07521264 116.33404022 -35.72119141 117.98193359 C-54.21954993 118.40902412 -71.4678234 111.7670957 -84.92822266 99.10693359 C-97.13427293 86.31871876 -103.61659168 70.46909468 -103.77587891 52.84130859 C-103.24234257 33.80722641 -96.41792821 18.07115219 -82.74072266 4.73193359 C-60.19276027 -16.34796447 -24.88762567 -18.12991974 0 0 Z " fill="#000000" transform="translate(465.74072265625,203.26806640625)"/>
<path d="M0 0 C2.46110178 2.15859913 4.75079072 4.39182276 7.01171875 6.7578125 C7.64335937 7.37011719 8.275 7.98242188 8.92578125 8.61328125 C20.79865887 20.87843457 24.9944874 38.16401952 25.01171875 54.7578125 C23.91596102 71.87155596 16.78696155 88.30813764 4.140625 100.07421875 C-11.54682968 112.48026089 -28.04258809 118.13252338 -48.2578125 116.2890625 C-67.55888005 113.5404288 -82.45194381 103.71012901 -94.23828125 88.359375 C-104.15784215 73.61288492 -106.83525139 55.80863107 -103.98828125 38.5078125 C-101.08285856 25.2704895 -94.77576781 14.13960014 -84.98828125 4.7578125 C-84.31410156 4.05269531 -83.63992187 3.34757812 -82.9453125 2.62109375 C-60.88889235 -19.10427319 -23.83791272 -17.88622471 0 0 Z " fill="#000000" transform="translate(124.98828125,376.2421875)"/>
</svg>
