<?xml version="1.0" encoding="UTF-8"?>
<svg version="1.1" xmlns="http://www.w3.org/2000/svg" width="512" height="512">
<path d="M0 0 C8.39403698 5.00533316 13.44323953 11.85783432 16.109375 21.2578125 C16.28702506 23.86513709 16.37160193 26.36087152 16.34988403 28.96469116 C16.35244731 30.09944144 16.35244731 30.09944144 16.35506237 31.25711596 C16.35834561 33.78137157 16.34737292 36.30535889 16.33642578 38.82958984 C16.33586141 40.64325962 16.33617872 42.45692985 16.33731079 44.27059937 C16.33788431 49.18748275 16.32613005 54.10426844 16.31216288 59.02112913 C16.29965546 64.16208112 16.29848501 69.30303538 16.29611206 74.44400024 C16.28989733 84.17612983 16.27348659 93.90821445 16.25341308 103.64032423 C16.23105388 114.72126197 16.22006059 125.80220186 16.21002221 136.88315654 C16.18912038 159.67473345 16.1539445 182.46627045 16.109375 205.2578125 C17.04844381 205.25412533 17.98751263 205.25043816 18.95503807 205.24663925 C41.82435945 205.15776731 64.69365837 205.0920745 87.56311607 205.05056381 C98.62270629 205.02995502 109.68218231 205.00186652 120.74169922 204.95605469 C130.38327571 204.91613549 140.02476947 204.89036746 149.6664263 204.88145852 C154.76972995 204.8762524 159.87279696 204.86405109 164.97602463 204.83489227 C169.78424833 204.80764292 174.592139 204.79938672 179.40043259 204.80538177 C181.16038831 204.80428579 182.92035574 204.79638881 184.68024445 204.7809906 C196.35421135 204.68390138 206.61232749 205.18097096 215.578125 213.5546875 C222.97178791 221.77825135 224.69127567 230.49226885 224.421875 241.26953125 C223.94754865 249.65522581 220.33467977 256.6607495 214.109375 262.2578125 C207.32282551 267.36129771 200.93779153 269.56951259 192.40249634 269.49832153 C191.26774606 269.50088481 191.26774606 269.50088481 190.11007154 269.50349987 C187.58581593 269.50678311 185.06182861 269.49581042 182.53759766 269.48486328 C180.72392788 269.48429891 178.91025765 269.48461622 177.09658813 269.48574829 C172.17970475 269.48632181 167.26291906 269.47456755 162.34605837 269.46060038 C157.20510638 269.44809296 152.06415212 269.44692251 146.92318726 269.44454956 C137.19105767 269.43833483 127.45897305 269.42192409 117.72686327 269.40185058 C106.64592553 269.37949138 95.56498564 269.36849809 84.48403096 269.35845971 C61.69245405 269.33755788 38.90091705 269.302382 16.109375 269.2578125 C16.11306217 270.19688131 16.11674934 271.13595013 16.12054825 272.10347557 C16.20942019 294.97279695 16.275113 317.84209587 16.31662369 340.71155357 C16.33723248 351.77114379 16.36532098 362.83061981 16.41113281 373.89013672 C16.45105201 383.53171321 16.47682004 393.17320697 16.48572898 402.8148638 C16.4909351 407.91816745 16.50313641 413.02123446 16.53229523 418.12446213 C16.55954458 422.93268583 16.56780078 427.7405765 16.56180573 432.54887009 C16.56290171 434.30882581 16.57079869 436.06879324 16.5861969 437.82868195 C16.68328612 449.50264885 16.18621654 459.76076499 7.8125 468.7265625 C-0.41106385 476.12022541 -9.12508135 477.83971317 -19.90234375 477.5703125 C-28.28803831 477.09598615 -35.293562 473.48311727 -40.890625 467.2578125 C-45.99411021 460.47126301 -48.20232509 454.08622903 -48.13113403 445.55093384 C-48.13284288 444.79443365 -48.13455173 444.03793347 -48.13631237 443.25850904 C-48.13959561 440.73425343 -48.12862292 438.21026611 -48.11767578 435.68603516 C-48.11711141 433.87236538 -48.11742872 432.05869515 -48.11856079 430.24502563 C-48.11913431 425.32814225 -48.10738005 420.41135656 -48.09341288 415.49449587 C-48.08090546 410.35354388 -48.07973501 405.21258962 -48.07736206 400.07162476 C-48.07114733 390.33949517 -48.05473659 380.60741055 -48.03466308 370.87530077 C-48.01230388 359.79436303 -48.00131059 348.71342314 -47.99127221 337.63246846 C-47.97037038 314.84089155 -47.9351945 292.04935455 -47.890625 269.2578125 C-48.82969381 269.26149967 -49.76876263 269.26518684 -50.73628807 269.26898575 C-73.60560945 269.35785769 -96.47490837 269.4235505 -119.34436607 269.46506119 C-130.40395629 269.48566998 -141.46343231 269.51375848 -152.52294922 269.55957031 C-162.16452571 269.59948951 -171.80601947 269.62525754 -181.4476763 269.63416648 C-186.55097995 269.6393726 -191.65404696 269.65157391 -196.75727463 269.68073273 C-201.56549833 269.70798208 -206.373389 269.71623828 -211.18168259 269.71024323 C-212.94163831 269.71133921 -214.70160574 269.71923619 -216.46149445 269.7346344 C-228.13546135 269.83172362 -238.39357749 269.33465404 -247.359375 260.9609375 C-254.75303791 252.73737365 -256.47252567 244.02335615 -256.203125 233.24609375 C-255.72879865 224.86039919 -252.11592977 217.8548755 -245.890625 212.2578125 C-239.10407551 207.15432729 -232.71904153 204.94611241 -224.18374634 205.01730347 C-223.04899606 205.01474019 -223.04899606 205.01474019 -221.89132154 205.01212513 C-219.36706593 205.00884189 -216.84307861 205.01981458 -214.31884766 205.03076172 C-212.50517788 205.03132609 -210.69150765 205.03100878 -208.87783813 205.02987671 C-203.96095475 205.02930319 -199.04416906 205.04105745 -194.12730837 205.05502462 C-188.98635638 205.06753204 -183.84540212 205.06870249 -178.70443726 205.07107544 C-168.97230767 205.07729017 -159.24022305 205.09370091 -149.50811327 205.11377442 C-138.42717553 205.13613362 -127.34623564 205.14712691 -116.26528096 205.15716529 C-93.47370405 205.17806712 -70.68216705 205.213243 -47.890625 205.2578125 C-47.89431217 204.31874369 -47.89799934 203.37967487 -47.90179825 202.41214943 C-47.99067019 179.54282805 -48.056363 156.67352913 -48.09787369 133.80407143 C-48.11848248 122.74448121 -48.14657098 111.68500519 -48.19238281 100.62548828 C-48.23230201 90.98391179 -48.25807004 81.34241803 -48.26697898 71.7007612 C-48.2721851 66.59745755 -48.28438641 61.49439054 -48.31354523 56.39116287 C-48.34079458 51.58293917 -48.34905078 46.7750485 -48.34305573 41.96675491 C-48.34415171 40.20679919 -48.35204869 38.44683176 -48.3674469 36.68694305 C-48.46453612 25.01297615 -47.96746654 14.75486001 -39.59375 5.7890625 C-28.99673947 -3.73852495 -12.95346121 -6.21592266 0 0 Z " fill="#FFFFFF" transform="translate(271.890625,18.7421875)"/>
</svg>
