<?xml version="1.0" encoding="UTF-8"?>
<svg version="1.1" xmlns="http://www.w3.org/2000/svg" width="512" height="512">
<path d="M0 0 C50.26872153 17.18862461 104.48524228 13.9784684 154.13623047 -3.2824707 C156.375 -3.9375 156.375 -3.9375 159.375 -3.9375 C159.40078125 -2.93074219 159.4265625 -1.92398437 159.453125 -0.88671875 C160.44619275 26.69665127 168.91226636 53.13575491 187.375 74.0625 C188.12265625 74.95324219 188.8703125 75.84398437 189.640625 76.76171875 C205.64227031 95.26684728 229.03771317 108.71991787 253.3125 112.375 C258.86891924 113.47081354 258.86891924 113.47081354 260.9453125 115.8984375 C262.08237059 118.5933547 262.71926888 121.21042218 263.375 124.0625 C263.79203724 125.40114222 264.22265804 126.73560005 264.6640625 128.06640625 C269.32844328 142.18952089 271.66590464 154.79126981 265.0859375 168.80859375 C259.65833252 178.34318325 252.64005513 184.93346786 242.375 189.0625 C234.6271892 191.17177903 227.05295582 191.34810583 219.06680298 191.32319641 C217.75590521 191.32702196 216.44500745 191.33084751 215.0943855 191.33478898 C211.48021064 191.34502107 207.86613551 191.34289947 204.25195265 191.33860838 C200.34455784 191.33613242 196.43718651 191.34516608 192.52980042 191.35264587 C184.88431069 191.36537065 177.23885611 191.36718935 169.59335758 191.36484561 C163.37658963 191.36305985 157.15983232 191.36481762 150.94306564 191.36907005 C150.05699426 191.36966524 149.17092288 191.37026043 148.25800084 191.37087366 C146.45772796 191.37208545 144.65745507 191.37329959 142.85718219 191.37451603 C125.98858566 191.38538296 109.12000914 191.38323306 92.25141148 191.37713119 C76.83422992 191.37196245 61.41711156 191.38321783 45.9999425 191.40222941 C30.15226808 191.42162137 14.30462355 191.42986144 -1.54306281 191.42610615 C-10.4333966 191.42419622 -19.32367661 191.42666148 -28.2140007 191.44082069 C-35.78223516 191.45275276 -43.35038273 191.45411892 -50.91861843 191.44203053 C-54.77633864 191.43615472 -58.63390007 191.43500627 -62.49160957 191.44703293 C-66.68214323 191.45994487 -70.87230133 191.44939658 -75.06283569 191.4367218 C-76.87366436 191.44778323 -76.87366436 191.44778323 -78.72107542 191.45906812 C-92.30123415 191.37291055 -103.43170141 188.38845507 -113.69140625 179.21484375 C-122.11581218 170.35375155 -125.18027958 159.58598445 -125.00488281 147.63745117 C-124.73803964 142.94624409 -123.60221684 138.79018035 -122.17578125 134.33203125 C-121.91271179 133.4833699 -121.64964233 132.63470856 -121.37860107 131.7603302 C-120.47331357 128.85693281 -119.550652 125.95946665 -118.625 123.0625 C-118.1136702 121.45311554 -118.1136702 121.45311554 -117.5920105 119.81121826 C-114.87957194 111.28220889 -112.13107782 102.76498859 -109.375 94.25 C-107.88599725 89.64751984 -106.3974148 85.04490378 -104.90926361 80.44214821 C-104.49170518 79.15083806 -104.07402699 77.85956663 -103.65622711 76.56833458 C-101.20558103 68.99343357 -98.77868783 61.41225115 -96.40625 53.8125 C-95.96017818 52.39291674 -95.51390118 50.97339794 -95.06738281 49.55395508 C-94.31237272 47.14531212 -93.56584846 44.7339788 -92.83105469 42.3190918 C-88.80750813 29.55206908 -83.3273833 18.48517496 -73.625 9.0625 C-72.81482422 8.22138672 -72.81482422 8.22138672 -71.98828125 7.36328125 C-51.80168749 -12.00974702 -24.00309709 -8.27537868 0 0 Z " fill="#FFFFFF" transform="translate(131.625,276.9375)"/>
<path d="M0 0 C1.0003125 0.556875 2.000625 1.11375 3.03125 1.6875 C25.06190726 14.85524917 40.88756206 37.20320525 48.17578125 61.57421875 C55.04930851 90.14333441 51.49403929 118.49024105 37 144 C34.58545556 147.92542769 31.97636233 151.4844416 29 155 C28.58492187 155.49048828 28.16984375 155.98097656 27.7421875 156.48632812 C13.97939157 172.56304443 -2.77744333 183.8015152 -23 190 C-24.09699219 190.3403125 -25.19398438 190.680625 -26.32421875 191.03125 C-44.56659489 195.60773461 -66.1787249 195.0344191 -84 189 C-84.94456055 188.68651611 -84.94456055 188.68651611 -85.90820312 188.36669922 C-101.5714112 183.0486975 -114.29603332 174.56166921 -126 163 C-126.96292969 162.14535156 -126.96292969 162.14535156 -127.9453125 161.2734375 C-144.91773422 145.87984571 -154.33255602 120.36396081 -156 98 C-157.20288658 70.16576414 -149.88681853 43.06114753 -131 22 C-130.16400481 20.93959312 -129.33034947 19.87733354 -128.5 18.8125 C-96.25765701 -17.46013586 -41.19333324 -23.01453618 0 0 Z " fill="#FFFFFF" transform="translate(256,58)"/>
<path d="M0 0 C18.70619623 16.15893357 30.29210871 39.15684164 33.125 63.625 C34.56520307 90.74650314 28.54795773 117.23480506 10.39453125 138.140625 C9.64558594 138.96046875 8.89664063 139.7803125 8.125 140.625 C7.42761719 141.40359375 6.73023438 142.1821875 6.01171875 142.984375 C-11.68538589 161.74912946 -36.43332036 171.45267149 -61.875 172.625 C-88.98568927 173.34230733 -113.60725783 163.18614597 -133.23339844 144.71386719 C-151.49958137 126.97431206 -161.76688703 103.58719334 -162.29467773 78.15820312 C-162.34643045 67.35393814 -162.27860068 56.96423979 -158.875 46.625 C-158.57698486 45.68406494 -158.57698486 45.68406494 -158.27294922 44.72412109 C-149.91990265 18.77649254 -132.08781759 -1.34079447 -108.06640625 -13.8359375 C-72.11242176 -31.0562784 -30.41302237 -25.26077218 0 0 Z M-32.92382812 32.10620117 C-33.47119629 32.6528392 -34.01856445 33.19947723 -34.58251953 33.76268005 C-36.3692247 35.55283834 -38.13760862 37.35997725 -39.90625 39.16796875 C-41.14925133 40.42030625 -42.39336921 41.67153644 -43.6385498 42.92170715 C-46.89817726 46.20034075 -50.14250277 49.49371277 -53.38378906 52.79046631 C-56.69981095 56.15781823 -60.03019706 59.51089781 -63.359375 62.86523438 C-69.87865913 69.43799345 -76.3818546 76.02642466 -82.875 82.625 C-83.98300785 81.68669461 -85.0893758 80.74645253 -86.19506836 79.80541992 C-86.81135605 79.28203537 -87.42764374 78.75865082 -88.06260681 78.21940613 C-91.63947068 75.07275246 -94.84420867 71.56006841 -98.12890625 68.11328125 C-103.55561153 63.19605328 -108.11768349 62.06041593 -115.25390625 62.2734375 C-120.27761426 62.94725825 -122.90621115 65.55147722 -126.1875 69.1875 C-128.55478106 72.60690598 -129.06864278 75.36507625 -129.1875 79.4375 C-129.22488281 80.26894531 -129.26226562 81.10039062 -129.30078125 81.95703125 C-128.23089283 88.66101098 -122.23194505 93.56165228 -117.625 98.140625 C-116.92987305 98.83766541 -116.23474609 99.53470581 -115.51855469 100.25286865 C-114.05519128 101.71758733 -112.58932204 103.17980633 -111.12109375 104.63964844 C-108.8752578 106.87474344 -106.64032915 109.12034779 -104.40625 111.3671875 C-102.97980777 112.79230865 -101.55274554 114.21680956 -100.125 115.640625 C-99.45823242 116.31144104 -98.79146484 116.98225708 -98.10449219 117.67340088 C-97.47704102 118.29454773 -96.84958984 118.91569458 -96.203125 119.55566406 C-95.6555957 120.10160217 -95.10806641 120.64754028 -94.54394531 121.21002197 C-91.27774956 123.97919313 -88.37358404 124.94749056 -84.125 125.0625 C-83.32578125 125.10246094 -82.5265625 125.14242187 -81.703125 125.18359375 C-74.41489432 123.74406753 -68.84042895 118.03235728 -63.7722168 112.92626953 C-62.7828286 111.94717621 -62.7828286 111.94717621 -61.77345276 110.94830322 C-59.61602882 108.80903926 -57.46972569 106.65902323 -55.32421875 104.5078125 C-53.81862672 103.0067861 -52.31266468 101.50613077 -50.80635071 100.00582886 C-47.66036714 96.86875419 -44.52009033 93.72610004 -41.38354492 90.57958984 C-37.36942015 86.55395453 -33.33962071 82.54443175 -29.3051939 78.53915596 C-26.19516001 75.44748654 -23.09450842 72.34653984 -19.99650002 69.24282455 C-18.51445226 67.76062374 -17.02930887 66.28151138 -15.54099083 64.80560684 C-13.46118088 62.74071576 -11.39458222 60.66342397 -9.33081055 58.58251953 C-8.4120665 57.67827744 -8.4120665 57.67827744 -7.47476196 56.75576782 C-2.86655064 52.06730901 -0.28640326 47.85745416 0.5625 41.1875 C-0.177143 35.16469271 -2.31176519 30.50945075 -7.125 26.6875 C-16.6429549 20.70072666 -25.64665592 24.56468724 -32.92382812 32.10620117 Z " fill="#FFFFFF" transform="translate(471.875,201.375)"/>
</svg>
