<?xml version="1.0" encoding="UTF-8"?>
<svg version="1.1" xmlns="http://www.w3.org/2000/svg" width="512" height="512">
<path d="M0 0 C29.37 0 58.74 0 89 0 C89.99 6.6 90.98 13.2 92 20 C93.5193188 24.64008174 94.93175892 28.66374455 97 33 C97.45375 33.95132813 97.9075 34.90265625 98.375 35.8828125 C107.85445449 54.37805251 123.4498577 67.44430499 143.0625 73.9375 C163.71622007 80.44000525 185.14654114 78.04683594 204.28515625 68.27319336 C223.50241755 57.8899024 235.4931484 40.45010503 242 20 C242.99 13.4 243.98 6.8 245 0 C274.37 0 303.74 0 334 0 C334 7.59 334 15.18 334 23 C325.12395154 27.43802423 325.12395154 27.43802423 321.30859375 28.18359375 C312.29005419 30.23715777 312.29005419 30.23715777 305.57714844 36.1171875 C303.27096078 41.31493178 302.06219138 46.80167068 300.75097656 52.31591797 C299.5844746 56.48513857 297.71765262 60.19194089 295.6875 64 C295.34887939 64.63929443 295.01025879 65.27858887 294.66137695 65.93725586 C294.18510864 66.83456421 294.18510864 66.83456421 293.69921875 67.75 C292.85810547 69.35875 292.85810547 69.35875 292 71 C291.58790283 71.77206787 291.17580566 72.54413574 290.7512207 73.33959961 C289.7282995 76.96221006 290.6524081 78.46573097 292.28125 81.81640625 C292.79300781 82.91017578 293.30476563 84.00394531 293.83203125 85.13085938 C294.38246094 86.26330078 294.93289063 87.39574219 295.5 88.5625 C296.58720804 90.80693533 297.66083692 93.05801497 298.71875 95.31640625 C299.20279297 96.31099854 299.68683594 97.30559082 300.18554688 98.33032227 C301 101 301 101 300.2255249 102.97109985 C299.02878352 104.95234786 297.81191657 106.47187206 296.20605469 108.13208008 C295.64497009 108.71560745 295.0838855 109.29913483 294.50579834 109.90034485 C293.90060364 110.51717636 293.29540894 111.13400787 292.671875 111.76953125 C292.04524963 112.40992844 291.41862427 113.05032562 290.77301025 113.71012878 C289.44779327 115.05857875 288.11957369 116.40408354 286.78857422 117.74682617 C284.75521244 119.80721827 282.74709344 121.89031306 280.73828125 123.97460938 C279.44680947 125.28272961 278.15388801 126.58942053 276.859375 127.89453125 C276.26227722 128.52148392 275.66517944 129.14843658 275.04998779 129.79438782 C270.80383083 133.9966789 270.80383083 133.9966789 266.86816406 134.01293945 C264.23939069 133.08454477 261.75061573 132.12934042 259.25 130.8984375 C258.3940625 130.49109375 257.538125 130.08375 256.65625 129.6640625 C254.88233674 128.80319283 253.11149174 127.93597239 251.34375 127.0625 C244.9024538 123.95657828 244.9024538 123.95657828 238 125 C235.59020819 126.15287589 233.27272894 127.33904421 230.9375 128.625 C226.22903426 131.21045717 221.93541352 133.14528248 216.63671875 134.171875 C206.47880726 136.10768012 206.47880726 136.10768012 199.11035156 142.83203125 C195.86278453 149.50187005 193.62525322 156.45828047 191.69824219 163.61083984 C191 166 191 166 190 167 C188.55710213 167.09295815 187.10970215 167.11746513 185.66381836 167.11352539 C184.7429393 167.11344986 183.82206024 167.11337433 182.87327576 167.11329651 C181.87224319 167.10813522 180.87121063 167.10297394 179.83984375 167.09765625 C178.82024063 167.0962413 177.80063751 167.09482635 176.75013733 167.09336853 C173.47922893 167.08775097 170.20838787 167.0751955 166.9375 167.0625 C164.72591244 167.05748726 162.51432382 167.05292396 160.30273438 167.04882812 C154.86846643 167.03777584 149.43423803 167.02102063 144 167 C138.9661899 155.43976864 138.9661899 155.43976864 137.9375 150.79296875 C136.10846591 143.6694916 136.10846591 143.6694916 130.93457031 138.78417969 C125.67962601 136.59550067 120.18977582 135.26520489 114.69580078 133.81982422 C109.87400962 132.35346172 105.55190526 129.99306013 101.15087891 127.57446289 C97.34611231 125.52166098 94.35339583 123.94767553 90 124 C86.17141141 125.38368008 82.57311581 127.17619273 78.9375 129 C76.99449261 129.97086497 75.04543215 130.92973256 73.08984375 131.875 C71.80388306 132.52082031 71.80388306 132.52082031 70.49194336 133.1796875 C67.31678872 134.22490349 66.12371649 134.24954475 63 133 C60.44704545 130.97534675 58.21341093 128.67818576 55.94921875 126.33984375 C55.29041214 125.67537735 54.63160553 125.01091095 53.95283508 124.3263092 C51.85480345 122.20592181 49.77112094 120.07204056 47.6875 117.9375 C46.26589845 116.49583259 44.8433826 115.05506613 43.41992188 113.61523438 C39.93592667 110.08718225 36.46473463 106.54696475 33 103 C35.96678285 93.64580529 35.96678285 93.64580529 38.32421875 89.52734375 C42.7813173 81.60011598 42.7813173 81.60011598 43.67724609 72.82714844 C42.14924723 68.51677741 39.67002281 64.79481194 37.18505859 60.98242188 C35.21556944 57.68776759 33.96418585 54.17013693 32.6875 50.5625 C31.6675408 47.75967135 31.6675408 47.75967135 30.62988281 44.96337891 C30 43 30 43 29.62792969 40.72021484 C29.08671443 38.04692266 28.52271634 36.27701132 27 34 C22.86628195 31.45842205 18.47018424 30.00725958 13.875 28.5 C11.47621068 27.65725074 9.07775402 26.81355381 6.6796875 25.96875 C5.61476074 25.61232422 4.54983398 25.25589844 3.45263672 24.88867188 C1 24 1 24 0 23 C0 15.41 0 7.82 0 0 Z " fill="#FFFFFF" transform="translate(89,265)"/>
<path d="M0 0 C0.90045044 -0.00705963 1.80090088 -0.01411926 2.7286377 -0.02139282 C40.56271231 -0.2507174 40.56271231 -0.2507174 57.20703125 3.203125 C58.69759033 3.50911621 58.69759033 3.50911621 60.21826172 3.82128906 C94.49538703 11.07029171 128.03415392 23.98293719 156.20703125 45.203125 C155.99046875 44.45289063 155.77390625 43.70265625 155.55078125 42.9296875 C151.92634822 29.60654015 151.92634822 29.60654015 153.20703125 23.203125 C155.74830958 20.06389882 157.25475524 19.36183767 161.20703125 18.703125 C165.14023468 19.3586589 166.41838165 20.31948753 169.20703125 23.203125 C170.69989954 26.51465354 171.62652594 29.94437442 172.57421875 33.4453125 C172.85806427 34.44644073 173.14190979 35.44756897 173.43435669 36.47903442 C174.02931821 38.59315176 174.6154631 40.70976755 175.19335938 42.82861328 C176.07866183 46.0658044 176.99599337 49.29261741 177.91796875 52.51953125 C178.49281605 54.57758672 179.06579575 56.63616494 179.63671875 58.6953125 C179.91055389 59.65799042 180.18438904 60.62066833 180.46652222 61.61251831 C181.77118698 66.46128294 182.70556011 70.24645263 181.20703125 75.203125 C179.19650298 77.97956881 177.48842898 78.5456927 174.20703125 79.203125 C172.45337732 79.34855671 170.69578457 79.44961781 168.9375 79.51953125 C167.37249756 79.58297729 167.37249756 79.58297729 165.77587891 79.64770508 C159.92000674 79.85192069 154.06417649 80.03919886 148.20703125 80.203125 C146.5206958 80.25629883 146.5206958 80.25629883 144.80029297 80.31054688 C141.64418005 80.40250438 138.48903889 80.46440549 135.33203125 80.515625 C134.37063232 80.545354 133.4092334 80.57508301 132.41870117 80.60571289 C125.84081379 80.66213721 125.84081379 80.66213721 122.62890625 78.3359375 C120.95277335 75.82173816 120.35450251 74.22628589 120.20703125 71.203125 C120.93633255 68.14005954 121.68807363 66.64655864 124.0859375 64.59765625 C128.79544754 62.49340708 133.41453162 62.62994041 138.51953125 62.515625 C139.54626953 62.48146484 140.57300781 62.44730469 141.63085938 62.41210938 C144.15614088 62.32989091 146.68108665 62.26065564 149.20703125 62.203125 C97.57284512 25.8464696 36.12711743 10.33949 -26.51367188 20.47094727 C-70.50673719 28.27884662 -109.29367251 47.95754257 -142.79296875 77.203125 C-143.29779785 77.64333984 -143.80262695 78.08355469 -144.32275391 78.53710938 C-150.2813792 83.76335692 -155.71603428 89.1279772 -160.79296875 95.203125 C-161.57800781 96.07710938 -162.36304688 96.95109375 -163.171875 97.8515625 C-184.41557356 121.68894545 -199.29580332 150.88199661 -208.79296875 181.203125 C-209.18452148 182.43820801 -209.18452148 182.43820801 -209.58398438 183.69824219 C-211.27028398 189.14576262 -212.6246387 194.62264341 -213.79296875 200.203125 C-213.98761719 201.11497559 -214.18226563 202.02682617 -214.3828125 202.96630859 C-222.08914961 240.82431924 -219.50257435 281.50672105 -207.79296875 318.203125 C-207.3760376 319.52159424 -207.3760376 319.52159424 -206.95068359 320.86669922 C-202.79966985 333.7135125 -197.35827959 345.63621453 -191.00952148 357.54980469 C-190.19076538 359.11069824 -190.19076538 359.11069824 -189.35546875 360.703125 C-188.86175781 361.6209375 -188.36804688 362.53875 -187.859375 363.484375 C-186.62624858 366.62816982 -186.4515174 368.85321045 -186.79296875 372.203125 C-189.40086703 375.83837715 -190.86320455 377.03709568 -195.29296875 377.828125 C-199.51773032 377.07370329 -201.22225809 375.44641087 -203.79296875 372.203125 C-205.71416548 369.23595159 -207.35934972 366.15512644 -208.98046875 363.015625 C-209.45315186 362.10288818 -209.92583496 361.19015137 -210.4128418 360.24975586 C-225.68423668 329.9790792 -235.73585356 295.28143244 -236.03125 261.2109375 C-236.04104385 260.27548096 -236.05083771 259.34002441 -236.06092834 258.3762207 C-236.23040775 237.98722576 -236.14773798 218.21716714 -231.79296875 198.203125 C-231.47150879 196.67969482 -231.47150879 196.67969482 -231.14355469 195.12548828 C-219.3423015 140.4910112 -187.89182336 87.10057359 -142.79296875 53.203125 C-142.1676123 52.72842773 -141.54225586 52.25373047 -140.89794922 51.76464844 C-100.55314472 21.29033548 -51.19282374 0.26889831 0 0 Z " fill="#FFFFFF" transform="translate(243.79296875,7.796875)"/>
<path d="M0 0 C4.22476157 0.75442171 5.92928934 2.38171413 8.5 5.625 C10.42119673 8.59217341 12.06638097 11.67299856 13.6875 14.8125 C14.16018311 15.72523682 14.63286621 16.63797363 15.11987305 17.57836914 C30.53501969 48.13398787 40.52253283 83.03685589 40.703125 117.41796875 C40.71018463 118.31841919 40.71724426 119.21886963 40.72451782 120.14660645 C40.9538424 157.98068106 40.9538424 157.98068106 37.5 174.625 C37.19400879 176.11555908 37.19400879 176.11555908 36.88183594 177.63623047 C22.81955606 244.13014047 -15.60060595 301.58765087 -72.50244141 338.93945312 C-76.75734415 341.64063009 -81.10826953 344.15443745 -85.5 346.625 C-86.12600098 346.98513184 -86.75200195 347.34526367 -87.39697266 347.71630859 C-119.65095552 366.18319911 -158.03449767 377.63320124 -195.328125 377.828125 C-196.23144562 377.83513931 -197.13476624 377.84215363 -198.06546021 377.84938049 C-200.96035819 377.86677133 -203.85505171 377.87323161 -206.75 377.875 C-208.23297577 377.87601212 -208.23297577 377.87601212 -209.74591064 377.87704468 C-223.8766834 377.8616973 -237.62519124 377.54262612 -251.5 374.625 C-252.4075 374.44275879 -253.315 374.26051758 -254.25 374.07275391 C-266.22741936 371.63780639 -277.94328238 368.60098989 -289.5 364.625 C-290.43706787 364.30692383 -290.43706787 364.30692383 -291.39306641 363.98242188 C-312.92413574 356.59782169 -333.10104714 346.00387303 -351.5 332.625 C-351.17515625 333.75035156 -351.17515625 333.75035156 -350.84375 334.8984375 C-347.21931697 348.22158485 -347.21931697 348.22158485 -348.5 354.625 C-351.04127833 357.76422618 -352.54772399 358.46628733 -356.5 359.125 C-360.43320343 358.4694661 -361.7113504 357.50863747 -364.5 354.625 C-365.99286829 351.31347146 -366.91949469 347.88375058 -367.8671875 344.3828125 C-368.15103302 343.38168427 -368.43487854 342.38055603 -368.72732544 341.34909058 C-369.32228696 339.23497324 -369.90843185 337.11835745 -370.48632812 334.99951172 C-371.37163058 331.7623206 -372.28896212 328.53550759 -373.2109375 325.30859375 C-373.7857848 323.25053828 -374.3587645 321.19196006 -374.9296875 319.1328125 C-375.20352264 318.17013458 -375.47735779 317.20745667 -375.75949097 316.21560669 C-377.06339332 311.36967555 -378.00517494 307.57760636 -376.5 302.625 C-374.58268479 300.09762996 -373.58494591 299.6533153 -370.5 298.625 C-368.70629923 298.47493013 -366.90805613 298.37663498 -365.109375 298.30859375 C-364.01761963 298.26629639 -362.92586426 298.22399902 -361.80102539 298.18041992 C-355.7010431 297.97785605 -349.60110779 297.79044277 -343.5 297.625 C-341.78804443 297.57182617 -341.78804443 297.57182617 -340.04150391 297.51757812 C-336.88181344 297.42603351 -333.72306812 297.36394754 -330.5625 297.3125 C-329.60504883 297.282771 -328.64759766 297.25304199 -327.66113281 297.22241211 C-321.13267936 297.16609145 -321.13267936 297.16609145 -317.92578125 299.4921875 C-316.24509231 302.00631397 -315.64758451 303.5995175 -315.5 306.625 C-316.2293013 309.68806546 -316.98104238 311.18156636 -319.37890625 313.23046875 C-324.08841629 315.33471792 -328.70750037 315.19818459 -333.8125 315.3125 C-334.83923828 315.34666016 -335.86597656 315.38082031 -336.92382812 315.41601562 C-339.44910963 315.49823409 -341.9740554 315.56746936 -344.5 315.625 C-291.47145675 351.86859819 -229.99899159 368.22246324 -166.0625 356.875 C-123.07010021 348.62436764 -85.33932179 329.29441101 -52.5 300.625 C-51.9951709 300.18478516 -51.4903418 299.74457031 -50.97021484 299.29101562 C-45.01222758 294.06532768 -39.57346602 288.70247824 -34.5 282.625 C-33.69175781 281.71621094 -32.88351562 280.80742187 -32.05078125 279.87109375 C-20.24585996 266.50962091 -10.74011709 251.40267545 -2.5 235.625 C-2.13310059 234.92922852 -1.76620117 234.23345703 -1.38818359 233.51660156 C15.25099272 201.53649416 22.95533434 166.18381196 22.875 130.3125 C22.87445618 129.39424438 22.87391235 128.47598877 22.87335205 127.52990723 C22.80985227 104.10814185 19.63556677 81.98695217 12.5 59.625 C12.2220459 58.74602051 11.9440918 57.86704102 11.65771484 56.96142578 C7.5067011 44.1146125 2.06531084 32.19191047 -4.28344727 20.27832031 C-4.82928467 19.23772461 -5.37512207 18.19712891 -5.9375 17.125 C-6.67806641 15.74828125 -6.67806641 15.74828125 -7.43359375 14.34375 C-8.66672017 11.19995518 -8.84145135 8.97491455 -8.5 5.625 C-5.89210172 1.98974785 -4.4297642 0.79102932 0 0 Z " fill="#FFFFFF" transform="translate(463.5,126.375)"/>
<path d="M0 0 C11.87828019 9.09747351 22.87611404 21.9889668 25.45703125 37.2421875 C25.16726311 41.73359365 24.14973174 43.75410123 21.20703125 47.1171875 C18.78359679 48.32890473 17.22910217 48.2535744 14.52043152 48.27108765 C13.03784096 48.28398834 13.03784096 48.28398834 11.52529907 48.29714966 C10.4369577 48.30140961 9.34861633 48.30566956 8.22729492 48.31005859 C7.08411301 48.31823608 5.94093109 48.32641357 4.7631073 48.33483887 C0.96707693 48.3597216 -2.82891601 48.3762153 -6.625 48.390625 C-7.91876745 48.39594868 -9.2125349 48.40127235 -10.54550743 48.40675735 C-15.98167859 48.42799202 -21.41783753 48.44712216 -26.85403919 48.45837975 C-34.64446767 48.47461878 -42.43439737 48.5077951 -50.22463781 48.56478059 C-56.36277007 48.60814984 -62.50070666 48.62412471 -68.63898277 48.63051224 C-71.25013468 48.63724241 -73.86127883 48.65250986 -76.47233009 48.67640305 C-80.12362489 48.70791179 -83.77365459 48.70811212 -87.42504883 48.70068359 C-89.04845184 48.7252916 -89.04845184 48.7252916 -90.70465088 48.75039673 C-98.04633688 48.68913226 -98.04633688 48.68913226 -101.94096375 45.70571899 C-104.6641641 41.89952524 -105.15529897 39.79088585 -104.5390625 35.06640625 C-100.36382526 18.56219622 -88.96930622 6.1296736 -75.0625 -2.9765625 C-51.40286282 -16.77095073 -22.55382357 -15.20411603 0 0 Z " fill="#FFFFFF" transform="translate(295.79296875,189.8828125)"/>
<path d="M0 0 C9.36308968 7.34600486 18.83638364 17.15903528 21.484375 29.203125 C21.74389218 32.98054178 20.99575288 35.50128273 18.75 38.4375 C14.37968954 42.50983475 10.4263619 42.14369988 4.66113281 42.11352539 C3.56297997 42.11374443 3.56297997 42.11374443 2.44264221 42.1139679 C0.02943938 42.11327276 -2.3836857 42.10549908 -4.796875 42.09765625 C-6.47267617 42.09579065 -8.14847788 42.09436742 -9.82427979 42.09336853 C-14.23013826 42.08955452 -18.63596366 42.07973376 -23.04180908 42.06866455 C-27.53958692 42.05842643 -32.03737011 42.05386576 -36.53515625 42.04882812 C-45.35678535 42.0381105 -54.17838992 42.02104747 -63 42 C-63.22368759 41.45258148 -63.44737518 40.90516296 -63.67784119 40.34115601 C-64.7050656 37.83693129 -65.74111702 35.3364498 -66.77734375 32.8359375 C-67.30491272 31.54417603 -67.30491272 31.54417603 -67.84313965 30.22631836 C-70.04753812 24.92813874 -72.40608611 20.25750527 -76.06640625 15.7890625 C-77 14 -77 14 -76.8203125 11.48046875 C-74.27489574 3.78361332 -65.69211231 -0.6011795 -58.88671875 -4.19921875 C-40.12407996 -13.3730185 -17.20632553 -11.99389925 0 0 Z " fill="#FFFFFF" transform="translate(399,183)"/>
<path d="M0 0 C6.75507503 5.74372199 6.75507503 5.74372199 8.07421875 9.3203125 C8.15714562 12.4032409 7.47188488 13.32969849 5.578125 15.7265625 C0.32520642 23.01207894 -2.54496773 31.50128323 -5.859375 39.7890625 C-15.55179092 39.83542336 -25.24416861 39.87095078 -34.93667126 39.89268684 C-39.43739428 39.90311958 -43.93804138 39.9172695 -48.4387207 39.93994141 C-52.78293414 39.96168792 -57.1270746 39.97363497 -61.47133827 39.97881699 C-63.12791403 39.98250949 -64.78448585 39.98972002 -66.4410305 40.00052261 C-68.76310198 40.01506162 -71.08487268 40.01703944 -73.40698242 40.01611328 C-74.09031143 40.02330383 -74.77364044 40.03049438 -75.47767639 40.03790283 C-80.74207544 40.01521468 -84.26746847 39.25189553 -88.171875 35.6640625 C-90.41146314 31.84846789 -90.7524492 29.02940694 -89.859375 24.7890625 C-84.68320898 9.97307311 -73.19072877 -0.73526807 -59.296875 -7.44921875 C-39.47850117 -15.96492625 -17.05531175 -13.18757712 0 0 Z " fill="#FFFFFF" transform="translate(181.859375,185.2109375)"/>
<path d="M0 0 C7.08001818 4.8892201 13.20156333 12.03743987 14.8203125 20.6796875 C15.86380322 32.91815895 14.51008864 43.05748878 6.56640625 52.86328125 C-0.4472982 60.15941676 -9.242238 63.4710424 -19.296875 63.7734375 C-29.2030798 63.26930494 -38.06639316 59.71810506 -45.1796875 52.6796875 C-52.64835838 42.51169655 -54.10854213 32.95986954 -53.1796875 20.6796875 C-51.52656742 12.40299234 -46.42884774 6.161066 -40.1796875 0.6796875 C-27.48356762 -7.42500982 -12.94529826 -7.84141723 0 0 Z " fill="#FFFFFF" transform="translate(275.1796875,105.3203125)"/>
<path d="M0 0 C29.04 0 58.08 0 88 0 C88 13.00342175 84.85372916 22.32923207 76 32 C66.16707333 40.86453238 55.22810041 45.11917208 42 45 C29.79846151 44.25426228 18.1973842 39.22205723 10 30 C2.49750314 20.16809888 0 12.33654864 0 0 Z " fill="#FFFFFF" transform="translate(212,265)"/>
<path d="M0 0 C5.56626189 4.33468117 9.62834621 10.74276857 10.92578125 17.71484375 C11.80317712 27.52441726 10.34275493 35.63743904 4.23828125 43.52734375 C-0.7766329 48.92507577 -7.42265386 52.29879469 -14.73828125 52.953125 C-25.09268404 53.21266808 -32.7614512 50.80789811 -40.3828125 43.6484375 C-46.2353773 36.95786111 -47.44624924 29.5203471 -47.3515625 20.8828125 C-46.72886177 13.76999149 -43.7651645 7.4805199 -38.91796875 2.25 C-27.4189845 -7.32436612 -12.5654017 -7.78534305 0 0 Z " fill="#FFFFFF" transform="translate(164.07421875,111.28515625)"/>
<path d="M0 0 C5.56626189 4.33468117 9.62834621 10.74276857 10.92578125 17.71484375 C11.80317712 27.52441726 10.34275493 35.63743904 4.23828125 43.52734375 C-0.7766329 48.92507577 -7.42265386 52.29879469 -14.73828125 52.953125 C-24.39393488 53.19515326 -32.33427517 51.185997 -39.5390625 44.4921875 C-45.73117025 37.32320779 -47.44575793 30.14135978 -47.35546875 20.88671875 C-46.68428999 13.31731388 -43.46183216 6.9800114 -38.07421875 1.71484375 C-26.3187881 -7.18853094 -12.57785228 -7.79305725 0 0 Z " fill="#FFFFFF" transform="translate(384.07421875,111.28515625)"/>
</svg>
