<?xml version="1.0" encoding="UTF-8"?>
<svg version="1.1" xmlns="http://www.w3.org/2000/svg" width="512" height="512">
<path d="M0 0 C11.82777855 8.2043246 19.67259452 19.93071715 22.76171875 34.05078125 C24.28706282 51.35344279 20.51071564 64.07303565 10.51171875 78.23828125 C1.69260762 87.25782672 -7.9739411 91.59791322 -20.23828125 94.05078125 C-20.23828125 123.09078125 -20.23828125 152.13078125 -20.23828125 182.05078125 C-16.60828125 182.71078125 -12.97828125 183.37078125 -9.23828125 184.05078125 C-6.23789234 185.18329355 -3.43097411 186.31453736 -0.55078125 187.67578125 C0.16271484 188.000625 0.87621094 188.32546875 1.61132812 188.66015625 C3.33321065 189.44598183 5.04827137 190.24672941 6.76171875 191.05078125 C16.5986754 180.62762853 16.5986754 180.62762853 26.1328125 169.9296875 C29.61332051 165.9150008 33.20145352 161.99464408 36.76171875 158.05078125 C38.26200554 156.38437274 39.76200747 154.71770772 41.26171875 153.05078125 C59.26171875 133.05078125 59.26171875 133.05078125 77.26171875 113.05078125 C77.99519531 112.23222656 78.72867187 111.41367188 79.484375 110.5703125 C81.06135203 108.82562951 82.653611 107.09468393 84.2578125 105.375 C85.06347656 104.50488281 85.86914062 103.63476562 86.69921875 102.73828125 C87.43011719 101.95839844 88.16101563 101.17851563 88.9140625 100.375 C90.87425982 97.90921267 92.05156005 96.12653615 92.76171875 93.05078125 C91.80382825 90.59456069 91.80382825 90.59456069 90.07421875 88.30078125 C82.84950797 77.23278825 81.34650428 64.86133583 83.22265625 51.85546875 C86.31624608 37.91611694 94.21173891 26.24854766 106.01171875 18.17578125 C118.63166155 10.79232924 132.15441845 9.1335259 146.4140625 11.7109375 C160.0542501 15.45752886 170.84124353 23.7468628 178.41015625 35.5859375 C185.57112035 48.64538358 186.85943496 63.89068895 182.8046875 78.16796875 C177.87999669 91.78003547 169.28516141 101.08025301 156.76171875 108.05078125 C142.94351201 114.08384998 130.11124604 114.06463504 115.76171875 110.05078125 C113.22265625 108.92578125 113.22265625 108.92578125 111.13671875 107.80078125 C108.11710028 105.89210825 108.11710028 105.89210825 105.8828125 106.09375 C102.68993615 107.5343664 100.70648905 110.0205555 98.44921875 112.61328125 C97.96066406 113.16048828 97.47210938 113.70769531 96.96875 114.27148438 C95.55716163 115.85672052 94.15735253 117.45149726 92.76171875 119.05078125 C92.13910156 119.76105469 91.51648438 120.47132812 90.875 121.203125 C89.79327182 122.44200497 88.71386735 123.68291748 87.63671875 124.92578125 C84.74320866 128.20509268 81.77083516 131.41184837 78.80859375 134.62890625 C76.25616732 137.40572182 73.73188587 140.20058842 71.26171875 143.05078125 C68.3232781 146.44128969 65.30055573 149.75045107 62.26171875 153.05078125 C58.61754935 157.00937848 55.02258096 161.00254957 51.49609375 165.06640625 C47.96671161 169.10452816 44.35537649 173.06992806 40.76171875 177.05078125 C38.516788 179.54428565 36.27271378 182.03853459 34.03125 184.53515625 C32.4741189 186.26113289 30.90854449 187.97951844 29.3359375 189.69140625 C25.42746963 193.96449387 21.7642758 198.09003482 18.76171875 203.05078125 C19.1484375 203.60765625 19.53515625 204.16453125 19.93359375 204.73828125 C30.40605581 220.08406724 34.47888096 235.85570974 31.35595703 254.46923828 C30.42052087 258.75090525 29.18823278 262.90497485 27.76171875 267.05078125 C28.33277344 267.37127441 28.90382813 267.69176758 29.4921875 268.02197266 C41.52864403 274.78410751 53.51164937 281.62720359 65.42382812 288.60595703 C73.17359059 293.13994186 80.96051977 297.60621131 88.76171875 302.05078125 C98.47564068 307.58624251 108.15559558 313.17647468 117.80664062 318.82104492 C127.43831356 324.45262184 137.09142263 330.04623887 146.76953125 335.59765625 C150.47173359 337.72223551 154.15452923 339.87311755 157.81640625 342.06640625 C158.55826172 342.50364014 159.30011719 342.94087402 160.06445312 343.39135742 C161.39889497 344.17821904 162.7264103 344.97700988 164.04492188 345.7902832 C167.28630101 347.74171311 167.28630101 347.74171311 170.91796875 347.50390625 C173.02220673 345.8454814 174.95822177 344.09917409 176.88671875 342.23828125 C186.19348368 333.88489224 198.92683577 329.14101235 211.58203125 329.765625 C226.10655737 331.66578702 239.220849 336.21068527 248.9609375 347.62890625 C259.04115716 360.96982543 262.63870082 374.46825643 260.33203125 391.16015625 C257.24169109 405.58174369 249.34607469 417.32695858 237.01171875 425.36328125 C223.63856688 432.72671917 208.56612913 434.53748612 193.82421875 430.48828125 C180.18416197 425.60331766 170.22981281 416.93088764 163.76171875 404.05078125 C157.6959589 389.65908989 157.6211502 377.10963471 161.76171875 362.05078125 C160.68700317 361.64702271 160.68700317 361.64702271 159.59057617 361.23510742 C156.73891082 360.04123251 154.17085645 358.65622582 151.5 357.1015625 C150.47712891 356.50859375 149.45425781 355.915625 148.40039062 355.3046875 C147.30275391 354.66402344 146.20511719 354.02335937 145.07421875 353.36328125 C143.91231527 352.68844745 142.75020204 352.01397469 141.58789062 351.33984375 C139.17447835 349.93971036 136.76197415 348.53803106 134.35009766 347.13525391 C128.82904804 343.92586857 123.29470274 340.73953062 117.76171875 337.55078125 C115.59498966 336.30088945 113.42832319 335.0508891 111.26171875 333.80078125 C110.18921875 333.18203125 109.11671875 332.56328125 108.01171875 331.92578125 C72.26171875 311.30078125 72.26171875 311.30078125 69.00708008 309.4230957 C66.85588651 308.18202871 64.7046822 306.94098032 62.5534668 305.69995117 C57.50208876 302.78579781 52.45081565 299.87146307 47.39993286 296.95645142 C45.61104957 295.92404647 43.82213158 294.89170169 42.03320312 293.859375 C39.78834239 292.56392177 37.54354685 291.26835555 35.29882812 289.97265625 C33.31670238 288.82888045 31.33384968 287.68636302 29.35009766 286.54541016 C27.74376126 285.61785013 26.14111416 284.68383051 24.54443359 283.73974609 C21.36888571 281.71291399 21.36888571 281.71291399 17.76171875 281.05078125 C16.95734375 282.06140625 16.15296875 283.07203125 15.32421875 284.11328125 C6.5516318 294.62764091 -7.08127106 299.58889123 -20.23828125 301.05078125 C-20.23828125 335.04078125 -20.23828125 369.03078125 -20.23828125 404.05078125 C-14.29828125 405.53578125 -14.29828125 405.53578125 -8.23828125 407.05078125 C5.24205019 412.69260813 13.91496823 421.99608822 19.63671875 435.36328125 C24.37689079 447.11953574 24.67722169 461.53745862 20.02734375 473.375 C17.91706522 477.83654565 15.56795153 481.99024746 12.76171875 486.05078125 C12.33375 486.67597656 11.90578125 487.30117188 11.46484375 487.9453125 C4.70465568 496.7534399 -6.3745983 503.16349648 -17.23828125 505.05078125 C-33.81336632 506.57211666 -47.82101103 504.54687402 -61.23828125 494.05078125 C-71.88916002 484.3574736 -77.61844634 472.31778877 -79.23828125 458.05078125 C-79.62966297 443.11304543 -75.08830873 429.67628804 -64.984375 418.57421875 C-56.04210698 409.99078974 -47.35398803 406.47392261 -35.23828125 404.05078125 C-35.23828125 370.06078125 -35.23828125 336.07078125 -35.23828125 301.05078125 C-38.53828125 300.72078125 -41.83828125 300.39078125 -45.23828125 300.05078125 C-48.69921875 298.89453125 -48.69921875 298.89453125 -51.61328125 297.55078125 C-54.81484758 296.09782766 -57.7893901 294.7699813 -61.23828125 294.05078125 C-62.02138672 295.01564453 -62.02138672 295.01564453 -62.8203125 296 C-67.0777226 301.22669786 -71.37299299 306.41411059 -75.73828125 311.55078125 C-79.85458349 316.39478819 -83.9003929 321.28978191 -87.91015625 326.22265625 C-90.56542008 329.44817809 -93.27542886 332.62375087 -95.98828125 335.80078125 C-99.63398745 340.07654765 -103.09488846 344.38988849 -106.23828125 349.05078125 C-105.779375 349.71722656 -105.32046875 350.38367188 -104.84765625 351.0703125 C-96.35397533 363.82867774 -92.35623963 376.70586416 -94.69921875 392.07421875 C-97.97950615 406.77762462 -104.93586491 417.58707645 -117.16015625 426.1875 C-129.7243194 433.79296424 -144.02716334 436.09914068 -158.36328125 432.92578125 C-172.38907125 428.93950409 -183.3962155 420.26045171 -190.8359375 407.76171875 C-197.17531753 395.50676125 -198.39693239 380.43834557 -194.67578125 367.17578125 C-189.72062756 353.24919139 -180.46383902 342.60214114 -167.23828125 336.05078125 C-152.8299024 330.19594794 -138.65347296 330.66963339 -124.23828125 336.05078125 C-122.24014341 336.7230086 -120.24064523 337.3912489 -118.23828125 338.05078125 C-117.45517578 337.08591797 -117.45517578 337.08591797 -116.65625 336.1015625 C-112.3988399 330.87486464 -108.10356951 325.68745191 -103.73828125 320.55078125 C-100.36547941 316.58171519 -97.02651588 312.59061236 -93.73828125 308.55078125 C-89.49733059 303.34112423 -85.16606517 298.21251652 -80.81640625 293.09375 C-78.27380411 290.09270899 -75.75230753 287.07575172 -73.23828125 284.05078125 C-74.88342341 280.51457362 -76.97832345 277.37211307 -79.11328125 274.11328125 C-83.49250268 267.21778927 -87.23828125 259.3655118 -87.23828125 251.05078125 C-108.02828125 251.05078125 -128.81828125 251.05078125 -150.23828125 251.05078125 C-150.56828125 254.02078125 -150.89828125 256.99078125 -151.23828125 260.05078125 C-156.26468749 273.57108558 -164.41739242 283.35330201 -177.23828125 290.05078125 C-190.90759837 295.9603809 -205.03230835 297.15333478 -219.23828125 292.05078125 C-233.55342922 285.90727896 -242.62990898 275.93994641 -248.55078125 261.73828125 C-253.43665908 249.26589271 -252.4176105 235.22297343 -247.23828125 223.05078125 C-240.28549666 208.1493225 -229.00782228 199.70180107 -213.8359375 194.17578125 C-201.08903913 190.75761856 -187.16590834 192.81779286 -175.55078125 198.73828125 C-162.60439779 206.33846032 -154.05207106 217.43520168 -150.23828125 232.05078125 C-150.23828125 233.37078125 -150.23828125 234.69078125 -150.23828125 236.05078125 C-129.44828125 236.05078125 -108.65828125 236.05078125 -87.23828125 236.05078125 C-87.23828125 233.74078125 -87.23828125 231.43078125 -87.23828125 229.05078125 C-83.39230519 212.59258202 -73.7565382 199.20348579 -59.6484375 189.99609375 C-51.60003746 185.40491022 -44.44447836 183.20155589 -35.23828125 182.05078125 C-35.23828125 153.01078125 -35.23828125 123.97078125 -35.23828125 94.05078125 C-38.53828125 93.39078125 -41.83828125 92.73078125 -45.23828125 92.05078125 C-59.17842582 87.0370719 -68.91420505 77.25906612 -75.23828125 64.05078125 C-75.76035156 62.96216797 -75.76035156 62.96216797 -76.29296875 61.8515625 C-81.23787616 49.48929397 -79.89317791 35.23603706 -75.23828125 23.05078125 C-69.22669437 9.8738686 -59.66365118 0.35265122 -45.98828125 -4.79638672 C-30.59666756 -9.86560745 -13.85509579 -8.33979831 0 0 Z M-51.46875 15.8046875 C-58.6453893 22.46967146 -63.32176678 31.23098334 -64.23828125 41.05078125 C-64.37664761 52.81192145 -60.70107274 61.3976285 -52.60546875 69.8515625 C-44.12419385 77.73103076 -35.41751129 79.54399395 -23.96484375 79.36328125 C-14.63127176 78.58059178 -6.93600156 73.99861167 -0.55078125 67.2734375 C6.14526492 59.08752105 8.55874677 50.02807515 8.203125 39.54296875 C6.95615104 29.67752872 2.25337439 21.51793698 -5.23828125 15.05078125 C-19.68757109 4.56884712 -37.44227154 4.77510987 -51.46875 15.8046875 Z M104.59375 40.609375 C98.61667347 48.57456227 97.00574431 57.28016821 97.76171875 67.05078125 C99.54390334 77.59673591 105.55010597 86.34392278 114.171875 92.578125 C124.09838155 98.22260912 133.4114608 99.36917384 144.19921875 96.48828125 C154.39441537 93.12528236 161.74809244 86.65306167 166.7578125 77.1640625 C170.66979182 68.53524687 171.11795259 59.16718089 168.01171875 50.23828125 C163.73071073 39.72221624 157.28814317 32.84445082 147.09375 27.99609375 C131.01426327 21.47811085 115.29996512 28.18361481 104.59375 40.609375 Z M-64.484375 214.59765625 C-71.26108691 224.07599719 -74.35056292 235.47610007 -73.23828125 247.05078125 C-70.77696318 260.47265637 -64.76909361 270.41741256 -54.23828125 279.05078125 C-43.47839609 285.91791815 -31.63477174 289.04569359 -19 286.36328125 C-6.17057653 282.74511247 3.8448283 276.5233578 11.01171875 265.17578125 C11.95668057 263.48293521 12.8754078 261.77505891 13.76171875 260.05078125 C14.10460937 259.38820313 14.4475 258.725625 14.80078125 258.04296875 C18.62037002 248.94021048 18.24161778 236.14471501 15.07421875 226.92578125 C13.07954469 222.33943561 10.66741904 218.11696246 7.76171875 214.05078125 C6.70984375 212.53484375 6.70984375 212.53484375 5.63671875 210.98828125 C-1.33198167 202.99605296 -12.79326562 197.44925118 -23.2890625 196.671875 C-40.10003317 195.96109967 -53.52768729 201.58243934 -64.484375 214.59765625 Z M-228.05078125 220.86328125 C-235.19132724 229.49489253 -237.18064328 239.07425447 -236.23828125 250.05078125 C-233.84079909 260.39420429 -228.02885512 269.05397276 -219.23828125 275.05078125 C-210.2702519 279.80839682 -201.37532084 281.70506195 -191.2890625 279.3671875 C-181.49170742 276.07407373 -172.98815527 270.01141003 -168.015625 260.78125 C-163.56616102 251.16466656 -162.78766751 241.63126527 -166.203125 231.49609375 C-170.12703672 222.22677777 -176.7663861 214.9207501 -185.92578125 210.67578125 C-201.33207361 204.54470572 -216.84448072 208.89399856 -228.05078125 220.86328125 Z M181.76171875 358.05078125 C175.69272562 365.61343849 173.11974639 374.61411527 173.40625 384.24609375 C174.76672006 394.980352 180.42081938 404.28661144 188.76171875 411.05078125 C198.70574898 417.01107056 208.23127587 418.68827223 219.7734375 416.47265625 C229.22017506 413.50791693 236.99505761 406.7103901 241.80078125 398.0703125 C246.45597965 388.28682643 247.32564865 378.84178982 243.80078125 368.46484375 C239.74672271 359.04601601 233.14853065 352.17836818 223.87109375 347.86328125 C208.3228038 341.87431031 193.08655403 346.16699487 181.76171875 358.05078125 Z M-173.6328125 360.12890625 C-179.76678489 367.4717637 -181.73851128 376.5392797 -181.55078125 385.92578125 C-180.52135284 396.22006534 -175.37898832 404.32743175 -167.98828125 411.30078125 C-161.32043959 416.73877656 -152.23239342 419.48604329 -143.671875 419.32421875 C-132.87836463 418.11146478 -124.34423897 413.89470943 -117.23828125 405.76171875 C-111.08163126 397.68111564 -107.96278316 388.23705069 -109.23828125 378.05078125 C-111.31242625 367.14423545 -117.1415335 358.40694801 -126.23828125 352.05078125 C-143.16468026 342.87650568 -160.37307247 346.43010198 -173.6328125 360.12890625 Z M-56.23828125 432.05078125 C-62.14710651 439.20356972 -64.66090318 447.89596465 -64.17578125 457.11328125 C-62.79394267 468.15374415 -58.38381071 475.49570203 -50.23828125 483.05078125 C-41.03735595 490.18108089 -31.48858767 490.93315822 -20.23828125 490.05078125 C-10.8565844 487.88955266 -2.98821292 482.10396081 2.44140625 474.2265625 C7.76682125 465.45065671 8.96612294 457.2828876 7.76171875 447.05078125 C5.32387097 437.52407654 0.20459164 429.62408007 -8.05859375 424.19921875 C-25.33222166 414.47992411 -42.83574178 417.69432438 -56.23828125 432.05078125 Z " fill="#000000" transform="translate(251.23828125,6.94921875)"/>
</svg>
