<?xml version="1.0" encoding="UTF-8"?>
<svg version="1.1" xmlns="http://www.w3.org/2000/svg" width="512" height="512">
<path d="M0 0 C9.54284397 6.87340521 13.49677034 14.25771999 17.58203125 25.4921875 C33.42203125 25.4921875 49.26203125 25.4921875 65.58203125 25.4921875 C66.90203125 21.8621875 68.22203125 18.2321875 69.58203125 14.4921875 C76.22871318 4.58732815 84.59675524 -3.09935632 96.58203125 -5.5078125 C108.99921209 -6.84585816 119.97093834 -5.78307624 130.33203125 1.6796875 C138.41726305 8.49211 144.64507142 16.79711826 145.80517578 27.56298828 C146.70074174 40.47429812 145.13474469 51.24265604 136.5546875 61.42578125 C128.42310232 69.943818 119.77400632 74.49468278 107.94677734 74.96289062 C95.43247449 75.11793051 85.80916302 72.30069703 76.58203125 63.4921875 C70.66854175 57.29766088 68.63040195 51.87520693 65.58203125 43.4921875 C49.74203125 43.4921875 33.90203125 43.4921875 17.58203125 43.4921875 C16.26203125 47.1221875 14.94203125 50.7521875 13.58203125 54.4921875 C6.93534932 64.39704685 -1.43269274 72.08373132 -13.41796875 74.4921875 C-25.83514959 75.83023316 -36.80687584 74.76745124 -47.16796875 67.3046875 C-55.1787652 60.55498244 -59.31886932 53.41802656 -62.41796875 43.4921875 C-66.27688986 42.78413669 -69.57792937 42.59683822 -73.41796875 43.4921875 C-76.89563769 46.66247689 -78.95592493 50.53217705 -81.23046875 54.6171875 C-82.24627467 56.32476793 -83.26212305 58.03232634 -84.28144836 59.73780823 C-85.32190583 61.48972893 -86.34476509 63.25110099 -87.36621094 65.01416016 C-90.50868656 70.39567306 -93.95327019 75.58530008 -97.35546875 80.8046875 C-98.51674204 82.58834563 -99.67221933 84.37579854 -100.8203125 86.16796875 C-101.29976318 86.90958252 -101.77921387 87.65119629 -102.27319336 88.4152832 C-103.41762001 90.49155481 -104.098529 92.1449332 -104.41796875 94.4921875 C-103.10011662 96.85605761 -103.10011662 96.85605761 -101.16796875 99.1796875 C-97.29093598 104.07404085 -96.61565678 106.89912341 -94.41796875 113.4921875 C-68.01796875 113.4921875 -41.61796875 113.4921875 -14.41796875 113.4921875 C-12.43796875 108.0471875 -12.43796875 108.0471875 -10.41796875 102.4921875 C-3.77128682 92.58732815 4.59675524 84.90064368 16.58203125 82.4921875 C28.99921209 81.15414184 39.97093834 82.21692376 50.33203125 89.6796875 C58.41726305 96.49211 64.64507142 104.79711826 65.80517578 115.56298828 C66.70074174 128.47429812 65.13474469 139.24265604 56.5546875 149.42578125 C48.42310232 157.943818 39.77400632 162.49468278 27.94677734 162.96289062 C15.43247449 163.11793051 5.80916302 160.30069703 -3.41796875 151.4921875 C-9.33145825 145.29766088 -11.36959805 139.87520693 -14.41796875 131.4921875 C-40.81796875 131.4921875 -67.21796875 131.4921875 -94.41796875 131.4921875 C-95.73796875 135.1221875 -97.05796875 138.7521875 -98.41796875 142.4921875 C-105.06465068 152.39704685 -113.43269274 160.08373132 -125.41796875 162.4921875 C-137.83514959 163.83023316 -148.80687584 162.76745124 -159.16796875 155.3046875 C-167.1787652 148.55498244 -171.31886932 141.41802656 -174.41796875 131.4921875 C-178.27688986 130.78413669 -181.57792937 130.59683822 -185.41796875 131.4921875 C-188.89563769 134.66247689 -190.95592493 138.53217705 -193.23046875 142.6171875 C-194.24627467 144.32476793 -195.26212305 146.03232634 -196.28144836 147.73780823 C-197.32190583 149.48972893 -198.34476509 151.25110099 -199.36621094 153.01416016 C-202.50868656 158.39567306 -205.95327019 163.58530008 -209.35546875 168.8046875 C-210.51674204 170.58834563 -211.67221933 172.37579854 -212.8203125 174.16796875 C-213.29976318 174.90958252 -213.77921387 175.65119629 -214.27319336 176.4152832 C-215.41762001 178.49155481 -216.098529 180.1449332 -216.41796875 182.4921875 C-215.10011662 184.85605761 -215.10011662 184.85605761 -213.16796875 187.1796875 C-209.29093598 192.07404085 -208.61565678 194.89912341 -206.41796875 201.4921875 C-172.09796875 201.4921875 -137.77796875 201.4921875 -102.41796875 201.4921875 C-101.09796875 197.8621875 -99.77796875 194.2321875 -98.41796875 190.4921875 C-91.77128682 180.58732815 -83.40324476 172.90064368 -71.41796875 170.4921875 C-59.00078791 169.15414184 -48.02906166 170.21692376 -37.66796875 177.6796875 C-29.47279291 184.58474621 -26.19115757 191.11591823 -22.41796875 201.4921875 C6.62203125 201.4921875 35.66203125 201.4921875 65.58203125 201.4921875 C66.90203125 197.8621875 68.22203125 194.2321875 69.58203125 190.4921875 C76.22871318 180.58732815 84.59675524 172.90064368 96.58203125 170.4921875 C108.99921209 169.15414184 119.97093834 170.21692376 130.33203125 177.6796875 C138.41726305 184.49211 144.64507142 192.79711826 145.80517578 203.56298828 C146.70074174 216.47429812 145.13474469 227.24265604 136.5546875 237.42578125 C128.42310232 245.943818 119.77400632 250.49468278 107.94677734 250.96289062 C95.43247449 251.11793051 85.80916302 248.30069703 76.58203125 239.4921875 C70.66854175 233.29766088 68.63040195 227.87520693 65.58203125 219.4921875 C36.54203125 219.4921875 7.50203125 219.4921875 -22.41796875 219.4921875 C-26.58884028 229.01130089 -26.58884028 229.01130089 -26.41796875 233.4921875 C-24.89662638 235.47995892 -24.89662638 235.47995892 -22.80957031 237.50463867 C-22.021651 238.30524216 -21.23373169 239.10584564 -20.42193604 239.93070984 C-19.55953308 240.79017715 -18.69713013 241.64964447 -17.80859375 242.53515625 C-16.93023865 243.4187532 -16.05188354 244.30235016 -15.14691162 245.21272278 C-13.28423419 247.08183356 -11.41867689 248.94745532 -9.54785156 250.80834961 C-7.15054858 253.19416424 -4.7694605 255.59545539 -2.39255142 258.00156689 C-0.12391875 260.29295392 2.15949254 262.56950674 4.44140625 264.84765625 C5.29571228 265.71319626 6.15001831 266.57873627 7.0302124 267.47050476 C7.83074036 268.26165176 8.63126831 269.05279877 9.45605469 269.86791992 C10.15776794 270.56946701 10.8594812 271.2710141 11.5824585 271.99382019 C13.69908613 273.89196339 13.69908613 273.89196339 17.58203125 273.4921875 C17.78957031 272.80253906 17.99710937 272.11289062 18.2109375 271.40234375 C22.10251786 259.53220953 29.00701318 251.23581452 39.96875 245.171875 C49.77456205 240.87713955 62.4945434 240.75701212 72.64453125 244.0546875 C83.19250788 248.67447512 91.39974363 256.88171087 96.01953125 267.4296875 C99.31720663 277.57967535 99.1970792 290.2996567 94.90234375 300.10546875 C89.30529002 310.22321972 80.99990234 318.21507326 69.8671875 321.83203125 C57.8882719 324.2392093 45.67081553 323.53624361 35.1640625 316.984375 C25.88904833 310.30387904 20.84780924 302.3443069 17.58203125 291.4921875 C16.421875 291.50572266 16.421875 291.50572266 15.23828125 291.51953125 C14.19671875 291.48988281 13.15515625 291.46023438 12.08203125 291.4296875 C10.550625 291.41228516 10.550625 291.41228516 8.98828125 291.39453125 C0.81648914 289.22975605 -5.69713885 280.34866606 -11.51171875 274.49609375 C-12.75991394 273.24577614 -12.75991394 273.24577614 -14.0333252 271.97019958 C-16.6639181 269.33405488 -19.29099316 266.69443645 -21.91796875 264.0546875 C-23.7120073 262.25562771 -25.5062759 260.4567973 -27.30078125 258.65820312 C-31.67584 254.27217938 -36.04802387 249.88330608 -40.41796875 245.4921875 C-41.02125 245.76933594 -41.62453125 246.04648437 -42.24609375 246.33203125 C-43.0453125 246.69425781 -43.84453125 247.05648437 -44.66796875 247.4296875 C-45.456875 247.78933594 -46.24578125 248.14898437 -47.05859375 248.51953125 C-55.90203919 252.16525627 -68.44557006 251.93276462 -77.48046875 248.9296875 C-86.58341703 244.94279132 -92.93745194 238.65923216 -98.41796875 230.4921875 C-100.39796875 225.0471875 -100.39796875 225.0471875 -102.41796875 219.4921875 C-136.73796875 219.4921875 -171.05796875 219.4921875 -206.41796875 219.4921875 C-207.73796875 223.1221875 -209.05796875 226.7521875 -210.41796875 230.4921875 C-213.79296875 234.8671875 -213.79296875 234.8671875 -215.44140625 236.640625 C-215.92480469 237.55714844 -215.92480469 237.55714844 -216.41796875 238.4921875 C-215.22946387 242.13367081 -213.46872806 245.22729418 -211.43359375 248.45703125 C-210.83514648 249.41222656 -210.23669922 250.36742187 -209.62011719 251.3515625 C-208.29723861 253.43746208 -206.97230414 255.52205897 -205.64550781 257.60546875 C-202.2151602 263.00086698 -198.86181967 268.40738703 -195.69921875 273.96484375 C-194.80734863 275.48573608 -194.80734863 275.48573608 -193.89746094 277.03735352 C-192.76706478 278.96863313 -191.66713917 280.91815984 -190.60253906 282.88647461 C-189.03386929 285.51251339 -187.75438984 287.51326421 -185.41796875 289.4921875 C-181.6220833 290.26221736 -178.23015798 290.07920628 -174.41796875 289.4921875 C-174.18319824 288.74026123 -173.94842773 287.98833496 -173.70654297 287.21362305 C-169.93192714 275.42092625 -162.86402783 267.1644755 -152.03125 261.171875 C-142.22543795 256.87713955 -129.5054566 256.75701212 -119.35546875 260.0546875 C-108.80749212 264.67447512 -100.60025637 272.88171087 -95.98046875 283.4296875 C-92.54588823 294.00105872 -92.9871325 306.31751957 -97.54296875 316.42578125 C-98.6129307 318.57860644 -98.6129307 318.57860644 -98.41796875 321.4921875 C-91.23185261 333.13371819 -76.95979515 349.68427711 -63.90893555 354.39849854 C-52.97256867 356.96543825 -41.34583238 355.47629682 -30.41796875 353.4921875 C-30.16619873 352.75323242 -29.91442871 352.01427734 -29.6550293 351.25292969 C-29.3125415 350.27485352 -28.97005371 349.29677734 -28.6171875 348.2890625 C-28.28291748 347.32323242 -27.94864746 346.35740234 -27.60424805 345.36230469 C-23.5763068 335.61699139 -15.01126304 328.22897106 -5.48046875 324.0546875 C4.6695191 320.75701212 17.38950045 320.87713955 27.1953125 325.171875 C37.31306347 330.76892873 45.30491701 339.07431641 48.921875 350.20703125 C51.32905305 362.18594685 50.62608736 374.40340322 44.07421875 384.91015625 C37.73378049 393.71304379 29.34772971 400.32880695 18.58203125 402.4921875 C6.16485041 403.83023316 -4.80687584 402.76745124 -15.16796875 395.3046875 C-21.43422486 390.02489031 -25.92178963 384.48331677 -28.6171875 376.6953125 C-28.95967529 375.71723633 -29.30216309 374.73916016 -29.6550293 373.73144531 C-30.03268433 372.6230127 -30.03268433 372.6230127 -30.41796875 371.4921875 C-31.70896484 371.49855225 -32.99996094 371.50491699 -34.33007812 371.51147461 C-39.14630114 371.5259673 -43.96133952 371.49446167 -48.77734375 371.44946289 C-50.85672971 371.43636974 -52.93623223 371.43554605 -55.015625 371.44750977 C-58.01547529 371.46259522 -61.01212957 371.43272553 -64.01171875 371.39453125 C-64.93287476 371.40878647 -65.85403076 371.42304169 -66.80310059 371.43772888 C-73.00726216 371.30035467 -76.14569841 369.83079072 -80.54675293 365.46824646 C-81.47300476 364.49009727 -81.47300476 364.49009727 -82.41796875 363.4921875 C-83.637098 362.3077041 -84.8577855 361.12482228 -86.08007812 359.94360352 C-87.30986196 358.71366487 -88.53700798 357.48108399 -89.76171875 356.24609375 C-90.7435614 355.26212868 -90.7435614 355.26212868 -91.74523926 354.25828552 C-93.80520698 352.19278605 -95.86164241 350.12381155 -97.91796875 348.0546875 C-99.32658925 346.64104316 -100.73544142 345.22762964 -102.14453125 343.81445312 C-105.57169008 340.37635601 -108.99568894 336.93514094 -112.41796875 333.4921875 C-113.02125 333.76933594 -113.62453125 334.04648437 -114.24609375 334.33203125 C-115.0453125 334.69425781 -115.84453125 335.05648438 -116.66796875 335.4296875 C-117.456875 335.78933594 -118.24578125 336.14898437 -119.05859375 336.51953125 C-127.90203919 340.16525627 -140.44557006 339.93276462 -149.48046875 336.9296875 C-159.19299753 332.67580813 -167.45811106 325.26132949 -171.73828125 315.47265625 C-172.7086912 312.82947669 -173.60670624 310.18799772 -174.41796875 307.4921875 C-174.99764404 307.48807861 -175.57731934 307.48396973 -176.17456055 307.47973633 C-178.81920984 307.44669473 -181.46158714 307.37604486 -184.10546875 307.3046875 C-185.47348633 307.29598633 -185.47348633 307.29598633 -186.86914062 307.28710938 C-191.04095907 307.15057713 -193.6519102 307.0216044 -197.13671875 304.61328125 C-200.4138294 300.12970007 -203.34615083 295.4860914 -206.23046875 290.7421875 C-207.55352832 288.59694091 -208.87778914 286.4524348 -210.203125 284.30859375 C-210.88906738 283.19629395 -211.57500977 282.08399414 -212.28173828 280.93798828 C-215.85981825 275.15309942 -219.51111373 269.41497737 -223.16796875 263.6796875 C-224.18661011 262.0704541 -224.18661011 262.0704541 -225.22583008 260.42871094 C-225.86157959 259.43258789 -226.4973291 258.43646484 -227.15234375 257.41015625 C-227.71147461 256.53125732 -228.27060547 255.6523584 -228.84667969 254.74682617 C-230.83736827 251.83213763 -230.83736827 251.83213763 -233.41796875 249.4921875 C-235.40772677 249.73905529 -235.40772677 249.73905529 -237.41796875 250.4921875 C-251.13121137 251.32123388 -262.40721209 250.68629105 -273.3515625 241.46484375 C-280.32783688 234.80507331 -282.99224621 228.91292447 -286.41796875 219.4921875 C-318.09796875 218.9971875 -318.09796875 218.9971875 -350.41796875 218.4921875 C-350.41796875 213.2121875 -350.41796875 207.9321875 -350.41796875 202.4921875 C-329.29796875 202.1621875 -308.17796875 201.8321875 -286.41796875 201.4921875 C-285.09796875 197.8621875 -283.77796875 194.2321875 -282.41796875 190.4921875 C-276.40006279 181.52432764 -269.1397811 174.59692734 -258.7265625 171.140625 C-250.21576877 169.47263001 -240.88449297 169.6647941 -232.41796875 171.4921875 C-231.89178955 170.66533447 -231.89178955 170.66533447 -231.35498047 169.82177734 C-230.85756348 169.04012207 -230.36014648 168.2584668 -229.84765625 167.453125 C-229.28771973 166.57317871 -228.7277832 165.69323242 -228.15087891 164.78662109 C-226.89811724 162.81808968 -225.64518378 160.84966758 -224.39208984 158.88134766 C-221.1415426 153.77496566 -217.89355195 148.66700328 -214.65234375 143.5546875 C-197.05521721 115.81081173 -197.05521721 115.81081173 -194.41796875 114.4921875 C-192.89839235 114.34094919 -191.37324373 114.24337057 -189.84765625 114.17578125 C-188.95175781 114.13388672 -188.05585938 114.09199219 -187.1328125 114.04882812 C-186.19566406 114.00951172 -185.25851563 113.97019531 -184.29296875 113.9296875 C-183.34808594 113.88650391 -182.40320313 113.84332031 -181.4296875 113.79882812 C-179.09259783 113.69259678 -176.75540045 113.59055574 -174.41796875 113.4921875 C-174.21042969 112.80253906 -174.00289062 112.11289063 -173.7890625 111.40234375 C-169.89748214 99.53220953 -162.99298682 91.23581452 -152.03125 85.171875 C-142.43405994 80.96851151 -130.54437122 81.30653014 -120.41796875 83.4921875 C-120.06718262 82.94095215 -119.71639648 82.3897168 -119.35498047 81.82177734 C-118.85756348 81.04012207 -118.36014648 80.2584668 -117.84765625 79.453125 C-117.28771973 78.57317871 -116.7277832 77.69323242 -116.15087891 76.78662109 C-114.89811724 74.81808968 -113.64518378 72.84966758 -112.39208984 70.88134766 C-109.1415426 65.77496566 -105.89355195 60.66700328 -102.65234375 55.5546875 C-85.05521721 27.81081173 -85.05521721 27.81081173 -82.41796875 26.4921875 C-80.89839235 26.34094919 -79.37324373 26.24337057 -77.84765625 26.17578125 C-76.95175781 26.13388672 -76.05585938 26.09199219 -75.1328125 26.04882812 C-73.72708984 25.98985352 -73.72708984 25.98985352 -72.29296875 25.9296875 C-71.34808594 25.88650391 -70.40320313 25.84332031 -69.4296875 25.79882812 C-67.09259783 25.69259678 -64.75540045 25.59055574 -62.41796875 25.4921875 C-62.21042969 24.80253906 -62.00289063 24.11289063 -61.7890625 23.40234375 C-57.89748214 11.53220953 -50.99298682 3.23581452 -40.03125 -2.828125 C-27.475436 -8.32730234 -11.54108171 -7.19686194 0 0 Z M-41.97265625 21.39453125 C-46.0977477 27.38148831 -46.13405017 33.44153962 -45.41796875 40.4921875 C-43.64454442 47.13691664 -38.97130405 51.66586709 -33.41796875 55.4921875 C-27.41909871 58.43281007 -20.53513345 58.59102538 -14.10546875 56.875 C-7.97664014 54.16969675 -3.17844083 49.08355055 -0.24609375 43.1015625 C1.66008982 37.09528598 1.64641812 29.98927192 -0.91796875 24.1796875 C-4.40259013 18.23971013 -9.85252705 13.57583067 -16.41796875 11.4921875 C-27.85241972 10.13582504 -34.59614364 12.76572696 -41.97265625 21.39453125 Z M86.02734375 21.39453125 C81.9022523 27.38148831 81.86594983 33.44153962 82.58203125 40.4921875 C84.35545558 47.13691664 89.02869595 51.66586709 94.58203125 55.4921875 C100.58090129 58.43281007 107.46486655 58.59102538 113.89453125 56.875 C120.02335986 54.16969675 124.82155917 49.08355055 127.75390625 43.1015625 C129.66008982 37.09528598 129.64641812 29.98927192 127.08203125 24.1796875 C123.59740987 18.23971013 118.14747295 13.57583067 111.58203125 11.4921875 C100.14758028 10.13582504 93.40385636 12.76572696 86.02734375 21.39453125 Z M-153.97265625 109.39453125 C-158.0977477 115.38148831 -158.13405017 121.44153962 -157.41796875 128.4921875 C-155.64454442 135.13691664 -150.97130405 139.66586709 -145.41796875 143.4921875 C-139.41909871 146.43281007 -132.53513345 146.59102538 -126.10546875 144.875 C-119.97664014 142.16969675 -115.17844083 137.08355055 -112.24609375 131.1015625 C-110.33991018 125.09528598 -110.35358188 117.98927192 -112.91796875 112.1796875 C-116.40259013 106.23971013 -121.85252705 101.57583067 -128.41796875 99.4921875 C-139.85241972 98.13582504 -146.59614364 100.76572696 -153.97265625 109.39453125 Z M6.02734375 109.39453125 C1.9022523 115.38148831 1.86594983 121.44153962 2.58203125 128.4921875 C4.35545558 135.13691664 9.02869595 139.66586709 14.58203125 143.4921875 C20.58090129 146.43281007 27.46486655 146.59102538 33.89453125 144.875 C40.02335986 142.16969675 44.82155917 137.08355055 47.75390625 131.1015625 C49.66008982 125.09528598 49.64641812 117.98927192 47.08203125 112.1796875 C43.59740987 106.23971013 38.14747295 101.57583067 31.58203125 99.4921875 C20.14758028 98.13582504 13.40385636 100.76572696 6.02734375 109.39453125 Z M-265.97265625 197.39453125 C-270.0977477 203.38148831 -270.13405017 209.44153962 -269.41796875 216.4921875 C-267.64454442 223.13691664 -262.97130405 227.66586709 -257.41796875 231.4921875 C-251.41909871 234.43281007 -244.53513345 234.59102538 -238.10546875 232.875 C-231.97664014 230.16969675 -227.17844083 225.08355055 -224.24609375 219.1015625 C-222.33991018 213.09528598 -222.35358188 205.98927192 -224.91796875 200.1796875 C-228.40259013 194.23971013 -233.85252705 189.57583067 -240.41796875 187.4921875 C-251.85241972 186.13582504 -258.59614364 188.76572696 -265.97265625 197.39453125 Z M-81.97265625 197.39453125 C-86.0977477 203.38148831 -86.13405017 209.44153962 -85.41796875 216.4921875 C-83.64454442 223.13691664 -78.97130405 227.66586709 -73.41796875 231.4921875 C-67.41909871 234.43281007 -60.53513345 234.59102538 -54.10546875 232.875 C-47.97664014 230.16969675 -43.17844083 225.08355055 -40.24609375 219.1015625 C-38.33991018 213.09528598 -38.35358188 205.98927192 -40.91796875 200.1796875 C-44.40259013 194.23971013 -49.85252705 189.57583067 -56.41796875 187.4921875 C-67.85241972 186.13582504 -74.59614364 188.76572696 -81.97265625 197.39453125 Z M86.02734375 197.39453125 C81.9022523 203.38148831 81.86594983 209.44153962 82.58203125 216.4921875 C84.35545558 223.13691664 89.02869595 227.66586709 94.58203125 231.4921875 C100.58090129 234.43281007 107.46486655 234.59102538 113.89453125 232.875 C120.02335986 230.16969675 124.82155917 225.08355055 127.75390625 219.1015625 C129.66008982 213.09528598 129.64641812 205.98927192 127.08203125 200.1796875 C123.59740987 194.23971013 118.14747295 189.57583067 111.58203125 187.4921875 C100.14758028 186.13582504 93.40385636 188.76572696 86.02734375 197.39453125 Z M38.02734375 269.39453125 C33.9022523 275.38148831 33.86594983 281.44153962 34.58203125 288.4921875 C36.35545558 295.13691664 41.02869595 299.66586709 46.58203125 303.4921875 C52.58090129 306.43281007 59.46486655 306.59102538 65.89453125 304.875 C72.02335986 302.16969675 76.82155917 297.08355055 79.75390625 291.1015625 C81.66008982 285.09528598 81.64641812 277.98927192 79.08203125 272.1796875 C75.59740987 266.23971013 70.14747295 261.57583067 63.58203125 259.4921875 C52.14758028 258.13582504 45.40385636 260.76572696 38.02734375 269.39453125 Z M-153.97265625 285.39453125 C-158.0977477 291.38148831 -158.13405017 297.44153962 -157.41796875 304.4921875 C-155.64454442 311.13691664 -150.97130405 315.66586709 -145.41796875 319.4921875 C-139.41909871 322.43281007 -132.53513345 322.59102538 -126.10546875 320.875 C-119.97664014 318.16969675 -115.17844083 313.08355055 -112.24609375 307.1015625 C-110.33991018 301.09528598 -110.35358188 293.98927192 -112.91796875 288.1796875 C-116.40259013 282.23971013 -121.85252705 277.57583067 -128.41796875 275.4921875 C-139.85241972 274.13582504 -146.59614364 276.76572696 -153.97265625 285.39453125 Z M-9.97265625 349.39453125 C-14.0977477 355.38148831 -14.13405017 361.44153962 -13.41796875 368.4921875 C-11.64454442 375.13691664 -6.97130405 379.66586709 -1.41796875 383.4921875 C4.58090129 386.43281007 11.46486655 386.59102538 17.89453125 384.875 C24.02335986 382.16969675 28.82155917 377.08355055 31.75390625 371.1015625 C33.66008982 365.09528598 33.64641812 357.98927192 31.08203125 352.1796875 C27.59740987 346.23971013 22.14747295 341.57583067 15.58203125 339.4921875 C4.14758028 338.13582504 -2.59614364 340.76572696 -9.97265625 349.39453125 Z " fill="#FFFFFF" transform="translate(358.41796875,45.5078125)"/>
</svg>
