<?xml version="1.0" encoding="UTF-8"?>
<svg version="1.1" xmlns="http://www.w3.org/2000/svg" width="512" height="512">
<path d="M0 0 C7.71091031 8.26987965 11.3690892 17.26630856 11.51171875 28.61328125 C10.65261282 43.44857396 2.610001 53.0105627 -7.54833984 63.06835938 C-8.32950165 63.84981323 -9.11066345 64.63126709 -9.91549683 65.43640137 C-12.47540644 67.99492772 -15.04230685 70.54631415 -17.609375 73.09765625 C-19.39485655 74.87940411 -21.17989442 76.66159669 -22.96450806 78.44421387 C-27.16803677 82.64091011 -31.37599145 86.83313326 -35.58615935 91.02316618 C-40.38342054 95.79798689 -45.174929 100.57856301 -49.96598887 105.35960484 C-59.81213325 115.18490622 -69.66539527 125.00304344 -79.5234375 134.81640625 C-79.04637452 136.41623427 -78.56855161 138.0158357 -78.09040833 139.61534119 C-77.82440228 140.50614348 -77.55839624 141.39694578 -77.28432941 142.31474209 C-76.41426209 145.17535371 -75.46383902 147.99948196 -74.47265625 150.8203125 C-66.16945615 174.81017932 -60.59304961 198.60604621 -57.5234375 223.81640625 C-57.36548706 225.06574951 -57.36548706 225.06574951 -57.2043457 226.34033203 C-56.26197143 234.94316203 -56.33735381 243.58590781 -56.33813477 252.22949219 C-56.33595899 254.91487753 -56.3177769 257.59984376 -56.29882812 260.28515625 C-56.18000037 296.3546675 -56.18000037 296.3546675 -69.5234375 309.81640625 C-72.13018874 311.9413643 -74.87339852 313.76515561 -77.7109375 315.56640625 C-78.87943237 316.324375 -78.87943237 316.324375 -80.0715332 317.09765625 C-82.54424433 318.6891732 -85.03068672 320.25648955 -87.5234375 321.81640625 C-88.32007813 322.31720703 -89.11671875 322.81800781 -89.9375 323.33398438 C-115.74153057 339.45099696 -143.31598447 353.78650456 -172.37817383 363.0300293 C-189.55292244 368.50622347 -204.34263346 377.15176156 -218.8984375 387.69140625 C-228.27981923 394.20247795 -237.27391993 394.9488893 -248.5234375 393.81640625 C-263.19841224 390.92383567 -275.10808719 374.42542659 -285.2578125 364.3203125 C-286.04652992 363.5356706 -286.83524734 362.75102871 -287.6478653 361.94260979 C-291.81391971 357.79728268 -295.97678488 353.64878222 -300.13720703 349.49780273 C-304.41445737 345.2316542 -308.70326912 340.97732477 -312.99471664 336.72546482 C-316.31465569 333.43173165 -319.62561968 330.12908496 -322.93427277 326.82401848 C-324.51124378 325.25189446 -326.09156983 323.68312789 -327.67540741 322.11792183 C-343.58882588 306.38030241 -343.58882588 306.38030241 -347.5234375 297.81640625 C-348.14856232 296.46229393 -348.14856232 296.46229393 -348.78631592 295.08082581 C-353.85344403 283.3396801 -353.36111323 266.97507674 -349.0390625 255.07421875 C-346.82009459 250.30458155 -344.21221749 245.7838808 -341.5871582 241.22827148 C-326.22635087 214.18396642 -318.98226069 183.71093498 -314.5390625 153.1796875 C-314.37752686 152.09099365 -314.21599121 151.0022998 -314.04956055 149.88061523 C-313.75475227 147.85266343 -313.47575499 145.82230243 -313.21801758 143.78930664 C-311.04041849 128.60065038 -303.87431652 114.9767757 -297.09414673 101.40240479 C-294.83923851 96.8805002 -292.61714665 92.34253047 -290.39453125 87.8046875 C-289.96267014 86.92343201 -289.53080902 86.04217651 -289.08586121 85.13421631 C-278.39549128 63.2729494 -269.60967585 40.88012131 -263.8359375 17.19140625 C-261.58143741 8.07210151 -258.39075596 1.23302843 -250.4296875 -4.2109375 C-242.3910718 -8.31260821 -233.17207628 -8.38374983 -224.453125 -6.53125 C-211.94298222 -2.37902312 -202.49835785 5.95276649 -196.2734375 17.44140625 C-186.94449402 37.54602776 -188.81043543 60.26655375 -195.5234375 80.81640625 C-196.22957465 83.06066057 -196.93388596 85.30548991 -197.63671875 87.55078125 C-199.55897921 93.6525925 -201.52632307 99.73871734 -203.5234375 105.81640625 C-196.55776356 103.35915132 -190.89072106 100.34104512 -185.0234375 95.87890625 C-183.45073332 94.71325492 -181.87781042 93.54789864 -180.3046875 92.3828125 C-179.51191406 91.79000488 -178.71914062 91.19719727 -177.90234375 90.58642578 C-174.14005967 87.78710727 -170.33065606 85.05410655 -166.5234375 82.31640625 C-165.02190788 81.23208585 -163.52060615 80.14744981 -162.01953125 79.0625 C-159.03434642 76.90635326 -156.04722362 74.75293121 -153.05859375 72.6015625 C-145.34880777 67.04836001 -137.66586119 61.4620342 -130.0234375 55.81640625 C-121.64395292 49.62629506 -113.21236387 43.51166316 -104.75732422 37.42529297 C-101.00983981 34.72628507 -97.26682549 32.02109131 -93.5234375 29.31640625 C-89.03733371 26.07509172 -84.55038919 22.83498671 -80.05859375 19.6015625 C-79.3207666 19.06982422 -78.58293945 18.53808594 -77.82275391 17.99023438 C-76.33510942 16.91858478 -74.84650607 15.84826498 -73.35693359 14.77929688 C-69.39294823 11.92557248 -65.47086179 9.02827698 -61.58984375 6.0625 C-42.51498076 -8.45053398 -20.79113079 -17.99108686 0 0 Z " fill="#FFFFFF" transform="translate(351.5234375,118.18359375)"/>
<path d="M0 0 C1.11264725 -0.00101212 1.11264725 -0.00101212 2.24777222 -0.00204468 C13.16417509 0.01375672 23.52284073 0.41054482 34.125 3.25 C34.7653418 3.41628906 35.40568359 3.58257812 36.06542969 3.75390625 C51.26954736 7.78445291 66.32191345 14.0585304 79.125 23.25 C80.60613281 24.28833984 80.60613281 24.28833984 82.1171875 25.34765625 C112.47418123 47.57728858 131.76639107 78.88585562 138.6171875 115.828125 C143.86395142 151.18324184 137.29070129 189.19083468 116.25 218.6875 C114.59090376 220.91649713 112.87152454 223.08906713 111.125 225.25 C110.62645508 225.87583984 110.12791016 226.50167969 109.61425781 227.14648438 C108.05258911 229.09251915 106.47003494 231.01874491 104.875 232.9375 C104.3917627 233.526521 103.90852539 234.11554199 103.41064453 234.72241211 C99.77536537 238.96440082 96.24558026 241.72197499 90.5625 242.68359375 C84.91421775 242.69264548 81.48594134 242.1956136 77.125 238.25 C73.92200778 234.70985071 72.83806607 231.99285124 72.625 227.3125 C73.01787552 219.54743094 76.76242619 215.57579024 81.875 210.125 C100.64063422 189.89889792 108.99357111 162.10508722 108.375 134.90234375 C107.15559564 105.87442307 94.49177879 79.55857087 73.67578125 59.51953125 C53.09770769 41.21040301 25.49178481 30.14961436 -2.22753906 31.35205078 C-29.64184663 33.01790652 -54.49580009 42.33222142 -74.05859375 61.8671875 C-78.18495455 65.35828332 -81.99024092 67.05160431 -87.4375 67.625 C-92.77347912 67.04289319 -96.19600068 65.27172701 -99.6875 61.25 C-102.91893706 56.81831489 -103.31868768 53.66298966 -102.875 48.25 C-99.04993752 34.06784526 -79.99112307 23.96030437 -68.078125 16.98828125 C-46.89302313 5.03142202 -24.21427122 0.01968938 0 0 Z " fill="#FFFFFF" transform="translate(334.875,-0.24999999999999997)"/>
<path d="M0 0 C0.9590625 0.76054688 1.918125 1.52109375 2.90625 2.3046875 C19.00077455 15.74918056 28.1353925 37.53535716 30 58 C31.36165989 81.33932829 25.12913762 103.56231108 10.02734375 121.765625 C1.91195176 130.70975644 1.91195176 130.70975644 -3.390625 131.23828125 C-7.95873242 131.35685234 -11.22797186 131.35092188 -15.4375 129.4375 C-19.58727106 125.4901568 -22.18021188 121.78800818 -22.4375 115.9375 C-21.78064412 110.02579705 -19.7434593 106.73575907 -15.75 102.5 C-6.21317646 91.89230433 -1.22447752 76.99833284 -1.71875 62.80859375 C-3.35032691 46.51548547 -10.10171078 33.94058245 -22 23 C-25.18700171 20.59890038 -28.40715522 18.72456549 -32 17 C-33.13115234 16.41992188 -33.13115234 16.41992188 -34.28515625 15.828125 C-46.78954186 10.06650492 -61.21277782 9.76585604 -74.15625 14.04296875 C-83.04883875 17.51242572 -90.48800874 22.3549066 -97.4921875 28.80078125 C-101.34206251 31.86272847 -106.3487035 31.43805018 -111 31 C-115.71878688 29.30835942 -118.20582817 27.13951382 -121 23 C-122.56321592 18.31035224 -122.8984253 13.74312104 -121.33984375 8.984375 C-114.35594574 -4.08055967 -95.6931253 -13.14758868 -82.125 -17.375 C-52.8763168 -24.79433903 -23.18858485 -19.88231264 0 0 Z " fill="#FFFFFF" transform="translate(391,71)"/>
</svg>
