<svg width="61" height="61" viewBox="0 0 61 61" fill="none" xmlns="http://www.w3.org/2000/svg">
<path d="M60.3049 27.4149C60.1168 27.0905 59.8468 26.8213 59.5218 26.6342C59.1968 26.4471 58.8284 26.3487 58.4534 26.349H41.3301V37.6782L43.783 35.2231C43.984 35.0222 44.2565 34.9093 44.5407 34.9093C44.8249 34.9093 45.0975 35.0222 45.2984 35.2231C45.4994 35.4241 45.6123 35.6966 45.6123 35.9808C45.6123 36.265 45.4994 36.5376 45.2984 36.7385L41.0176 41.0194C40.9185 41.1195 40.8005 41.1991 40.6704 41.2534C40.5404 41.3076 40.4008 41.3356 40.2599 41.3356C40.119 41.3356 39.9795 41.3076 39.8494 41.2534C39.7193 41.1991 39.6013 41.1195 39.5022 41.0194L35.2214 36.7385C35.1219 36.639 35.043 36.5209 34.9891 36.3909C34.9353 36.2609 34.9075 36.1216 34.9075 35.9808C34.9075 35.8401 34.9353 35.7008 34.9891 35.5708C35.043 35.4408 35.1219 35.3226 35.2214 35.2231C35.3209 35.1236 35.439 35.0447 35.569 34.9909C35.699 34.937 35.8384 34.9093 35.9791 34.9093C36.1198 34.9093 36.2592 34.937 36.3892 34.9909C36.5192 35.0447 36.6373 35.1236 36.7368 35.2231L39.1897 37.6782V26.349H22.0664V37.6782L24.5193 35.2231C24.7203 35.0222 24.9928 34.9093 25.277 34.9093C25.5612 34.9093 25.8338 35.0222 26.0347 35.2231C26.2357 35.4241 26.3486 35.6966 26.3486 35.9808C26.3486 36.265 26.2357 36.5376 26.0347 36.7385L21.7539 41.0194C21.6548 41.1195 21.5368 41.1991 21.4067 41.2534C21.2767 41.3076 21.1372 41.3356 20.9962 41.3356C20.8553 41.3356 20.7158 41.3076 20.5857 41.2534C20.4556 41.1991 20.3376 41.1195 20.2385 41.0194L15.9577 36.7385C15.8582 36.639 15.7793 36.5209 15.7254 36.3909C15.6716 36.2609 15.6438 36.1216 15.6438 35.9808C15.6438 35.8401 15.6716 35.7008 15.7254 35.5708C15.7793 35.4408 15.8582 35.3226 15.9577 35.2231C16.0572 35.1236 16.1753 35.0447 16.3053 34.9909C16.4353 34.937 16.5747 34.9093 16.7154 34.9093C16.8561 34.9093 16.9955 34.937 17.1255 34.9909C17.2555 35.0447 17.3736 35.1236 17.4731 35.2231L19.926 37.6782V26.349H2.80273C2.40949 26.349 2.02384 26.4572 1.68811 26.662C1.35238 26.8667 1.07953 27.16 0.899528 27.5096C0.719522 27.8592 0.639309 28.2517 0.667693 28.6439C0.696078 29.0361 0.831963 29.4129 1.06043 29.733L11.7625 44.7159C12.1649 45.2788 12.8134 45.6127 13.5048 45.6127H49.8918C50.269 45.6126 50.6396 45.5127 50.9659 45.3233C51.2921 45.1338 51.5625 44.8615 51.7496 44.5339L60.3113 29.551C60.4974 29.2256 60.5947 28.857 60.5936 28.4821C60.5925 28.1072 60.4929 27.7392 60.3049 27.4149ZM43.4705 47.7531H17.7856C16.6503 47.7531 15.5614 48.2041 14.7586 49.0069C13.9558 49.8097 13.5048 50.8986 13.5048 52.0339V56.3147C13.5048 57.4501 13.9558 58.5389 14.7586 59.3417C15.5614 60.1446 16.6503 60.5956 17.7856 60.5956H43.4705C44.6059 60.5956 45.6947 60.1446 46.4975 59.3417C47.3003 58.5389 47.7514 57.4501 47.7514 56.3147V52.0339C47.7514 50.8986 47.3003 49.8097 46.4975 49.0069C45.6947 48.2041 44.6059 47.7531 43.4705 47.7531ZM27.4175 55.2445H18.8558C18.572 55.2445 18.2998 55.1318 18.0991 54.9311C17.8984 54.7304 17.7856 54.4582 17.7856 54.1743C17.7856 53.8905 17.8984 53.6183 18.0991 53.4176C18.2998 53.2169 18.572 53.1041 18.8558 53.1041H27.4175C27.7013 53.1041 27.9735 53.2169 28.1742 53.4176C28.3749 53.6183 28.4877 53.8905 28.4877 54.1743C28.4877 54.4582 28.3749 54.7304 28.1742 54.9311C27.9735 55.1318 27.7013 55.2445 27.4175 55.2445ZM34.9089 56.3147C34.3412 56.3147 33.7968 56.0892 33.3954 55.6878C32.994 55.2864 32.7685 54.742 32.7685 54.1743C32.7685 53.6067 32.994 53.0622 33.3954 52.6608C33.7968 52.2594 34.3412 52.0339 34.9089 52.0339C35.4766 52.0339 36.021 52.2594 36.4224 52.6608C36.8238 53.0622 37.0493 53.6067 37.0493 54.1743C37.0493 54.742 36.8238 55.2864 36.4224 55.6878C36.021 56.0892 35.4766 56.3147 34.9089 56.3147ZM41.3301 56.3147C40.7625 56.3147 40.218 56.0892 39.8166 55.6878C39.4152 55.2864 39.1897 54.742 39.1897 54.1743C39.1897 53.6067 39.4152 53.0622 39.8166 52.6608C40.218 52.2594 40.7625 52.0339 41.3301 52.0339C41.8978 52.0339 42.4422 52.2594 42.8436 52.6608C43.245 53.0622 43.4705 53.6067 43.4705 54.1743C43.4705 54.742 43.245 55.2864 42.8436 55.6878C42.4422 56.0892 41.8978 56.3147 41.3301 56.3147ZM11.3644 0.664062V9.22571H2.80273L11.3644 0.664062Z" fill="white"/>
<path d="M2.80273 11.3661V24.2086H28.4877V2.80447C28.4877 2.2368 28.2622 1.69238 27.8608 1.29097C27.4593 0.889569 26.9149 0.664063 26.3473 0.664062H13.5048V9.22571C13.5048 9.79338 13.2793 10.3378 12.8779 10.7392C12.4765 11.1406 11.9321 11.3661 11.3644 11.3661H2.80273ZM7.08356 20.998C7.08356 20.7141 7.19631 20.4419 7.39701 20.2412C7.59771 20.0405 7.86993 19.9278 8.15376 19.9278H23.1366C23.4205 19.9278 23.6927 20.0405 23.8934 20.2412C24.0941 20.4419 24.2068 20.7141 24.2068 20.998C24.2068 21.2818 24.0941 21.554 23.8934 21.7547C23.6927 21.9554 23.4205 22.0682 23.1366 22.0682H8.15376C7.86993 22.0682 7.59771 21.9554 7.39701 21.7547C7.19631 21.554 7.08356 21.2818 7.08356 20.998ZM7.08356 16.7171C7.08356 16.4333 7.19631 16.1611 7.39701 15.9604C7.59771 15.7597 7.86993 15.6469 8.15376 15.6469H23.1366C23.4205 15.6469 23.6927 15.7597 23.8934 15.9604C24.0941 16.1611 24.2068 16.4333 24.2068 16.7171C24.2068 17.001 24.0941 17.2732 23.8934 17.4739C23.6927 17.6746 23.4205 17.7874 23.1366 17.7874H8.15376C7.86993 17.7874 7.59771 17.6746 7.39701 17.4739C7.19631 17.2732 7.08356 17.001 7.08356 16.7171ZM41.3301 0.664062V9.22571H32.7685L41.3301 0.664062Z" fill="white"/>
<path d="M32.7676 11.3661V24.2086H58.4525V2.80447C58.4525 2.2368 58.227 1.69238 57.8256 1.29097C57.4242 0.889569 56.8798 0.664063 56.3121 0.664062H43.4696V9.22571C43.4696 9.79338 43.2441 10.3378 42.8427 10.7392C42.4413 11.1406 41.8969 11.3661 41.3292 11.3661H32.7676ZM37.0484 20.998C37.0484 20.7141 37.1612 20.4419 37.3619 20.2412C37.5626 20.0405 37.8348 19.9278 38.1186 19.9278H53.1015C53.3853 19.9278 53.6575 20.0405 53.8582 20.2412C54.0589 20.4419 54.1717 20.7141 54.1717 20.998C54.1717 21.2818 54.0589 21.554 53.8582 21.7547C53.6575 21.9554 53.3853 22.0682 53.1015 22.0682H38.1186C37.8348 22.0682 37.5626 21.9554 37.3619 21.7547C37.1612 21.554 37.0484 21.2818 37.0484 20.998ZM37.0484 16.7171C37.0484 16.4333 37.1612 16.1611 37.3619 15.9604C37.5626 15.7597 37.8348 15.6469 38.1186 15.6469H53.1015C53.3853 15.6469 53.6575 15.7597 53.8582 15.9604C54.0589 16.1611 54.1717 16.4333 54.1717 16.7171C54.1717 17.001 54.0589 17.2732 53.8582 17.4739C53.6575 17.6746 53.3853 17.7874 53.1015 17.7874H38.1186C37.8348 17.7874 37.5626 17.6746 37.3619 17.4739C37.1612 17.2732 37.0484 17.001 37.0484 16.7171Z" fill="white"/>
</svg>
