<?xml version="1.0" encoding="UTF-8"?>
<svg version="1.1" xmlns="http://www.w3.org/2000/svg" width="512" height="512">
<path d="M0 0 C0.01401855 1.24088379 0.01401855 1.24088379 0.02832031 2.50683594 C0.08200319 6.25516415 0.1656571 10.00224162 0.25 13.75 C0.26417969 15.05195312 0.27835938 16.35390625 0.29296875 17.6953125 C0.32519531 18.94570312 0.35742188 20.19609375 0.390625 21.484375 C0.41157227 22.63647461 0.43251953 23.78857422 0.45410156 24.97558594 C1.12128629 28.67195642 1.94608748 29.84514247 5 32 C7.81391419 32.73949653 7.81391419 32.73949653 10.9609375 32.87109375 C12.14389404 32.96745117 13.32685059 33.06380859 14.5456543 33.16308594 C15.80933838 33.25364258 17.07302246 33.34419922 18.375 33.4375 C48.71003976 36.12125174 77.18217523 44.92402527 102 63 C102.53270508 63.38462402 103.06541016 63.76924805 103.61425781 64.16552734 C137.97293177 89.21830972 161.60027248 126.98548029 168.40698242 169.03540039 C169.39406504 175.49095637 170 181.42710442 170 188 C152.84 188 135.68 188 118 188 C116.68 181.4 115.36 174.8 114 168 C113.01887617 164.61022909 112.08829046 161.49514701 110.8125 158.25 C110.51698242 157.47962402 110.22146484 156.70924805 109.91699219 155.91552734 C104.46198466 142.18774986 96.98236432 130.82572844 87 120 C86.41863281 119.33742188 85.83726562 118.67484375 85.23828125 117.9921875 C68.73703668 100.11930296 41.5334805 87.92541368 17.4375 86.75 C15.79185717 86.70138763 14.14599386 86.65975165 12.5 86.625 C11.70916016 86.59873535 10.91832031 86.5724707 10.10351562 86.54541016 C5.80310003 86.43881499 5.80310003 86.43881499 2.30541992 88.62158203 C0.63090073 91.67248271 0.47458236 94.04552932 0.26953125 97.515625 C0.14868164 99.39121094 0.14868164 99.39121094 0.02539062 101.3046875 C-0.04486328 102.60664063 -0.11511719 103.90859375 -0.1875 105.25 C-0.3102832 107.22613281 -0.3102832 107.22613281 -0.43554688 109.2421875 C-0.63585565 112.49425932 -0.82351338 115.74656263 -1 119 C-3.84015307 117.7082122 -5.89698388 116.35216917 -8.09692383 114.14599609 C-8.67465042 113.57134613 -9.25237701 112.99669617 -9.84761047 112.40463257 C-10.46121933 111.7838382 -11.07482819 111.16304382 -11.70703125 110.5234375 C-12.35065109 109.87935944 -12.99427094 109.23528137 -13.65739441 108.57168579 C-15.01884298 107.20721862 -16.37786275 105.84032432 -17.73461914 104.47119141 C-19.78944015 102.39826306 -21.85199987 100.33330021 -23.91601562 98.26953125 C-25.24265725 96.93796785 -26.56884344 95.60595051 -27.89453125 94.2734375 C-28.50206741 93.66478851 -29.10960358 93.05613953 -29.73554993 92.42904663 C-33.43932647 88.68502787 -36.94408556 84.81587101 -40.38972473 80.83364868 C-42.45252985 78.48469633 -44.62202495 76.26502349 -46.83984375 74.0625 C-47.67451172 73.23105469 -48.50917969 72.39960938 -49.36914062 71.54296875 C-50.21669922 70.70378906 -51.06425781 69.86460937 -51.9375 69 C-52.81212891 68.12988281 -53.68675781 67.25976562 -54.58789062 66.36328125 C-56.72297449 64.23986451 -58.86037205 62.11883622 -61 60 C-59.39162849 55.6864934 -56.0751847 53.10332563 -52.73828125 50.1171875 C-46.11842861 44.06625672 -39.73488632 37.81122233 -33.41796875 31.4453125 C-32.50363068 30.52530457 -31.5892926 29.60529663 -30.64724731 28.65740967 C-26.85105328 24.83417479 -23.05900341 21.00687732 -19.27124023 17.17529297 C-16.47116416 14.34347449 -13.66327911 11.5194627 -10.85546875 8.6953125 C-9.99414841 7.82053253 -9.13282806 6.94575256 -8.2454071 6.04446411 C-7.45310196 5.24878021 -6.66079681 4.45309631 -5.84448242 3.63330078 C-5.14804123 2.92940216 -4.45160004 2.22550354 -3.73405457 1.50027466 C-2 0 -2 0 0 0 Z " fill="#FFFFFF" transform="translate(197,60)"/>
<path d="M0 0 C17.16 0 34.32 0 52 0 C52 6.04211878 51.87899301 11.38888798 50.875 17.25 C50.74448242 18.01231934 50.61396484 18.77463867 50.47949219 19.56005859 C47.65635496 35.049755 42.94733609 49.87802711 36 64 C35.69336426 64.63099609 35.38672852 65.26199219 35.07080078 65.91210938 C26.68060523 82.97956782 15.39836497 96.60163503 2 110 C1.50757813 110.53882813 1.01515625 111.07765625 0.5078125 111.6328125 C-22.16776417 136.1019376 -58.45214823 150.24095233 -91 154 C-94.63 154 -98.26 154 -102 154 C-102 136.84 -102 119.68 -102 102 C-94.08 100.35 -86.16 98.7 -78 97 C-61.15742812 91.21036592 -47.05009086 83.03344073 -34 71 C-33.33742188 70.41863281 -32.67484375 69.83726562 -31.9921875 69.23828125 C-19.33872906 57.55590218 -11.20277506 41.05774774 -5.6875 25 C-5.45708008 24.33774414 -5.22666016 23.67548828 -4.98925781 22.99316406 C-2.53122508 15.3952802 -1.50199534 8.01064184 0 0 Z " fill="#FFFFFF" transform="translate(315,264)"/>
<path d="M0 0 C6.8226126 5.61596671 13.04335445 11.82395414 19.3125 18.0390625 C19.89205444 18.61329327 20.47160889 19.18752403 21.06872559 19.77915573 C24.12468405 22.80856466 27.17708207 25.84151463 30.22705078 28.87695312 C32.74980553 31.38628069 35.27966731 33.88810414 37.81591797 36.38378906 C40.88893861 39.40768311 43.94968115 42.44349103 47.00180054 45.4884758 C48.16503769 46.64498401 49.33253821 47.79722017 50.50430298 48.94508743 C52.13454468 50.54390803 53.74851069 52.15756989 55.359375 53.77587891 C56.28202148 54.69043854 57.20466797 55.60499817 58.15527344 56.54727173 C60 59 60 59 60.07032776 61.02394104 C58.59016287 63.75664891 56.71949287 65.64647157 54.51538086 67.84106445 C54.05016022 68.30832947 53.58493958 68.77559448 53.10562134 69.25701904 C51.56585167 70.79979573 50.01560221 72.33155683 48.46484375 73.86328125 C47.38626232 74.93880208 46.30827329 76.01491728 45.23085022 77.09159851 C42.96807779 79.34976677 40.70048639 81.60293807 38.42895508 83.85229492 C35.53640064 86.71673686 32.65243159 89.58962321 29.7716589 92.465909 C27.0058539 95.22651748 24.23540321 97.98244595 21.46484375 100.73828125 C20.9451042 101.25614008 20.42536465 101.77399891 19.88987541 102.30755043 C4.24886084 117.87556958 4.24886084 117.87556958 0 120 C-0.01981934 119.20303711 -0.03963867 118.40607422 -0.06005859 117.58496094 C-0.15533248 113.97297528 -0.26500307 110.36156601 -0.375 106.75 C-0.42140625 104.86861328 -0.42140625 104.86861328 -0.46875 102.94921875 C-0.50742187 101.74394531 -0.54609375 100.53867187 -0.5859375 99.296875 C-0.6173584 98.18666992 -0.6487793 97.07646484 -0.68115234 95.93261719 C-0.99089737 93.0837219 -1.43462483 91.3769224 -3 89 C-5.7147482 87.6426259 -7.85657022 87.85966723 -10.89712524 87.84178162 C-12.15358353 87.8319928 -13.41004181 87.82220398 -14.70457458 87.81211853 C-16.10464439 87.80621396 -17.5047146 87.80040354 -18.90478516 87.79467773 C-20.37304461 87.78510181 -21.84130129 87.7750919 -23.30955505 87.76467896 C-27.3030932 87.73759287 -31.29664321 87.7166034 -35.29022264 87.69667697 C-39.46094975 87.67484022 -43.63164014 87.64744025 -47.80233765 87.62062073 C-55.70355328 87.57066253 -63.60478925 87.52573532 -71.50604475 87.48259836 C-80.49989826 87.43325268 -89.49371495 87.37832467 -98.48753285 87.32291877 C-116.99165438 87.20905073 -135.49581066 87.10222221 -154 87 C-154 86.34 -154 85.68 -154 85 C-152.97003906 84.48953125 -151.94007813 83.9790625 -150.87890625 83.453125 C-136.76053663 76.30610817 -123.65400315 67.89283575 -112.11328125 56.9921875 C-110.17866368 55.16842602 -108.18099905 53.49582305 -106.125 51.8125 C-103.51207277 49.63356307 -101.54378988 47.42584448 -99.66334534 44.61723328 C-95.94542162 39.26613675 -92.35387673 34.11854701 -85.66452026 32.74526978 C-80.55534412 32.16473762 -75.46839078 32.34507966 -70.33984375 32.51953125 C-68.45848845 32.53084545 -66.57708257 32.53550657 -64.69569397 32.53385925 C-59.77769814 32.54523227 -54.86471199 32.63739865 -49.94812012 32.75 C-42.99397382 32.89436698 -36.0382672 32.92845927 -29.082901 32.97331238 C-25.38470817 32.99730705 -21.68905872 33.05276948 -17.99168396 33.133255 C-16.31208524 33.15905622 -14.63248432 33.18471415 -12.95288086 33.21020508 C-12.18770645 33.2336348 -11.42253204 33.25706451 -10.63417053 33.28120422 C-6.59378594 33.35975533 -6.59378594 33.35975533 -3.06544495 31.61186218 C-0.82395379 28.2208143 -0.81146879 25.73515315 -0.68359375 21.6796875 C-0.64169922 20.42285156 -0.59980469 19.16601562 -0.55664062 17.87109375 C-0.51732422 16.55238281 -0.47800781 15.23367188 -0.4375 13.875 C-0.39430488 12.53514249 -0.35069027 11.19529844 -0.30664062 9.85546875 C-0.20029019 6.57042185 -0.09826192 3.28529719 0 0 Z " fill="#FFFFFF" transform="translate(435,332)"/>
<path d="M0 0 C0.70578871 -0.00085442 1.41157741 -0.00170885 2.13875365 -0.00258917 C4.50331522 -0.00423606 6.86780581 0.00126447 9.23236084 0.00672913 C10.92751056 0.00701119 12.62266041 0.00685288 14.31781006 0.00628662 C18.92074286 0.00599941 23.52364967 0.01188382 28.12657642 0.01886058 C32.9365558 0.02510682 37.74653575 0.02569892 42.55651855 0.02688599 C51.66537789 0.02999555 60.77422524 0.0382039 69.88307929 0.04823548 C80.25298521 0.05940824 90.6228917 0.06491 100.99280214 0.06993091 C122.32494187 0.08038681 143.65706516 0.09872765 164.98919678 0.12025452 C164.98919678 17.61025452 164.98919678 35.10025452 164.98919678 53.12025452 C142.51914923 53.18795316 120.04918415 53.24322563 97.57906055 53.27569103 C87.14599267 53.29116538 76.71299261 53.31226578 66.27996826 53.34657288 C57.18742522 53.37645782 48.09493129 53.39582539 39.0023405 53.40252 C34.18707906 53.40643379 29.37195815 53.41564357 24.55674171 53.43744469 C20.02517039 53.45779551 15.49379759 53.46409115 10.96218491 53.45957756 C9.29850244 53.46040339 7.63481339 53.46637743 5.97117043 53.47787094 C3.69994222 53.49279335 1.42946388 53.48920944 -0.84178162 53.48101807 C-2.7485104 53.48516613 -2.7485104 53.48516613 -4.69375896 53.489398 C-9.26262175 52.98094355 -11.8066983 51.32435944 -15.01080322 48.12025452 C-15.27822876 46.2742157 -15.27822876 46.2742157 -15.30133057 44.00941467 C-15.31409027 43.16158417 -15.32684998 42.31375366 -15.33999634 41.44023132 C-15.34222198 40.5225296 -15.34444763 39.60482788 -15.34674072 38.65931702 C-15.35339752 37.71720367 -15.36005432 36.77509033 -15.36691284 35.8044281 C-15.37705 33.80881201 -15.38172953 31.81316195 -15.38140869 29.81752014 C-15.3857761 26.76421632 -15.42206837 23.71236432 -15.46002197 20.65931702 C-15.46589105 18.72182197 -15.46985983 16.78432004 -15.47174072 14.84681702 C-15.49329727 13.47633713 -15.49329727 13.47633713 -15.51528931 12.07817078 C-15.46989658 5.77720036 -15.46989658 5.77720036 -13.23199463 2.57484436 C-8.9917132 -0.20198536 -4.99176737 -0.00363831 0 0 Z " fill="#FFFFFF" transform="translate(32.01080322265625,365.87974548339844)"/>
<path d="M0 0 C0.13535156 0.6290625 0.27070312 1.258125 0.41015625 1.90625 C0.62542969 2.7621875 0.84070313 3.618125 1.0625 4.5 C1.25972656 5.3353125 1.45695312 6.170625 1.66015625 7.03125 C5.90449716 16.43562052 15.67263013 23.73472189 22.98510742 30.88916016 C24.47224382 32.34628443 25.95325005 33.80941757 27.43359375 35.2734375 C28.31072021 36.13372559 29.18784668 36.99401367 30.09155273 37.88037109 C32 40 32 40 32 42 C30.34848057 42.99952293 28.6499149 43.92132229 26.9375 44.8125 C3.66873624 58.09325667 -13.30050714 81.55961984 -20.62548828 107.18847656 C-22.63684539 114.7898605 -24.02256959 122.18055673 -25 130 C-42.16 130 -59.32 130 -77 130 C-77 86.3812834 -55.81573895 47.86074824 -25.5859375 17.58203125 C-6.97699115 0 -6.97699115 0 0 0 Z " fill="#FFFFFF" transform="translate(120,118)"/>
<path d="M0 0 C17.16 0 34.32 0 52 0 C52.99 5.61 53.98 11.22 55 17 C62.4259845 44.37005717 77.34764118 67.60236846 101.0859375 83.64453125 C101.71757812 84.09183594 102.34921875 84.53914063 103 85 C103 85.33 103 85.66 103 86 C93.47290513 86.23209219 83.94678829 86.4095724 74.41747952 86.51812172 C69.99206378 86.5702322 65.56858683 86.64085391 61.14428711 86.75439453 C56.87120219 86.86336341 52.5999766 86.9229024 48.32560921 86.94877243 C46.6983112 86.96719673 45.07111086 87.00318087 43.44460869 87.05730057 C30.71674325 87.46381068 30.71674325 87.46381068 26.49368286 83.86294556 C24.67514542 81.30788528 23.31300872 78.84235584 22 76 C21.13574274 74.51712401 20.2625722 73.03935212 19.375 71.5703125 C7.22791056 49.25582531 0 25.49550431 0 0 Z " fill="#FFFFFF" transform="translate(43,264)"/>
</svg>
