<?xml version="1.0" encoding="UTF-8"?>
<svg version="1.1" xmlns="http://www.w3.org/2000/svg" width="512" height="512">
<path d="M0 0 C3 2.5625 3 2.5625 5 5 C5.680625 5.721875 6.36125 6.44375 7.0625 7.1875 C13.07676602 15.91788616 14.10716728 24.52710135 13 35 C10.18376866 46.75539263 1.98568716 54.13250294 -6.625 61.9296875 C-37.15645475 89.59881837 -56.08549036 127.7091468 -59 169 C-61.17526854 214.61653523 -46.31734962 256.58392128 -16.05859375 290.6875 C11.99534485 321.50857304 52.78635351 339.65936345 94.1875 341.8125 C140.37416738 343.58008121 181.02380417 326.53454162 215 296 C215.67546875 295.39800781 216.3509375 294.79601562 217.046875 294.17578125 C244.46666545 268.25755076 261.41029573 227.62438234 263.12451172 190.28808594 C263.8909912 162.03784202 259.54097459 135.49226074 247 110 C246.54004639 109.05350586 246.54004639 109.05350586 246.07080078 108.08789062 C239.54395637 94.8108883 231.3936768 83.14901669 221.2265625 72.40234375 C219 70 219 70 216.94140625 67.3984375 C215.17990239 65.22225365 213.44415634 63.48845913 211.3125 61.6875 C210.62027344 61.08808594 209.92804688 60.48867187 209.21484375 59.87109375 C207.72502588 58.61249981 206.21658719 57.37565578 204.69140625 56.16015625 C198.05987448 50.69165872 192.51531871 43.70502236 191 35 C190.05283851 23.7423091 191.33917039 13.94378417 198.25 4.625 C206.09501992 -2.8634281 214.58429727 -7.0060185 225.5 -7.375 C244.15540649 -6.64341543 257.59667631 8.38008169 270 21 C314.66413355 69.69685083 335.19962777 130.27186341 333 196 C332.00685068 213.05146232 328.57339065 229.57525253 324 246 C323.6294751 247.33659668 323.6294751 247.33659668 323.25146484 248.70019531 C314.06418816 280.85263162 296.61935637 310.28731479 274.02734375 334.78515625 C272.22726728 336.75171378 270.5191193 338.76540802 268.8125 340.8125 C236.04252224 378.05111109 187.31809483 400.93851762 139 409 C137.90776123 409.18618896 136.81552246 409.37237793 135.69018555 409.56420898 C124.7687515 411.23522777 113.96553881 411.35727395 102.9375 411.3125 C101.98401672 411.31034485 101.03053345 411.3081897 100.04815674 411.30596924 C86.16165544 411.25556399 72.62734843 410.90004566 59 408 C57.53868652 407.70198486 57.53868652 407.70198486 56.04785156 407.39794922 C15.70546476 399.00638076 -21.40906655 381.04030167 -51.78515625 353.02734375 C-53.75171378 351.22726728 -55.76540802 349.5191193 -57.8125 347.8125 C-99.80076906 310.96737233 -124.23818071 253.87600976 -128.8190918 198.95874023 C-132.20033146 143.65881645 -118.07366026 87.32994596 -84 43 C-83.31164062 42.10023438 -82.62328125 41.20046875 -81.9140625 40.2734375 C-77.89174192 35.13822189 -73.62201198 30.25970179 -69.22265625 25.4453125 C-67.08951605 23.09848338 -65.01367927 20.70965414 -62.9375 18.3125 C-59.23843868 14.15469683 -55.27483173 10.55221783 -51 7 C-50.13117188 6.24332031 -49.26234375 5.48664063 -48.3671875 4.70703125 C-33.45411898 -8.02515678 -17.23613808 -10.98537813 0 0 Z " fill="#FFFCFC" transform="translate(154,101)"/>
<path d="M0 0 C7.93392661 5.8329565 13.38277489 12.41675171 16 22 C16.57524973 27.59191332 16.54818527 33.14923133 16.51757812 38.765625 C16.52300677 40.44544072 16.53013358 42.12525167 16.53881836 43.80505371 C16.55696643 48.3422984 16.5500196 52.87917698 16.53730202 57.41642761 C16.52713 62.17899516 16.53657932 66.9415327 16.54284668 71.70410156 C16.55011089 79.69992666 16.54056764 87.69560367 16.52148438 95.69140625 C16.499718 104.91759739 16.50677024 114.14343488 16.52879 123.36961746 C16.54697901 131.31049233 16.54948523 139.25126113 16.53903532 147.19215012 C16.53281961 151.92637676 16.53191161 156.66043752 16.54518127 161.39465332 C16.55679026 165.84687238 16.5486225 170.29863828 16.52560425 174.75080872 C16.52034399 176.37851715 16.52178462 178.00626414 16.53065491 179.63395691 C16.59222357 192.08583052 15.00973461 202.6692058 6 212 C-1.64994238 218.47528712 -10.46656117 221.65794606 -20.49609375 221.28125 C-30.83385068 220.12006669 -39.26071941 215.66752147 -45.875 207.625 C-53.76142071 196.72640471 -53.15029454 184.69636708 -53.14526367 171.76245117 C-53.14825958 170.22248758 -53.1516631 168.68252474 -53.15544128 167.14256287 C-53.16424137 162.97713756 -53.16661771 158.81173283 -53.16725707 154.64629912 C-53.16796982 152.03904684 -53.1701084 149.43179972 -53.17275429 146.82454872 C-53.18199439 137.714979 -53.18609083 128.60542387 -53.18530273 119.49584961 C-53.18470225 111.0264398 -53.19525175 102.55709375 -53.2110464 94.08770007 C-53.22415397 86.79740291 -53.22948529 79.50712652 -53.22884732 72.21681768 C-53.22859329 67.87101039 -53.23139207 63.52525981 -53.24202538 59.17946434 C-53.25176071 55.08936265 -53.25174857 50.99937127 -53.24450874 46.90926552 C-53.24346964 45.41581179 -53.24578531 43.922351 -53.2518692 42.4289093 C-53.30334333 28.90808126 -52.97420079 15.24377378 -43 5 C-30.71869643 -4.5332099 -14.13744016 -8.66488268 0 0 Z " fill="#FFFCFC" transform="translate(274,4)"/>
</svg>
