<?xml version="1.0" encoding="UTF-8"?>
<svg version="1.1" xmlns="http://www.w3.org/2000/svg" width="512" height="512">
<path d="M0 0 C5.4340116 2.82033712 9.51945218 7.77895399 12.12109375 13.21875 C13.69199668 21.07326467 13.12006267 27.47922087 8.74609375 34.34375 C6.94907948 36.34794944 5.04055287 38.16553327 3.078125 40.0078125 C-1.89971534 44.99399093 -6.06247969 50.69469461 -10.25390625 56.34375 C-10.67961914 56.91448242 -11.10533203 57.48521484 -11.54394531 58.07324219 C-37.54412576 93.46520009 -47.20815724 138.98509561 -41.11987305 182.16210938 C-33.68034733 227.53174807 -8.59697999 267.97244647 28.61181641 294.84228516 C49.12338814 309.27218291 72.2555336 318.3764657 96.74609375 323.34375 C98.40705078 323.68599609 98.40705078 323.68599609 100.1015625 324.03515625 C142.42858451 331.13101105 189.07911846 320.34503923 224.05859375 295.46875 C231.28958989 290.17408315 238.09460606 284.34304494 244.74609375 278.34375 C245.49503906 277.66828125 246.24398438 276.9928125 247.015625 276.296875 C257.27346397 266.51954579 265.56400938 254.49927597 272.74609375 242.34375 C273.30659424 241.39556396 273.30659424 241.39556396 273.87841797 240.42822266 C296.2754967 201.87086366 301.34791844 155.84173143 290.55859375 112.84375 C283.53384446 86.67098153 270.55249974 62.07256277 251.90625 42.3046875 C251.16834229 41.51976929 251.16834229 41.51976929 250.41552734 40.71899414 C249.00916733 39.23594465 247.58703032 37.76790322 246.1640625 36.30078125 C241.54638868 30.65364219 240.10999883 25.33303298 240.3359375 18.19140625 C241.14734047 12.55795132 243.38031152 7.59564337 247.53125 3.64453125 C254.4394364 -1.47427353 261.43652656 -1.45115854 269.74609375 -0.65625 C272.98136765 0.46224534 275.21087477 2.0692647 277.74609375 4.34375 C278.38675781 4.91351563 279.02742188 5.48328125 279.6875 6.0703125 C285.24487618 11.35580139 290.03661208 17.30614871 294.74609375 23.34375 C295.17293457 23.8888623 295.59977539 24.43397461 296.03955078 24.99560547 C320.3592011 56.3043765 335.51253077 93.9125413 339.74609375 133.34375 C339.85695313 134.34535156 339.9678125 135.34695312 340.08203125 136.37890625 C345.21723238 191.27004265 328.72533815 247.07151991 294.24609375 290.09375 C256.54167207 334.93508007 205.29018701 364.44854129 146.32324219 369.87939453 C89.82074219 374.18852585 33.41597518 357.89912645 -10.25390625 321.34375 C-14.1997749 317.95133065 -18.00537605 314.42774609 -21.74072266 310.80566406 C-23.23470655 309.36229917 -24.7485175 307.94242853 -26.265625 306.5234375 C-43.70851654 289.9509838 -57.1663604 269.07604784 -67.25390625 247.34375 C-67.64795654 246.51335205 -68.04200684 245.6829541 -68.44799805 244.82739258 C-92.13058137 194.12034526 -93.32278621 134.86585754 -74.6171875 82.44140625 C-64.41983139 55.3347881 -45.39672588 16.2746931 -19.45703125 0.66015625 C-13.47543854 -1.79813246 -6.21820156 -1.81049889 0 0 Z " fill="#000000" transform="translate(129.25390625,99.65625)"/>
<path d="M0 0 C5.51100484 5.51100484 7.35096544 11.29424799 7.3930676 18.96365142 C7.39220112 19.72473275 7.39133463 20.48581409 7.39044189 21.2699585 C7.39341302 22.08444214 7.39638414 22.89892579 7.3994453 23.73809075 C7.40812602 26.47091203 7.40964002 29.20368946 7.41113281 31.93652344 C7.41576144 33.89455255 7.42078616 35.85258075 7.42617798 37.81060791 C7.4392999 43.13305216 7.44574656 48.4554838 7.45018864 53.7779417 C7.45311976 57.10343025 7.45722465 60.42891535 7.46169281 63.75440216 C7.47536733 74.15974911 7.48503415 84.56508818 7.4888947 94.97044349 C7.49337516 106.98060064 7.51092275 118.99064397 7.5398953 131.00076652 C7.5615143 140.28497417 7.5715991 149.5691498 7.57293582 158.85338235 C7.57398371 164.39804474 7.57988816 169.94260013 7.59775543 175.48723602 C7.61423976 180.70422202 7.61638979 185.92102061 7.60761642 191.13802338 C7.60684624 193.05038963 7.61118628 194.96276597 7.62107468 196.87510681 C7.63380526 199.49099577 7.62791142 202.1062221 7.61749268 204.72210693 C7.62554908 205.47426538 7.63360548 206.22642383 7.64190602 207.00137496 C7.58188841 213.46904659 6.19542997 218.93651571 1.9375 224 C-4.26427746 229.19218578 -8.47955831 231.58969001 -16.59765625 231.46875 C-22.45103207 230.87385155 -27.59930808 228.40069192 -31.75 224.25 C-36.13099636 217.91531608 -36.89903259 212.775746 -36.89044189 205.2300415 C-36.89341302 204.41555786 -36.89638414 203.60107421 -36.8994453 202.76190925 C-36.90812602 200.02908797 -36.90964002 197.29631054 -36.91113281 194.56347656 C-36.91576144 192.60544745 -36.92078616 190.64741925 -36.92617798 188.68939209 C-36.9392999 183.36694784 -36.94574656 178.0445162 -36.95018864 172.7220583 C-36.95311976 169.39656975 -36.95722465 166.07108465 -36.96169281 162.74559784 C-36.97536733 152.34025089 -36.98503415 141.93491182 -36.9888947 131.52955651 C-36.99337516 119.51939936 -37.01092275 107.50935603 -37.0398953 95.49923348 C-37.0615143 86.21502583 -37.0715991 76.9308502 -37.07293582 67.64661765 C-37.07398371 62.10195526 -37.07988816 56.55739987 -37.09775543 51.01276398 C-37.11423976 45.79577798 -37.11638979 40.57897939 -37.10761642 35.36197662 C-37.10684624 33.44961037 -37.11118628 31.53723403 -37.12107468 29.62489319 C-37.13380526 27.00900423 -37.12791142 24.3937779 -37.11749268 21.77789307 C-37.12554908 21.02573462 -37.13360548 20.27357617 -37.14190602 19.49862504 C-37.07395914 12.17647207 -35.0490972 5.5490972 -29.75 0.25 C-19.91568315 -6.55130324 -9.93984913 -6.32535854 0 0 Z " fill="#000000" transform="translate(270.75,46.75)"/>
</svg>
