<?xml version="1.0" encoding="UTF-8"?>
<svg version="1.1" xmlns="http://www.w3.org/2000/svg" width="512" height="512">
<path d="M0 0 C0.68755371 -0.00287018 1.37510742 -0.00574036 2.08349609 -0.00869751 C3.52897979 -0.01072791 4.97449162 -0.00527001 6.41992188 0.00732422 C8.61912083 0.02339454 10.81648248 0.00744268 13.015625 -0.01171875 C14.42708735 -0.00973613 15.83854856 -0.00589207 17.25 0 C19.15652344 0.00507568 19.15652344 0.00507568 21.1015625 0.01025391 C26.9786454 0.65774295 30.92322307 3.01104085 34.65625 7.59765625 C35.83178339 9.78282114 35.77429453 11.3728496 35.875 13.8359375 C36.12151824 16.2311932 36.12151824 16.2311932 37.625 18.3984375 C40.21958287 20.21495365 42.96754441 21.47231761 45.875 22.7109375 C46.6268457 23.04343506 47.37869141 23.37593262 48.15332031 23.71850586 C50.37007925 24.56636052 52.25974514 25.18438984 54.625 25.3984375 C58.01064302 23.76876974 58.01064302 23.76876974 60.625 21.3984375 C63.27677593 20.51451219 65.06790069 20.17823376 67.8125 20.0859375 C68.52792969 20.04855469 69.24335938 20.01117188 69.98046875 19.97265625 C78.28768472 21.31015483 83.76128703 26.91448701 89.4375 32.7109375 C90.18708984 33.44505859 90.93667969 34.17917969 91.70898438 34.93554688 C96.89202398 40.15564128 101.04786981 45.09656823 101.0625 52.8359375 C100.91222307 57.71158889 99.08634767 61.27642152 96.625 65.3984375 C96.295 66.0584375 95.965 66.7184375 95.625 67.3984375 C96.5537155 69.93282313 96.5537155 69.93282313 97.9375 72.7109375 C100.58180197 78.26472933 100.58180197 78.26472933 101.52734375 81.19140625 C102.39676184 83.56338119 102.39676184 83.56338119 104.578125 84.1484375 C105.33609375 84.2309375 106.0940625 84.3134375 106.875 84.3984375 C111.89366429 85.26984545 114.10046633 86.70606889 117.625 90.3984375 C120.83387163 95.21174495 120.91444223 98.80255436 120.625 104.3984375 C121.71296875 104.11484375 122.8009375 103.83125 123.921875 103.5390625 C128.20490488 102.46736495 132.51598349 101.60354565 136.84692383 100.75 C152.75713292 97.58925218 169.21466923 94.14169356 183.625 86.3984375 C184.60919922 85.87443359 184.60919922 85.87443359 185.61328125 85.33984375 C187.49326852 84.29142474 187.49326852 84.29142474 189.625 82.3984375 C190.07606469 78.55159725 190.07606469 78.55159725 188.25390625 76.90625 C168.59790228 63.75270481 141.4378911 60.4382203 118.625 56.3984375 C119.285 51.1184375 119.945 45.8384375 120.625 40.3984375 C124.84951955 39.34230761 126.84870353 39.59866708 131.05859375 40.40234375 C132.33726318 40.64525146 133.61593262 40.88815918 134.93334961 41.13842773 C136.3099713 41.41139898 137.68635064 41.68559492 139.0625 41.9609375 C139.75795929 42.09815216 140.45341858 42.23536682 141.16995239 42.3767395 C194.65884581 52.97663746 194.65884581 52.97663746 206.22932434 69.96559143 C209.02731716 74.55240826 209.34312137 78.32456012 209.2878418 83.60913086 C209.29820969 84.49317093 209.30857758 85.377211 209.31925964 86.28804016 C209.346198 89.18860301 209.33669591 92.08763971 209.32421875 94.98828125 C209.33013312 97.01795367 209.33738213 99.04762261 209.34590149 101.07728577 C209.35775907 105.32311227 209.35111197 109.56841382 209.33178711 113.81420898 C209.30891007 119.23932028 209.33567944 124.66286425 209.37684917 130.08782101 C209.40249761 134.27708973 209.39982797 138.46598698 209.38895607 142.65530586 C209.3874751 144.65467311 209.39509283 146.65406963 209.41220665 148.65336418 C209.54739758 167.50605352 209.54739758 167.50605352 204.11633301 173.95031738 C203.62419312 174.42819702 203.13205322 174.90607666 202.625 175.3984375 C201.93019531 176.10097656 201.23539062 176.80351562 200.51953125 177.52734375 C170.21993343 198.39029384 128.33667836 201.54408919 92.82879639 205.17126465 C90.66906726 205.39389494 88.5106012 205.62660388 86.35205078 205.86035156 C34.85831036 211.3120806 -19.75839167 211.20373649 -71.23370361 205.6295166 C-73.42182557 205.39338429 -75.61086288 205.16798902 -77.80029297 204.94433594 C-164.32898315 196.00131833 -164.32898315 196.00131833 -186.375 174.3984375 C-190.80629924 168.76846131 -192.11195149 164.27242126 -192.0378418 157.18774414 C-192.04820969 156.30370407 -192.05857758 155.419664 -192.06925964 154.50883484 C-192.096198 151.60827199 -192.08669591 148.70923529 -192.07421875 145.80859375 C-192.08013312 143.77892133 -192.08738213 141.74925239 -192.09590149 139.71958923 C-192.10775907 135.47376273 -192.10111197 131.22846118 -192.08178711 126.98266602 C-192.05891007 121.55755472 -192.08567944 116.13401075 -192.12684917 110.70905399 C-192.15249761 106.51978527 -192.14982797 102.33088802 -192.13895607 98.14156914 C-192.1374751 96.14220189 -192.14509283 94.14280537 -192.16220665 92.14351082 C-192.29738332 73.29280958 -192.29738332 73.29280958 -186.87663269 66.84999084 C-186.3810939 66.37097824 -185.88555511 65.89196564 -185.375 65.3984375 C-184.28058594 64.32722656 -184.28058594 64.32722656 -183.1640625 63.234375 C-162.35573789 49.18687788 -129.61644405 39.3984375 -104.375 39.3984375 C-102.8264807 45.07634158 -101.96197457 50.5468619 -101.375 56.3984375 C-102.1685791 56.54877441 -102.9621582 56.69911133 -103.77978516 56.85400391 C-140.91299858 62.49540198 -140.91299858 62.49540198 -173.375 79.3984375 C-170.97027187 85.04185168 -166.31118483 87.16949391 -160.82714844 89.46484375 C-157.98620933 90.50908083 -155.13061547 91.4692822 -152.25 92.3984375 C-151.20682617 92.7402002 -150.16365234 93.08196289 -149.08886719 93.43408203 C-134.84281941 97.98723063 -120.18710307 101.30474361 -105.375 103.3984375 C-105.13716797 102.42003906 -105.13716797 102.42003906 -104.89453125 101.421875 C-102.9689837 94.20905047 -101.00525694 89.63838327 -94.4375 85.5859375 C-91.375 84.3984375 -91.375 84.3984375 -88.3984375 84.2421875 C-85.09571607 83.67795969 -85.09571607 83.67795969 -83.44140625 80.44921875 C-82.91551258 79.21330239 -82.41485695 77.96639907 -81.9375 76.7109375 C-81.67001953 76.09798828 -81.40253906 75.48503906 -81.12695312 74.85351562 C-79.42080894 70.65274809 -79.16186446 67.75071759 -80.375 63.3984375 C-80.890625 62.4703125 -81.40625 61.5421875 -81.9375 60.5859375 C-84.04274029 55.91779599 -84.49669151 51.50515207 -82.73266602 46.61938477 C-80.08218223 40.68436847 -76.06921722 36.55721237 -71.4375 32.0859375 C-70.73431641 31.38404297 -70.03113281 30.68214844 -69.30664062 29.95898438 C-63.64949361 24.39727189 -59.11753601 20.75636475 -51.0625 20.1484375 C-46.28279083 20.47248558 -42.49652451 21.98704672 -38.5078125 24.640625 C-36.30301976 25.66547343 -36.30301976 25.66547343 -33.75390625 24.5703125 C-32.35978516 23.86648438 -32.35978516 23.86648438 -30.9375 23.1484375 C-25.39958056 20.40643566 -25.39958056 20.40643566 -22.58984375 19.4921875 C-20.2099336 18.62837732 -20.2099336 18.62837732 -19.625 16.4453125 C-19.5425 15.68734375 -19.46 14.929375 -19.375 14.1484375 C-18.50359205 9.12977321 -17.06736861 6.92297117 -13.375 3.3984375 C-8.78013829 0.62016827 -5.3392297 0.01421448 0 0 Z M-1.375 16.3984375 C-2.365 19.0384375 -3.355 21.6784375 -4.375 24.3984375 C-7.19645338 30.66833391 -10.2141422 32.87334016 -16.375 35.3984375 C-17.46941406 35.90632813 -18.56382812 36.41421875 -19.69140625 36.9375 C-35.33519428 44.05905183 -35.33519428 44.05905183 -43.6875 41.0859375 C-46.30932496 39.95915738 -48.8184285 38.67672325 -51.375 37.3984375 C-56.325 42.3484375 -61.275 47.2984375 -66.375 52.3984375 C-65.055 55.0384375 -63.735 57.6784375 -62.375 60.3984375 C-60.22425313 68.87491047 -62.98790927 74.57112698 -66.375 82.3984375 C-67.04386227 84.23097094 -67.71074821 86.06422783 -68.375 87.8984375 C-70.31424601 92.64651206 -72.4911551 96.08602904 -77.33203125 98.2890625 C-78.7124935 98.81153801 -80.10335924 99.30747101 -81.50390625 99.7734375 C-83.5712056 100.4639759 -85.45980997 101.3610429 -87.375 102.3984375 C-87.375 103.7184375 -87.375 105.0384375 -87.375 106.3984375 C-76.72878054 108.36712799 -66.17408353 108.96510574 -55.375 109.3984375 C-55.189375 107.83609375 -55.189375 107.83609375 -55 106.2421875 C-52.48323549 87.84145782 -44.3069341 71.71673381 -29.28125 60.28515625 C-13.03242675 49.73652503 3.88265564 47.52346488 22.9375 49.79296875 C25.66311858 50.43697924 28.05177742 51.28871199 30.625 52.3984375 C31.53258057 52.78563965 31.53258057 52.78563965 32.45849609 53.18066406 C48.99703082 60.39355798 60.35166199 70.8079003 67.5625 87.6015625 C70.2875682 94.77490379 71.75162233 101.80490389 72.625 109.3984375 C83.42408353 108.96510574 93.97878054 108.36712799 104.625 106.3984375 C104.295 104.7484375 103.965 103.0984375 103.625 101.3984375 C102.96113281 101.23988281 102.29726563 101.08132813 101.61328125 100.91796875 C96.00119402 99.43506687 92.19807544 98.23259839 88.625 93.3984375 C87.5204803 91.27501978 86.5703027 89.13903842 85.66796875 86.921875 C84.53673825 84.18489034 83.23786785 81.55878891 81.9375 78.8984375 C79.02930314 72.44278069 77.47969093 66.9173863 79.9375 60.0859375 C81.06428012 57.46411254 82.34671425 54.955009 83.625 52.3984375 C78.675 47.4484375 73.725 42.4984375 68.625 37.3984375 C65.985 38.7184375 63.345 40.0384375 60.625 41.3984375 C52.19774463 43.50525134 44.68359921 40.24944719 36.9375 37.0859375 C36.20466797 36.80298828 35.47183594 36.52003906 34.71679688 36.22851562 C29.42282535 34.07560205 25.25813631 31.58750732 22.55078125 26.30078125 C22.34839844 25.65238281 22.14601563 25.00398438 21.9375 24.3359375 C21.0073849 21.45429256 20.01212125 19.17268 18.625 16.3984375 C12.025 16.3984375 5.425 16.3984375 -1.375 16.3984375 Z M-28.5546875 82.09375 C-35.00960479 90.26628476 -38.79913171 100.0072105 -38.375 110.3984375 C-33.6508029 111.57214362 -28.99924262 111.63800746 -24.16015625 111.75 C-23.24825531 111.77360596 -22.33635437 111.79721191 -21.39682007 111.8215332 C-18.41049164 111.89537004 -15.42407683 111.96048836 -12.4375 112.0234375 C-10.91190964 112.05712433 -10.91190964 112.05712433 -9.35549927 112.0914917 C5.16942083 112.40066897 19.66459817 112.42374492 34.1875 112.0234375 C35.39718948 111.99144257 35.39718948 111.99144257 36.63131714 111.95880127 C46.1957884 111.81814152 46.1957884 111.81814152 55.625 110.3984375 C56.62822619 99.36294939 51.44747214 89.70971182 44.625 81.3984375 C37.28920303 72.6958293 27.1114424 66.25180104 15.62207031 65.21826172 C-2.30285071 64.11232342 -15.92979047 68.95772354 -28.5546875 82.09375 Z M-175.375 102.3984375 C-175.49100357 109.87417024 -175.57976984 117.34970799 -175.63406086 124.82615948 C-175.66012227 128.29808599 -175.69545387 131.76939542 -175.75219727 135.2409668 C-175.81706834 139.23492249 -175.84120862 143.22823308 -175.86328125 147.22265625 C-175.88908768 148.46552902 -175.9148941 149.70840179 -175.94148254 150.98893738 C-176.20948378 157.88162125 -176.20948378 157.88162125 -172.99731445 163.62255859 C-109.28463212 206.76994257 11.91857391 195.86117812 136.3203125 182.0234375 C147.66469043 179.79984458 158.75449744 176.97075829 169.75 173.3984375 C170.70366455 173.09059326 171.6573291 172.78274902 172.63989258 172.46557617 C179.90071322 169.97162808 188.24221407 166.9726164 192.625 160.3984375 C192.91568127 157.74998981 192.91568127 157.74998981 192.85205078 154.73364258 C192.85189972 153.57266556 192.85174866 152.41168854 192.85159302 151.2155304 C192.84127045 149.96233505 192.83094788 148.70913971 192.8203125 147.41796875 C192.8174826 146.13484299 192.81465271 144.85171722 192.81173706 143.52970886 C192.80410797 140.12167548 192.78446587 136.71381309 192.7623291 133.30584717 C192.74185497 129.82696852 192.732732 126.34806218 192.72265625 122.86914062 C192.70121918 116.04550276 192.66709205 109.22197834 192.625 102.3984375 C189.30892174 103.48581088 186.02787671 104.59489612 182.796875 105.9140625 C149.73173617 119.02034976 113.54338753 122.46123571 78.3828125 125.6015625 C77.65027252 125.66799957 76.91773254 125.73443665 76.16299438 125.80288696 C61.62469229 127.06065004 47.14581526 127.56914816 32.55859375 127.6015625 C31.67530962 127.60438988 30.79202549 127.60721725 29.88197517 127.61013031 C25.18685756 127.62500659 20.49176963 127.63430299 15.79663086 127.63867188 C12.01495464 127.64300912 8.23351268 127.65673113 4.4519043 127.6796875 C-51.53818772 128.0123924 -119.66674506 128.12356007 -171.15136719 103.37133789 C-173.27585698 102.26482419 -173.27585698 102.26482419 -175.375 102.3984375 Z " fill="#FFFFFF" transform="translate(247.375,295.6015625)"/>
<path d="M0 0 C0.69641602 -0.00700928 1.39283203 -0.01401855 2.11035156 -0.02124023 C4.40730932 -0.03881383 6.70303021 -0.02720107 9 -0.01367188 C10.59896073 -0.01636701 12.19791987 -0.0202496 13.796875 -0.02526855 C17.14599226 -0.03116269 20.49468243 -0.0226038 23.84375 -0.00390625 C28.13478591 0.01888377 32.42482111 0.00576017 36.71582031 -0.01819611 C40.01700366 -0.03265667 43.31795011 -0.02804703 46.61914062 -0.01768494 C48.20117308 -0.01501834 49.78322711 -0.0182851 51.36523438 -0.02760315 C53.57740163 -0.03777366 55.787953 -0.02226378 58 0 C59.8871875 0.00477356 59.8871875 0.00477356 61.8125 0.00964355 C65 0.51757812 65 0.51757812 67.40515137 2.11242676 C69.56880448 5.37537794 69.50770302 7.61353723 69.51757812 11.51757812 C69.5245874 12.21399414 69.53159668 12.91041016 69.53881836 13.62792969 C69.55639196 15.92488744 69.54477919 18.22060833 69.53125 20.51757812 C69.53394513 22.11653886 69.53782773 23.715498 69.54284668 25.31445312 C69.54874082 28.66357038 69.54018192 32.01226056 69.52148438 35.36132812 C69.49869435 39.65236403 69.51181796 43.94239924 69.53577423 48.23339844 C69.5502348 51.53458179 69.54562515 54.83552823 69.53526306 58.13671875 C69.53259646 59.71875121 69.53586322 61.30080524 69.54518127 62.8828125 C69.55535179 65.09497975 69.5398419 67.30553112 69.51757812 69.51757812 C69.51439575 70.77570313 69.51121338 72.03382812 69.50793457 73.33007812 C69 76.51757812 69 76.51757812 67.40515137 78.92272949 C64.14220018 81.0863826 61.90404089 81.02528115 58 81.03515625 C57.30358398 81.04216553 56.60716797 81.0491748 55.88964844 81.05639648 C53.59269068 81.07397008 51.29696979 81.06235732 49 81.04882812 C47.40103927 81.05152326 45.80208013 81.05540585 44.203125 81.0604248 C40.85400774 81.06631894 37.50531757 81.05776005 34.15625 81.0390625 C29.86521409 81.01627248 25.57517889 81.02939608 21.28417969 81.05335236 C17.98299634 81.06781292 14.68204989 81.06320328 11.38085938 81.05284119 C9.79882692 81.05017459 8.21677289 81.05344135 6.63476562 81.0627594 C4.42259837 81.07292991 2.212047 81.05742003 0 81.03515625 C-1.258125 81.03197388 -2.51625 81.0287915 -3.8125 81.0255127 C-7 80.51757812 -7 80.51757812 -9.40515137 78.92272949 C-11.56880448 75.65977831 -11.50770302 73.42161902 -11.51757812 69.51757812 C-11.5245874 68.82116211 -11.53159668 68.12474609 -11.53881836 67.40722656 C-11.55639196 65.11026881 -11.54477919 62.81454792 -11.53125 60.51757812 C-11.53394513 58.91861739 -11.53782773 57.31965825 -11.54284668 55.72070312 C-11.54874082 52.37158587 -11.54018192 49.02289569 -11.52148438 45.67382812 C-11.49869435 41.38279222 -11.51181796 37.09275701 -11.53577423 32.80175781 C-11.5502348 29.50057446 -11.54562515 26.19962802 -11.53526306 22.8984375 C-11.53259646 21.31640504 -11.53586322 19.73435101 -11.54518127 18.15234375 C-11.55535179 15.9401765 -11.5398419 13.72962513 -11.51757812 11.51757812 C-11.51439575 10.25945313 -11.51121338 9.00132813 -11.50793457 7.70507812 C-11 4.51757812 -11 4.51757812 -9.40515137 2.11242676 C-6.14220018 -0.05122635 -3.90404089 0.0098751 0 0 Z M5 16.51757812 C5 32.35757813 5 48.19757812 5 64.51757812 C20.84 64.51757812 36.68 64.51757812 53 64.51757812 C53 48.67757812 53 32.83757813 53 16.51757812 C37.16 16.51757812 21.32 16.51757812 5 16.51757812 Z " fill="#FFFFFF" transform="translate(291,7.482421875)"/>
<path d="M0 0 C1.35215607 -0.03850571 1.35215607 -0.03850571 2.73162842 -0.07778931 C3.70867737 -0.09256317 4.68572632 -0.10733704 5.69238281 -0.12255859 C7.19832001 -0.14677383 7.19832001 -0.14677383 8.73468018 -0.17147827 C10.86308878 -0.19917224 12.99158644 -0.22061113 15.12011719 -0.23632812 C18.36988751 -0.27072492 21.61556927 -0.35845486 24.86425781 -0.44677734 C26.9319362 -0.46703456 28.99964922 -0.48406574 31.06738281 -0.49755859 C32.52081085 -0.55008286 32.52081085 -0.55008286 34.00360107 -0.60366821 C40.59349188 -0.56148397 40.59349188 -0.56148397 43.49075317 1.95977783 C45.06982099 4.01733701 46.37286286 6.09570608 47.64550781 8.35400391 C48.35497559 9.46001953 49.06444336 10.56603516 49.79541016 11.70556641 C51.52118877 14.62350332 53.24012314 17.54445349 54.93408203 20.48095703 C56.0239116 22.35987219 57.13711934 24.22363418 58.25097656 26.08837891 C65.11177619 37.78592501 65.11177619 37.78592501 63.64550781 44.35400391 C61.90823656 48.30730431 59.80358292 51.96716684 57.58300781 55.66650391 C57.02162109 56.63523438 56.46023437 57.60396484 55.88183594 58.60205078 C45.34309896 76.65641276 45.34309896 76.65641276 41.64550781 80.35400391 C39.69903564 80.64834595 39.69903564 80.64834595 37.29101562 80.70800781 C36.38957825 80.73367828 35.48814087 80.75934875 34.55938721 80.78579712 C33.09381378 80.80795792 33.09381378 80.80795792 31.59863281 80.83056641 C30.59467468 80.8467099 29.59071655 80.86285339 28.55633545 80.87948608 C26.42792684 80.90718005 24.29942918 80.92861894 22.17089844 80.94433594 C18.92112811 80.97873273 15.67544635 81.06646267 12.42675781 81.15478516 C10.35907942 81.17504237 8.29136641 81.19207355 6.22363281 81.20556641 C5.25468079 81.24058258 4.28572876 81.27559875 3.28741455 81.31167603 C-3.30247626 81.26949178 -3.30247626 81.26949178 -6.19973755 78.74822998 C-7.77880536 76.69067081 -9.08184724 74.61230173 -10.35449219 72.35400391 C-11.06395996 71.24798828 -11.77342773 70.14197266 -12.50439453 69.00244141 C-14.23017315 66.0845045 -15.94910752 63.16355432 -17.64306641 60.22705078 C-18.73289598 58.34813562 -19.84610371 56.48437364 -20.95996094 54.61962891 C-27.82076057 42.9220828 -27.82076057 42.9220828 -26.35449219 36.35400391 C-24.61722093 32.4007035 -22.5125673 28.74084097 -20.29199219 25.04150391 C-19.73060547 24.07277344 -19.16921875 23.10404297 -18.59082031 22.10595703 C-5.7705325 0.14297254 -5.7705325 0.14297254 0 0 Z M2.09472656 20.43994141 C1.24619987 22.06155599 0.42827174 23.69964238 -0.35449219 25.35400391 C-1.14062099 26.6192656 -1.94155243 27.87551727 -2.76074219 29.11962891 C-3.46167903 30.27926707 -4.15966498 31.44069471 -4.85449219 32.60400391 C-5.22574219 33.18923828 -5.59699219 33.77447266 -5.97949219 34.37744141 C-7.1786279 36.31035833 -7.1786279 36.31035833 -8.35449219 39.35400391 C-7.27297046 42.80928236 -5.60312346 45.84247607 -3.78808594 48.96337891 C-3.30275391 49.79998047 -2.81742188 50.63658203 -2.31738281 51.49853516 C-1.81400391 52.35833984 -1.310625 53.21814453 -0.79199219 54.10400391 C-0.28474609 54.97927734 0.2225 55.85455078 0.74511719 56.75634766 C2.88578453 60.78210536 2.88578453 60.78210536 5.64550781 64.35400391 C9.8633189 64.80357264 14.09496079 64.86562651 18.33300781 64.97900391 C19.51830078 65.04990234 20.70359375 65.12080078 21.92480469 65.19384766 C28.29681805 65.48381291 28.29681805 65.48381291 33.65771484 62.56103516 C35.2228704 60.2284517 36.44501322 57.89123386 37.64550781 55.35400391 C38.43163661 54.08874222 39.23256805 52.83249054 40.05175781 51.58837891 C40.75269466 50.42874074 41.4506806 49.2673131 42.14550781 48.10400391 C42.51675781 47.51876953 42.88800781 46.93353516 43.27050781 46.33056641 C44.46964353 44.39764948 44.46964353 44.39764948 45.64550781 41.35400391 C44.56398609 37.89872545 42.89413908 34.86553174 41.07910156 31.74462891 C40.59376953 30.90802734 40.1084375 30.07142578 39.60839844 29.20947266 C38.85333008 27.91976562 38.85333008 27.91976562 38.08300781 26.60400391 C37.57576172 25.72873047 37.06851563 24.85345703 36.54589844 23.95166016 C34.40523109 19.92590245 34.40523109 19.92590245 31.64550781 16.35400391 C27.42769673 15.90443517 23.19605483 15.8423813 18.95800781 15.72900391 C17.77271484 15.65810547 16.58742188 15.58720703 15.36621094 15.51416016 C7.49988533 15.30214817 7.49988533 15.30214817 2.09472656 20.43994141 Z " fill="#FFFFFF" transform="translate(173.3544921875,7.64599609375)"/>
<path d="M0 0 C8.80288754 6.34043826 15.4186507 14.72648904 17.58203125 25.4921875 C18.92007691 37.90936834 17.85729499 48.88109459 10.39453125 59.2421875 C3.58210875 67.3274193 -4.72289951 73.55522767 -15.48876953 74.71533203 C-28.40007937 75.61089799 -39.16843729 74.04490094 -49.3515625 65.46484375 C-57.86959925 57.33325857 -62.42046403 48.68416257 -62.88867188 36.85693359 C-63.04371176 24.34263074 -60.22647828 14.71931927 -51.41796875 5.4921875 C-37.63784493 -7.66275112 -16.31305228 -10.17259803 0 0 Z M-41.97265625 21.39453125 C-46.08899974 27.36879193 -46.15842301 33.4533013 -45.41796875 40.4921875 C-43.35272363 47.30191465 -38.93598702 52.19162592 -32.85546875 55.8046875 C-26.94849722 58.54043046 -20.35017098 58.56035789 -14.1171875 56.8671875 C-7.97651782 54.19629428 -3.17453566 49.07558401 -0.24609375 43.1015625 C1.66008982 37.09528598 1.64641812 29.98927192 -0.91796875 24.1796875 C-4.40259013 18.23971013 -9.85252705 13.57583067 -16.41796875 11.4921875 C-27.85241972 10.13582504 -34.59614364 12.76572696 -41.97265625 21.39453125 Z " fill="#FFFFFF" transform="translate(94.41796875,13.5078125)"/>
<path d="M0 0 C3.0908341 0.99872252 3.95257425 1.92551584 5.72709656 4.71247864 C6.58861076 6.44191963 6.58861076 6.44191963 7.4675293 8.20629883 C7.94879776 9.1602932 7.94879776 9.1602932 8.43978882 10.13356018 C9.49641303 12.23570274 10.53551629 14.34598308 11.57421875 16.45703125 C12.30509846 17.92236814 13.03686692 19.38726204 13.76948547 20.85173035 C15.30243891 23.92232913 16.82724712 26.99679034 18.34594727 30.07446289 C20.29068383 34.01485121 22.25108232 37.94717724 24.21712017 41.87697315 C25.72925309 44.90205588 27.23510338 47.93022959 28.73887062 50.95947838 C29.45947874 52.41022658 30.18153245 53.86025768 30.90506554 55.30954933 C31.91633034 57.33860264 32.91958543 59.3714186 33.9206543 61.40551758 C34.77858833 63.13853874 34.77858833 63.13853874 35.65385437 64.90657043 C36.86897359 67.69890258 37.70255975 69.97828158 38 73 C35.72289157 78.63855422 35.72289157 78.63855422 33 80 C30.74439037 80.11264384 28.4854027 80.15939362 26.22705078 80.17700195 C25.53092682 80.18357315 24.83480286 80.19014435 24.11758423 80.19691467 C21.81015927 80.21665198 19.50279936 80.22831041 17.1953125 80.23828125 C16.40779476 80.24235678 15.62027702 80.2464323 14.80889511 80.25063133 C10.64164237 80.27149273 6.47442258 80.2857948 2.30712891 80.29516602 C-1.99954542 80.30623794 -6.3057041 80.34064613 -10.61219597 80.38033772 C-13.92189503 80.40646576 -17.23147045 80.41485436 -20.54126358 80.41844749 C-22.12891248 80.42332244 -23.71655553 80.43496228 -25.30410385 80.45348549 C-27.52590737 80.47780005 -29.74636626 80.47692702 -31.96826172 80.4699707 C-33.23241913 80.47583694 -34.49657654 80.48170319 -35.79904175 80.48774719 C-39 80 -39 80 -41.43948364 78.47062683 C-43.62978169 75.00292263 -43.60260825 71.93390433 -43 68 C-41.81880188 64.63519287 -41.81880188 64.63519287 -40.1418457 61.28027344 C-39.68572151 60.3518161 -39.68572151 60.3518161 -39.22038269 59.40460205 C-38.22114153 57.38131064 -37.19936094 55.37044863 -36.17578125 53.359375 C-35.46925942 51.94602103 -34.76380674 50.53213215 -34.05937195 49.11773682 C-32.58393838 46.16410929 -31.09756293 43.21634305 -29.6027832 40.27246094 C-27.69165397 36.50703222 -25.8057401 32.72964225 -23.92750263 28.94771957 C-22.4754927 26.0297633 -21.01171729 23.11783809 -19.54421043 20.20764923 C-18.84443081 18.81709239 -18.14795633 17.42486698 -17.45491982 16.03093719 C-16.48330257 14.0818541 -15.49643718 12.14127372 -14.50512695 10.20214844 C-13.94775345 9.0982074 -13.39037994 7.99426636 -12.81611633 6.85687256 C-9.45999646 1.57747134 -6.32080088 -0.80691075 0 0 Z M-4 28 C-6.42614866 32.8029545 -8.84708842 37.60848418 -11.26318359 42.41650391 C-12.08629062 44.05264441 -12.91083051 45.68806488 -13.73681641 47.32275391 C-14.92204878 49.66903023 -16.1021477 52.01782585 -17.28125 54.3671875 C-17.65310425 55.10057343 -18.0249585 55.83395935 -18.40808105 56.58956909 C-20.32966442 60.12070362 -20.32966442 60.12070362 -21 64 C-9.12 64 2.76 64 15 64 C13.44884967 59.34654901 11.72692434 55.1869604 9.5234375 50.8515625 C9.19332672 50.19417084 8.86321594 49.53677917 8.52310181 48.85946655 C7.47750603 46.77938683 6.4263553 44.70217356 5.375 42.625 C4.6610881 41.20721762 3.9475427 39.78925062 3.234375 38.37109375 C1.49381428 34.91191323 -0.25173082 31.45529063 -2 28 C-2.66 28 -3.32 28 -4 28 Z " fill="#FFFFFF" transform="translate(443,8)"/>
<path d="M0 0 C5.28 0 10.56 0 16 0 C16.0903524 9.84007143 16.16374533 19.67986757 16.20724869 29.52025986 C16.22812765 34.08950964 16.25645071 38.65846102 16.30175781 43.22753906 C16.34520488 47.63660873 16.36913478 52.0453913 16.37950897 56.45465851 C16.38690243 58.13721487 16.40134017 59.81975543 16.42292023 61.50218964 C16.45194003 63.85825101 16.45595675 66.21312473 16.45410156 68.56933594 C16.46848267 69.26561096 16.48286377 69.96188599 16.49768066 70.67926025 C16.47120372 73.78491873 16.23729479 75.66547628 14.4225769 78.22375488 C11.37151629 80.4608073 8.16844194 82.18689328 4.78466797 83.85058594 C4.06553223 84.21205215 3.34639648 84.57351837 2.60546875 84.94593811 C0.23820678 86.1332604 -2.13459827 87.30900117 -4.5078125 88.484375 C-6.15669422 89.30762334 -7.80528029 90.13146409 -9.45358276 90.95587158 C-12.90264029 92.67883849 -16.35431401 94.39640618 -19.80810547 96.10986328 C-24.24215406 98.30985551 -28.6708292 100.52041219 -33.09778023 102.73464584 C-36.49841267 104.43469068 -39.9011107 106.13056422 -43.3045311 107.82501984 C-44.93894316 108.63903767 -46.57286826 109.45403399 -48.20630264 110.2700119 C-50.48337016 111.40638612 -52.76298904 112.53746092 -55.04345703 113.66699219 C-55.72193695 114.00668533 -56.40041687 114.34637848 -57.09945679 114.69636536 C-61.77103757 117 -61.77103757 117 -64 117 C-64 128.55 -64 140.1 -64 152 C-69.28 152 -74.56 152 -80 152 C-80.09888089 145.80701358 -80.17147486 139.61448668 -80.21972656 133.42089844 C-80.23984126 131.31404618 -80.26713667 129.20724975 -80.30175781 127.10058594 C-80.35028168 124.07212553 -80.37297016 121.04440322 -80.390625 118.015625 C-80.41127014 117.07382385 -80.43191528 116.13202271 -80.45318604 115.16168213 C-80.45348816 114.28107117 -80.45379028 113.40046021 -80.45410156 112.49316406 C-80.46298401 111.72039124 -80.47186646 110.94761841 -80.48101807 110.15142822 C-79.78555843 107.04087666 -78.47009012 105.99827655 -76 104 C-73.60906982 102.62414133 -71.25417863 101.3635929 -68.78466797 100.14941406 C-67.70596436 99.60721474 -67.70596436 99.60721474 -66.60546875 99.05406189 C-64.23820678 97.8667396 -61.86540173 96.69099883 -59.4921875 95.515625 C-57.84330578 94.69237666 -56.19471971 93.86853591 -54.54641724 93.04412842 C-51.09735971 91.32116151 -47.64568599 89.60359382 -44.19189453 87.89013672 C-39.75784594 85.69014449 -35.3291708 83.47958781 -30.90221977 81.26535416 C-27.50158733 79.56530932 -24.0988893 77.86943578 -20.6954689 76.17498016 C-19.06105684 75.36096233 -17.42713174 74.54596601 -15.79369736 73.7299881 C-13.51662984 72.59361388 -11.23701096 71.46253908 -8.95654297 70.33300781 C-8.27806305 69.99331467 -7.59958313 69.65362152 -6.90054321 69.30363464 C-2.22896243 67 -2.22896243 67 0 67 C0 44.89 0 22.78 0 0 Z " fill="#FFFFFF" transform="translate(432,144)"/>
<path d="M0 0 C5.28 0 10.56 0 16 0 C16 22.11 16 44.22 16 67 C17.98 67.66 19.96 68.32 22 69 C24.4445886 70.12731368 26.85327557 71.27969319 29.25878906 72.48413086 C29.95870972 72.83073257 30.65863037 73.17733429 31.37976074 73.53443909 C33.67716942 74.67369555 35.97155262 75.81888556 38.265625 76.96484375 C39.86645749 77.76204502 41.4673495 78.55912677 43.06829834 79.35609436 C46.41512412 81.02353281 49.76029042 82.69424896 53.10449219 84.36694336 C57.39346356 86.51153101 61.68784853 88.64502863 65.98370743 90.77577877 C69.28749235 92.41656929 72.5876291 94.06459199 75.88677216 95.71469307 C77.46915499 96.50470328 79.05283781 97.2921151 80.63782501 98.07688713 C82.84867815 99.1725428 85.05425662 100.27816871 87.25878906 101.38647461 C87.91542542 101.70917328 88.57206177 102.03187195 89.24859619 102.36434937 C92.45698507 103.99097689 93.95769165 104.93653747 96 108 C96.24050903 110.03117371 96.24050903 110.03117371 96.22705078 112.37963867 C96.22689972 113.26032516 96.22674866 114.14101166 96.22659302 115.04838562 C96.21627045 115.99534805 96.20594788 116.94231049 96.1953125 117.91796875 C96.1924826 118.89034988 96.18965271 119.86273102 96.18673706 120.86457825 C96.17553599 123.97234366 96.15043148 127.07982159 96.125 130.1875 C96.11497011 132.29361563 96.10584427 134.39973578 96.09765625 136.50585938 C96.07559688 141.6706838 96.04106746 146.83529315 96 152 C90.72 152 85.44 152 80 152 C80 140.45 80 128.9 80 117 C78.02 116.34 76.04 115.68 74 115 C71.5554114 113.87268632 69.14672443 112.72030681 66.74121094 111.51586914 C66.04129028 111.16926743 65.34136963 110.82266571 64.62023926 110.46556091 C62.32283058 109.32630445 60.02844738 108.18111444 57.734375 107.03515625 C56.13354251 106.23795498 54.5326505 105.44087323 52.93170166 104.64390564 C49.58487588 102.97646719 46.23970958 101.30575104 42.89550781 99.63305664 C38.60653644 97.48846899 34.31215147 95.35497137 30.01629257 93.22422123 C26.71250765 91.58343071 23.4123709 89.93540801 20.11322784 88.28530693 C18.53084501 87.49529672 16.94716219 86.7078849 15.36217499 85.92311287 C13.15132185 84.8274572 10.94574338 83.72183129 8.74121094 82.61352539 C7.75625641 82.12947739 7.75625641 82.12947739 6.75140381 81.63565063 C3.54301493 80.00902311 2.04230835 79.06346253 0 76 C-0.18357089 73.52244513 -0.25249461 71.15935792 -0.22705078 68.68286133 C-0.22734283 67.94115189 -0.22763489 67.19944244 -0.22793579 66.43525696 C-0.22654264 63.98406265 -0.21098227 61.53317245 -0.1953125 59.08203125 C-0.19158232 57.38238186 -0.18873537 55.68273031 -0.18673706 53.983078 C-0.17910102 49.50975609 -0.15945279 45.03656406 -0.1373291 40.56329346 C-0.11687004 35.99859372 -0.10773522 31.433873 -0.09765625 26.86914062 C-0.07620685 17.91269417 -0.04102495 8.95637821 0 0 Z " fill="#FFFFFF" transform="translate(64,144)"/>
<path d="M0 0 C5.28 0 10.56 0 16 0 C16.09040438 7.75391441 16.16377491 15.50754036 16.20724869 23.26183701 C16.22811513 26.86258286 16.25641421 30.46294916 16.30175781 34.06347656 C16.34525125 37.53887913 16.36914421 41.01391688 16.37950897 44.48957062 C16.39048615 46.45945784 16.421707 48.42919847 16.45318604 50.39886475 C16.45348816 51.59980774 16.45379028 52.80075073 16.45410156 54.03808594 C16.46298401 55.09509705 16.47186646 56.15210815 16.48101807 57.2411499 C15.87599543 60.71122071 14.70645539 61.81895677 12 64 C10.0381331 65.15058907 8.02961183 66.22359358 5.9921875 67.234375 C4.84105469 67.80800781 3.68992187 68.38164062 2.50390625 68.97265625 C1.90852051 69.26414551 1.31313477 69.55563477 0.69970703 69.85595703 C-1.13071201 70.75279869 -2.95431652 71.66246017 -4.77734375 72.57421875 C-13.71922832 77 -13.71922832 77 -16 77 C-16 93.83 -16 110.66 -16 128 C-21.28 128 -26.56 128 -32 128 C-32.09040438 120.24608559 -32.16377491 112.49245964 -32.20724869 104.73816299 C-32.22811513 101.13741714 -32.25641421 97.53705084 -32.30175781 93.93652344 C-32.34525125 90.46112087 -32.36914421 86.98608312 -32.37950897 83.51042938 C-32.39048615 81.54054216 -32.421707 79.57080153 -32.45318604 77.60113525 C-32.45348816 76.40019226 -32.45379028 75.19924927 -32.45410156 73.96191406 C-32.46298401 72.90490295 -32.47186646 71.84789185 -32.48101807 70.7588501 C-31.87599543 67.28877929 -30.70645539 66.18104323 -28 64 C-26.0381331 62.84941093 -24.02961183 61.77640642 -21.9921875 60.765625 C-20.84105469 60.19199219 -19.68992187 59.61835938 -18.50390625 59.02734375 C-17.90852051 58.73585449 -17.31313477 58.44436523 -16.69970703 58.14404297 C-14.86928799 57.24720131 -13.04568348 56.33753983 -11.22265625 55.42578125 C-2.28077168 51 -2.28077168 51 0 51 C0 34.17 0 17.34 0 0 Z " fill="#FFFFFF" transform="translate(312,144)"/>
<path d="M0 0 C5.28 0 10.56 0 16 0 C16 16.83 16 33.66 16 51 C17.98 51.66 19.96 52.32 22 53 C26.14172217 54.85994661 30.18848402 56.90915384 34.25 58.9375 C35.35085937 59.47568359 36.45171875 60.01386719 37.5859375 60.56835938 C38.63523438 61.09107422 39.68453125 61.61378906 40.765625 62.15234375 C41.72243164 62.62663818 42.67923828 63.10093262 43.66503906 63.58959961 C46 65 46 65 48 68 C48.24050903 70.63859558 48.24050903 70.63859558 48.22705078 73.84838867 C48.22689972 75.0494072 48.22674866 76.25042572 48.22659302 77.48783875 C48.21627045 78.78478165 48.20594788 80.08172455 48.1953125 81.41796875 C48.19158155 82.75889373 48.18873497 84.09982144 48.18673706 85.44075012 C48.17910699 88.96714833 48.15946403 92.49338134 48.1373291 96.01971436 C48.1168571 99.61923996 48.10773245 103.21879231 48.09765625 106.81835938 C48.07621743 113.87898021 48.04104046 120.93946194 48 128 C42.72 128 37.44 128 32 128 C32 111.17 32 94.34 32 77 C30.02 76.34 28.04 75.68 26 75 C21.85827783 73.14005339 17.81151598 71.09084616 13.75 69.0625 C12.64914063 68.52431641 11.54828125 67.98613281 10.4140625 67.43164062 C9.36476562 66.90892578 8.31546875 66.38621094 7.234375 65.84765625 C6.27756836 65.37336182 5.32076172 64.89906738 4.33496094 64.41040039 C2 63 2 63 0 60 C-0.24050903 57.36140442 -0.24050903 57.36140442 -0.22705078 54.15161133 C-0.22689972 52.9505928 -0.22674866 51.74957428 -0.22659302 50.51216125 C-0.21627045 49.21521835 -0.20594788 47.91827545 -0.1953125 46.58203125 C-0.19158155 45.24110627 -0.18873497 43.90017856 -0.18673706 42.55924988 C-0.17910699 39.03285167 -0.15946403 35.50661866 -0.1373291 31.98028564 C-0.1168571 28.38076004 -0.10773245 24.78120769 -0.09765625 21.18164062 C-0.07621743 14.12101979 -0.04104046 7.06053806 0 0 Z " fill="#FFFFFF" transform="translate(184,144)"/>
<path d="M0 0 C5.28 0 10.56 0 16 0 C16 5.28 16 10.56 16 16 C10.72 16 5.44 16 0 16 C0 10.72 0 5.44 0 0 Z " fill="#FFFFFF" transform="translate(432,112)"/>
<path d="M0 0 C5.28 0 10.56 0 16 0 C16 5.28 16 10.56 16 16 C10.72 16 5.44 16 0 16 C0 10.72 0 5.44 0 0 Z " fill="#FFFFFF" transform="translate(312,112)"/>
<path d="M0 0 C5.28 0 10.56 0 16 0 C16 5.28 16 10.56 16 16 C10.72 16 5.44 16 0 16 C0 10.72 0 5.44 0 0 Z " fill="#FFFFFF" transform="translate(184,112)"/>
<path d="M0 0 C5.28 0 10.56 0 16 0 C16 5.28 16 10.56 16 16 C10.72 16 5.44 16 0 16 C0 10.72 0 5.44 0 0 Z " fill="#FFFFFF" transform="translate(64,112)"/>
</svg>
