<?xml version="1.0" encoding="UTF-8"?>
<svg version="1.1" xmlns="http://www.w3.org/2000/svg" width="512" height="512">
<path d="M0 0 C4.04039453 -0.72668966 5.70473726 -0.18684313 9.19140625 2.01953125 C10.32750069 2.93535221 11.45066392 3.86737612 12.5625 4.8125 C13.16674805 5.30661377 13.77099609 5.80072754 14.39355469 6.30981445 C16.27639395 7.85720253 18.13995221 9.42531999 20 11 C20.5779834 11.4856543 21.1559668 11.97130859 21.75146484 12.47167969 C24.50416445 14.78499238 27.2460863 17.11039057 29.98046875 19.4453125 C32.64194879 21.69706922 35.33281107 23.89442171 38.0625 26.0625 C38.84753906 26.68898438 39.63257813 27.31546875 40.44140625 27.9609375 C41.81276799 29.05383953 43.18491343 30.14578046 44.56201172 31.23144531 C46.21624164 32.54016843 47.8586974 33.86261676 49.5 35.1875 C50.5003125 35.98542969 51.500625 36.78335938 52.53125 37.60546875 C55.06005593 40.05825046 56.08524277 41.63303213 57 45 C56.79209322 49.98976274 55.23539068 52.30884124 52 56 C50.43502195 57.37912007 48.82709768 58.71048539 47.1875 60 C42.5767549 63.69596345 38.07840394 67.49105145 33.625 71.375 C7.97130885 93.69335196 7.97130885 93.69335196 3.1875 94.4375 C1 94 1 94 -1 92 C-1.22705078 89.47802734 -1.22705078 89.47802734 -1.1953125 86.3359375 C-1.18564453 84.65371094 -1.18564453 84.65371094 -1.17578125 82.9375 C-1.15064453 81.1740625 -1.15064453 81.1740625 -1.125 79.375 C-1.11597656 78.19164063 -1.10695312 77.00828125 -1.09765625 75.7890625 C-1.07402812 72.85917477 -1.04108514 69.9296866 -1 67 C-23.50298925 68.23585549 -45.74796324 71.19198745 -67 79 C-67.77118164 79.28214355 -68.54236328 79.56428711 -69.33691406 79.85498047 C-106.61541749 93.70065349 -139.46696724 117.77284345 -163 150 C-163.41459473 150.56493164 -163.82918945 151.12986328 -164.25634766 151.71191406 C-184.64610243 179.88420306 -196.59387717 212.6816564 -201 247 C-201.13277344 248.02996094 -201.26554687 249.05992187 -201.40234375 250.12109375 C-206.60217866 300.33867743 -191.63081894 353.76190472 -159.99584961 393.22021484 C-156.4561403 397.54009719 -152.76919999 401.72118724 -148.984375 405.828125 C-147.23881698 407.73861763 -145.58142549 409.69004214 -143.9375 411.6875 C-140.62866285 415.55079094 -136.91321535 418.76147695 -133 422 C-132.49887695 422.42410156 -131.99775391 422.84820312 -131.48144531 423.28515625 C-116.74860017 435.72276097 -100.61302159 446.11855998 -83 454 C-82.25202148 454.33483398 -81.50404297 454.66966797 -80.73339844 455.01464844 C-32.80352161 476.08163929 22.41421127 477.46358943 71.43847656 459.01074219 C81.04275727 455.2210241 90.50073806 451.00407012 99.5 445.9375 C105.81783243 442.70017097 112.71518542 442.96589171 119.375 445.0625 C124.13873308 448.5785887 128.5964045 453.10489891 130 459 C130.89086173 465.11399627 129.91677339 470.20213343 126.890625 475.59765625 C122.97373456 480.57469679 117.57528413 483.22129678 112 486 C111.21915039 486.391875 110.43830078 486.78375 109.63378906 487.1875 C88.73063569 497.50606395 66.87020987 504.60319363 44 509 C42.81857422 509.24556641 42.81857422 509.24556641 41.61328125 509.49609375 C12.82996672 515.32989787 -20.39467816 514.15682111 -49 508 C-50.52778076 507.67854004 -50.52778076 507.67854004 -52.08642578 507.35058594 C-90.34032879 499.08499972 -124.97813093 482.02565906 -155 457 C-155.54156738 456.54866699 -156.08313477 456.09733398 -156.64111328 455.63232422 C-166.84696597 447.09411293 -176.45770989 438.23732214 -185 428 C-185.41588379 427.50854492 -185.83176758 427.01708984 -186.26025391 426.51074219 C-228.15828317 376.76514554 -247.45774958 312.33598223 -242.3125 247.75 C-236.44298386 183.61666367 -205.41399351 124.10392235 -156.09375 82.62890625 C-153.33083499 80.39355046 -150.5024175 78.26026542 -147.62255859 76.17822266 C-145.98600262 74.98983579 -144.37738712 73.76982531 -142.76953125 72.54296875 C-109.4647105 47.51138281 -69.13465923 32.9638459 -28 28 C-26.43765625 27.80277344 -26.43765625 27.80277344 -24.84375 27.6015625 C-17.24822835 26.77499103 -9.62959073 26.90733291 -2 27 C-2.01047363 26.2886792 -2.02094727 25.5773584 -2.03173828 24.84448242 C-2.07328001 21.62552414 -2.09932039 18.40662224 -2.125 15.1875 C-2.14175781 14.06794922 -2.15851563 12.94839844 -2.17578125 11.79492188 C-2.18222656 10.72177734 -2.18867188 9.64863281 -2.1953125 8.54296875 C-2.20578613 7.55321045 -2.21625977 6.56345215 -2.22705078 5.54370117 C-2 3 -2 3 0 0 Z " fill="#FFFFFF" transform="translate(256,0)"/>
<path d="M0 0 C5.84100863 0.45927846 11.13544381 1.43752186 16.66796875 3.421875 C17.39575027 3.67378601 18.1235318 3.92569702 18.87336731 4.1852417 C20.46835675 4.73845469 22.06187109 5.2959349 23.65405273 5.85717773 C27.20371378 7.10812796 30.76068705 8.33769446 34.31716919 9.5690918 C36.29204198 10.25309706 38.26653828 10.93819012 40.24069214 11.62426758 C52.46144229 15.86748909 64.71982554 19.99959253 76.97567749 24.13998413 C83.6438919 26.39300663 90.31014394 28.6518269 96.9765625 30.91015625 C97.62312742 31.1291691 98.26969234 31.34818195 98.93585014 31.57383156 C103.29065872 33.0489497 107.64536308 34.52437518 112 36 C113.10291382 36.37372742 114.20582764 36.74745483 115.34216309 37.13250732 C121.1679475 39.1071202 126.99275493 41.08456387 132.81591797 43.06689453 C134.48293656 43.63401801 136.15024042 44.20030387 137.81787109 44.765625 C145.90289065 47.5071068 153.96499569 50.30376618 161.9765625 53.25390625 C162.65536469 53.50003159 163.33416687 53.74615692 164.03353882 53.9997406 C166.87131402 55.05871346 168.83200197 55.83200197 171 58 C170.67744946 64.01655501 169.12179544 69.24527145 167.0625 74.875 C166.79759766 75.63296875 166.53269531 76.3909375 166.25976562 77.171875 C164.26524575 82.73475425 164.26524575 82.73475425 162 85 C159.8359375 85.1953125 159.8359375 85.1953125 157.375 85.125 C156.55773437 85.10695313 155.74046875 85.08890625 154.8984375 85.0703125 C154.27195312 85.04710937 153.64546875 85.02390625 153 85 C152.6376123 86.09876465 152.27522461 87.1975293 151.90185547 88.32958984 C150.53849401 92.45250297 149.15922614 96.56995359 147.77539062 100.68603516 C147.18160207 102.45935055 146.59198622 104.23406938 146.00683594 106.01025391 C137.37928474 132.17264039 137.37928474 132.17264039 126 140 C119.11359446 143.43081147 111.95892138 145.03904054 104.4453125 146.4453125 C102.26259765 146.88592963 100.08031678 147.32870117 97.8984375 147.7734375 C94.49815813 148.45861992 91.09744254 149.13013571 87.6875 149.765625 C84.36825052 150.38988752 81.06414555 151.06881874 77.7578125 151.7578125 C76.738013 151.934263 75.7182135 152.1107135 74.66751099 152.29251099 C71.78285527 152.92076601 69.54499849 153.49761643 67 155 C64.96885671 158.18064218 63.8761189 161.34327056 63 165 C63.68964844 165.81082031 64.37929688 166.62164062 65.08984375 167.45703125 C70.34999304 173.65164833 75.55874972 179.87999966 80.68359375 186.1875 C82.80608085 188.76455011 84.96437936 191.3042597 87.13891602 193.8371582 C104.49138637 214.10601014 104.49138637 214.10601014 103.9375 225.51953125 C103.04345966 234.60805964 99.4779645 243.14061982 96.4375 251.6875 C95.81460168 253.46769575 95.19284699 255.2482921 94.57226562 257.02929688 C93.06132967 261.35759823 91.53499673 265.6801761 90 270 C91.423125 270.433125 91.423125 270.433125 92.875 270.875 C96 272 96 272 98 274 C97.89244644 280.264995 95.26936761 286.68141966 93.25 292.5625 C93.02248047 293.27744629 92.79496094 293.99239258 92.56054688 294.72900391 C91.828125 296.75390625 91.828125 296.75390625 90 300 C85.16141729 301.48577098 81.8816779 300.65541979 77.17651367 299.04077148 C76.51887874 298.81927461 75.8612438 298.59777773 75.18368053 298.36956882 C73.00717051 297.6329022 70.83781852 296.87713058 68.66796875 296.12109375 C67.1298495 295.59622639 65.59131697 295.07256877 64.05239868 294.55004883 C59.94243815 293.15089253 55.83832059 291.73529118 51.73511124 290.31647873 C47.47805801 288.84770705 43.21573469 287.39439843 38.95385742 285.93969727 C31.4786764 283.38600931 24.00761329 280.82054444 16.53855801 278.2490015 C10.24066773 276.08123476 3.93834606 273.92668858 -2.3671875 271.78125 C-7.17590283 270.14491123 -11.98456796 268.50856217 -16.7890625 266.85986328 C-24.66323551 264.15785886 -32.54369679 261.47640608 -40.43565369 258.82670593 C-44.82376724 257.35292974 -49.21008074 255.87383429 -53.59634399 254.39456177 C-55.71912422 253.68036155 -57.84278705 252.96877865 -59.96737671 252.25997925 C-62.90369877 251.28019092 -65.83686191 250.29143953 -68.76953125 249.30078125 C-69.64654694 249.01081268 -70.52356262 248.72084412 -71.42715454 248.42208862 C-75.41408243 247.06611781 -78.82476063 245.88653173 -82 243 C-81.44750292 236.98392064 -80.1338325 231.78763561 -78.0625 226.125 C-77.79759766 225.36703125 -77.53269531 224.6090625 -77.25976562 223.828125 C-75.26524575 218.26524575 -75.26524575 218.26524575 -73 216 C-69.9631845 216.0328897 -67.00334123 216.57095125 -64 217 C-63.83346924 216.35240723 -63.66693848 215.70481445 -63.49536133 215.03759766 C-61.55493177 207.68968107 -59.23473297 200.53337779 -56.6875 193.375 C-56.32205078 192.30765625 -55.95660156 191.2403125 -55.58007812 190.140625 C-51.971428 179.99402328 -46.98990641 169.87059403 -36.85498047 164.96087646 C-30.46720284 162.38164129 -24.09986843 160.66205007 -17.375 159.203125 C-16.30628662 158.9646283 -15.23757324 158.72613159 -14.13647461 158.48040771 C-11.89865362 157.98253636 -9.65994795 157.48862612 -7.42041016 156.99853516 C-3.98019167 156.24566507 -0.54267652 155.48133081 2.89453125 154.71484375 C5.07537524 154.23111399 7.25635993 153.74801799 9.4375 153.265625 C10.46762207 153.03756165 11.49774414 152.80949829 12.55908203 152.57452393 C13.98196533 152.26354767 13.98196533 152.26354767 15.43359375 151.94628906 C16.26947021 151.76294006 17.10534668 151.57959106 17.96655273 151.39068604 C20 151 20 151 22 151 C23.41849795 147.61177433 24.13877618 144.68748146 24 141 C21.96359326 137.35590372 19.27696553 134.49082707 16.39697266 131.48583984 C13.98510195 128.9205401 11.75742037 126.20078537 9.5 123.5 C8.56697803 122.39925467 7.63338793 121.29899065 6.69921875 120.19921875 C2.73755562 115.51648504 -1.13489243 110.76249086 -5 106 C-6.10408203 104.66582031 -6.10408203 104.66582031 -7.23046875 103.3046875 C-7.93816406 102.44101563 -8.64585937 101.57734375 -9.375 100.6875 C-10.00148438 99.92824219 -10.62796875 99.16898437 -11.2734375 98.38671875 C-16.63221679 90.97899444 -17.21724131 83.91666223 -16 75 C-14.61797832 68.68704208 -12.37059059 62.63290838 -10.1875 56.5625 C-9.63267344 54.96491777 -9.0799281 53.36661119 -8.52929688 51.76757812 C-6.11874589 44.80675033 -3.60058964 37.89202032 -1 31 C-1.94875 30.71125 -2.8975 30.4225 -3.875 30.125 C-7 29 -7 29 -9 27 C-8.65304648 21.42042087 -6.96361463 16.47464595 -5.0625 11.25 C-4.79759766 10.49589844 -4.53269531 9.74179688 -4.25976562 8.96484375 C-3.06334482 5.62199057 -1.98984499 2.98476749 0 0 Z M15 37 C13.16459231 42.19531118 11.33156595 47.39145402 9.50073242 52.58837891 C8.87768741 54.3558618 8.25399455 56.12311646 7.62963867 57.89013672 C6.73185158 60.431367 5.83640445 62.97341137 4.94140625 65.515625 C4.6622084 66.30430969 4.38301056 67.09299438 4.09535217 67.90557861 C3.83515793 68.64604431 3.57496368 69.38651001 3.30688477 70.14941406 C3.07816177 70.79783264 2.84943878 71.44625122 2.61378479 72.11431885 C1.12518685 76.68761737 0.13724269 81.1928845 1 86 C2.45207807 88.62671195 4.36340904 90.65882761 6.4375 92.8125 C7.55188634 94.03675541 8.66515859 95.26202581 9.77734375 96.48828125 C10.60468018 97.38281006 10.60468018 97.38281006 11.44873047 98.29541016 C13.5641987 100.61996149 15.53382731 103.04862079 17.5 105.5 C20.4356513 109.12294534 23.43596729 112.67490057 26.49511719 116.19311523 C30.68484404 121.02304801 34.83266875 125.88310268 38.75 130.9375 C39.38421875 131.75089844 40.0184375 132.56429687 40.671875 133.40234375 C43.22568332 138.39729237 42.18520072 142.80428574 40.609375 147.953125 C40.00106976 149.72274024 39.38100047 151.48834971 38.75 153.25 C38.44964844 154.1471875 38.14929688 155.044375 37.83984375 155.96875 C37.38544922 157.26039063 37.38544922 157.26039063 36.921875 158.578125 C36.64956055 159.35575195 36.37724609 160.13337891 36.09667969 160.93457031 C34.35648821 164.21195676 32.04548014 165.66787523 28.53622437 166.78268433 C27.61596466 166.97412018 26.69570496 167.16555603 25.74755859 167.36279297 C24.69901703 167.58667694 23.65047546 167.81056091 22.57015991 168.04122925 C21.44099152 168.27254547 20.31182312 168.50386169 19.1484375 168.7421875 C16.7460646 169.25637422 14.3437218 169.77070164 11.94140625 170.28515625 C8.16379765 171.08124158 4.3853037 171.87285223 0.60595703 172.66064453 C-3.04909414 173.4263234 -6.70032102 174.20857373 -10.3515625 174.9921875 C-11.46858551 175.21945526 -12.58560852 175.44672302 -13.73648071 175.68087769 C-21.50198473 177.35544842 -29.89678524 179.19772118 -35.11767578 185.59472656 C-35.5145459 186.51737305 -35.91141602 187.44001953 -36.3203125 188.390625 C-36.77825195 189.44185547 -37.23619141 190.49308594 -37.70800781 191.57617188 C-39.97195766 197.57572454 -41.99383925 203.6202313 -43.875 209.75 C-44.2803219 211.04456178 -44.68656785 212.33883462 -45.09375 213.6328125 C-46.07156517 216.75250852 -47.04011138 219.87475142 -48 223 C-20.94052492 232.57492848 6.22011168 241.84726647 33.41110611 251.04062653 C36.06989227 251.94000055 38.72827813 252.84054886 41.38656616 253.74139404 C45.61782586 255.17503573 49.85016907 256.60543156 54.0833931 258.03326225 C55.66866084 258.56842625 57.25359262 259.1045865 58.83817673 259.64177132 C61.02014832 260.38116139 63.20336495 261.11674771 65.38696289 261.85131836 C66.62072159 262.26796249 67.85448029 262.68460663 69.12562561 263.11387634 C71.81722938 264.09820078 71.81722938 264.09820078 74 264 C75.6968129 259.12743407 77.38728116 254.2527299 79.07202148 249.37597656 C79.64549616 247.7188046 80.22067091 246.06221992 80.79760742 244.40625 C81.62871589 242.01977115 82.45359749 239.63121605 83.27734375 237.2421875 C83.53466782 236.50757294 83.79199188 235.77295837 84.05711365 235.01608276 C86.92070629 227.32098122 86.92070629 227.32098122 85.44921875 219.578125 C82.93790579 215.65561132 79.91836691 212.20791961 76.8125 208.75 C75.64334604 207.42552444 74.47538205 206.09999754 73.30859375 204.7734375 C72.74124512 204.12987305 72.17389648 203.48630859 71.58935547 202.82324219 C68.72581972 199.53831362 65.99816626 196.14533468 63.2578125 192.7578125 C61.10744767 190.13124231 58.91878686 187.54373278 56.71240234 184.96435547 C55.28913252 183.29587455 53.87712526 181.61856176 52.46875 179.9375 C51.05269559 178.2525745 49.62310574 176.57838947 48.15625 174.9375 C45.63850598 171.91620718 45.00372357 170.07695384 44.8125 166.125 C45.67153233 161.35902254 47.26501043 156.767527 48.8125 152.1875 C49.06040283 151.44580566 49.30830566 150.70411133 49.5637207 149.93994141 C49.94403442 148.87718994 49.94403442 148.87718994 50.33203125 147.79296875 C50.55608643 147.1589917 50.7801416 146.52501465 51.01098633 145.87182617 C52.81141159 142.46430692 54.96410948 140.37786673 58.59785461 139.05236816 C59.58045761 138.84237183 60.56306061 138.63237549 61.57543945 138.41601562 C62.69372635 138.16895874 63.81201324 137.92190186 64.96418762 137.6673584 C66.16838852 137.41619263 67.37258942 137.16502686 68.61328125 136.90625 C69.85619431 136.6328479 71.09910736 136.3594458 72.37968445 136.07775879 C76.35439007 135.20444029 80.3328265 134.35028266 84.3125 133.5 C88.28138513 132.64955893 92.2486157 131.79265588 96.21318054 130.92224121 C98.67931314 130.38101878 101.14786297 129.8506648 103.61897278 129.3326416 C114.13269046 127.04995287 114.13269046 127.04995287 122.2331543 120.30175781 C124.34436282 116.35647881 125.8465356 112.40571331 127.26953125 108.171875 C127.69742195 106.92654999 127.69742195 106.92654999 128.13395691 105.65606689 C128.73051436 103.91278378 129.32275954 102.16801959 129.91088867 100.421875 C130.81572381 97.7404464 131.73792692 95.06543878 132.66210938 92.390625 C133.24062379 90.69306256 133.81813388 88.99515744 134.39453125 87.296875 C134.80998955 86.09378693 134.80998955 86.09378693 135.23384094 84.86639404 C135.88043903 82.92929727 136.44799946 80.96614557 137 79 C136.08198416 76.60429865 136.08198416 76.60429865 132.68164062 75.70996094 C131.17567921 75.21049055 129.66695553 74.71930721 128.15625 74.234375 C127.33721695 73.96464874 126.5181839 73.69492249 125.67433167 73.41702271 C123.89080437 72.83044373 122.10616843 72.24722768 120.32058716 71.66693115 C115.50954744 70.10293332 110.70669496 68.51408563 105.90234375 66.9296875 C104.91133163 66.60368561 103.92031952 66.27768372 102.89927673 65.94180298 C92.92883285 62.65843275 82.99302679 59.2768398 73.0625 55.875 C71.37356189 55.29761061 69.68459712 54.72029918 67.99560547 54.14306641 C60.42253715 51.55304697 52.85332976 48.95221726 45.29069519 46.33187866 C42.0130035 45.19647338 38.73428156 44.06405911 35.45553589 42.93170166 C33.17622596 42.14273157 30.89876378 41.34858807 28.62133789 40.55419922 C27.25024857 40.08015538 25.87907822 39.60634582 24.5078125 39.1328125 C23.31816895 38.71918457 22.12852539 38.30555664 20.90283203 37.87939453 C18.02699496 36.85503428 18.02699496 36.85503428 15 37 Z " fill="#FFFFFF" transform="translate(213,122)"/>
<path d="M0 0 C4.93446743 2.88180987 7.75169669 6.31082853 10 11.625 C11.80104515 22.43127093 7.90585749 32.04671238 2.625 41.375 C-0.72973353 45.94511368 -3.96300612 48.60057578 -9.375 50.375 C-16.46181099 51.28601008 -22.53674416 50.66081054 -28.375 46.375 C-33.0659948 42.22251225 -35.10695325 37.50291987 -35.51171875 31.26953125 C-35.19682958 21.37538209 -30.06011104 9.63686572 -23.375 2.375 C-16.6699018 -2.83675785 -7.66911891 -3.44386849 0 0 Z " fill="#FFFFFF" transform="translate(473.375,332.625)"/>
<path d="M0 0 C8.13937897 4.71848056 17.45153877 10.55728918 21.3125 19.4375 C22.87194094 25.93517058 22.46293089 31.78176748 19.0625 37.5625 C14.84910061 42.40221551 10.53670208 45.65384006 4.0625 46.5625 C-6.99297644 47.05937535 -15.98452668 39.49294818 -23.9375 32.5625 C-28.94717546 27.051857 -29.23081261 22.74438526 -29.15234375 15.5078125 C-28.78076765 10.41384197 -26.8826306 7.66089502 -23.625 3.875 C-16.86903906 -1.93826872 -8.38040617 -3.81404707 0 0 Z " fill="#FFFFFF" transform="translate(386.9375,64.4375)"/>
<path d="M0 0 C5.2044124 3.93504352 9.30234689 8.38470382 10.5625 14.9375 C10.78119251 18.61980903 10.71437484 22.25331042 10.5625 25.9375 C10.51802734 27.360625 10.51802734 27.360625 10.47265625 28.8125 C10.08461677 35.62685193 8.89628106 41.34727424 4.140625 46.46875 C-1.19899219 51.20284359 -5.90358658 52.41598603 -12.875 52.25 C-18.40452854 51.57566725 -22.63731629 49.14663585 -26.3125 45 C-30.93249101 38.34177766 -30.72962019 32.80589862 -30.4375 24.9375 C-30.40785156 23.89207031 -30.37820313 22.84664063 -30.34765625 21.76953125 C-29.95997933 14.30911442 -29.0173639 8.54055956 -23.62890625 3.1171875 C-16.56811327 -2.45371338 -8.40842457 -2.5989676 0 0 Z " fill="#FFFFFF" transform="translate(488.4375,258.0625)"/>
<path d="M0 0 C4.98153202 2.80329558 8.67008384 6.72824405 10.5546875 12.15625 C11.63665765 19.90239027 11.12085595 25.67421927 6.5546875 32.15625 C4.70076759 34.51144582 2.72507185 36.7166068 0.6796875 38.90625 C0.17566406 39.46957031 -0.32835937 40.03289062 -0.84765625 40.61328125 C-5.45990185 45.60299964 -10.27212399 48.60764869 -17.23828125 49.20703125 C-22.61080683 49.08341562 -27.36923843 47.85763667 -31.56640625 44.41796875 C-35.87449046 39.80536299 -38.46778525 35.42607184 -38.43359375 28.9296875 C-37.79050391 20.38373809 -33.84461872 15.04362222 -28.1328125 8.96875 C-27.57658203 8.35322266 -27.02035156 7.73769531 -26.44726562 7.10351562 C-19.23120126 -0.65018334 -10.40484597 -3.59017049 0 0 Z " fill="#FFFFFF" transform="translate(433.4453125,396.84375)"/>
<path d="M0 0 C6.50532782 6.11036149 14.25435701 15.40333104 15.5234375 24.44921875 C15.63702563 31.48032423 14.42612538 36.67621239 9.46875 41.84765625 C3.92446755 46.79287428 -0.43704783 47.41689174 -7.8046875 47.328125 C-13.56295947 46.80464573 -16.97828507 44.17542812 -20.8125 39.9296875 C-21.83295476 38.65411905 -22.83119616 37.36061458 -23.8125 36.0546875 C-24.73289062 34.83458984 -24.73289062 34.83458984 -25.671875 33.58984375 C-30.57214827 26.85703027 -33.55078194 21.618758 -32.8125 13.0546875 C-31.42052637 6.08103745 -27.63589427 1.9657612 -21.8125 -1.9453125 C-14.50567364 -5.13374582 -6.61673748 -4.50898643 0 0 Z " fill="#FFFFFF" transform="translate(445.8125,117.9453125)"/>
<path d="M0 0 C8.92504774 5.47977141 10.91315562 13.84789596 13.51953125 23.5390625 C15.07772424 30.46348134 15.15489289 35.78562654 11.62890625 42.08203125 C8.65867306 46.19200508 5.10333782 49.33534573 0.28515625 50.94140625 C-6.67119845 51.60754145 -13.28538221 52.03001275 -19.07421875 47.6640625 C-25.93534652 40.45987834 -29.43951684 27.96658357 -29.8828125 18.265625 C-29.61179495 12.90199866 -28.54553854 8.92084499 -24.83984375 4.9140625 C-17.77360372 -1.43775988 -9.23465668 -3.60085174 0 0 Z " fill="#FFFFFF" transform="translate(477.71484375,183.05859375)"/>
</svg>
