<?xml version="1.0" encoding="UTF-8"?>
<svg version="1.1" xmlns="http://www.w3.org/2000/svg" width="512" height="512">
<path d="M0 0 C1.86762497 -0.01485695 1.86762497 -0.01485695 3.77297974 -0.03001404 C5.15521338 -0.0257758 6.53744608 -0.02121792 7.91967773 -0.01637268 C9.37336757 -0.02207403 10.82705293 -0.02903737 12.2807312 -0.03717041 C16.23110656 -0.05514204 20.18126028 -0.05392613 24.13166428 -0.04822803 C27.42709365 -0.0451423 30.72248006 -0.05122166 34.01790333 -0.05726677 C41.79021068 -0.07132319 49.56240814 -0.06974112 57.3347168 -0.05836487 C65.35950768 -0.0468788 73.38396456 -0.06096482 81.40871143 -0.08776134 C88.2937115 -0.10989322 95.17860652 -0.11656153 102.06363964 -0.11068493 C106.17793461 -0.10730854 110.29201538 -0.10977551 114.40628052 -0.12693596 C118.27399739 -0.14236352 122.14121799 -0.13849686 126.00891495 -0.11963081 C127.42993192 -0.11593339 128.85098533 -0.11908691 130.27196884 -0.1295166 C132.20845637 -0.14264703 134.14507133 -0.12882037 136.08154297 -0.11352539 C137.70865456 -0.11321146 137.70865456 -0.11321146 139.36863708 -0.1128912 C142.04077148 0.38768005 142.04077148 0.38768005 143.92103577 2.19634914 C145.62321939 5.52753482 144.94318047 7.84250191 144.04077148 11.38768005 C142.72827148 13.32518005 142.72827148 13.32518005 141.04077148 14.38768005 C139.72077148 14.38768005 138.40077148 14.38768005 137.04077148 14.38768005 C137.04077148 27.58768005 137.04077148 40.78768005 137.04077148 54.38768005 C148.6874854 54.32544706 148.6874854 54.32544706 160.33374023 54.2275238 C165.09920318 54.17958227 169.86444783 54.13539379 174.63012695 54.11668396 C204.40504222 54.52421869 204.40504222 54.52421869 232.22827148 45.07518005 C237.57051373 42.11411014 240.81473161 40.66640876 247.04077148 42.38768005 C249.52639886 45.106335 249.99951963 46.72765032 250.22827148 50.38768005 C248.42249172 54.94964998 245.30195536 56.24334236 241.04077148 58.38768005 C240.22092773 58.81049255 239.40108398 59.23330505 238.55639648 59.66893005 C227.27755745 65.14150284 215.21455245 68.52292881 202.65844727 68.50120544 C201.9341345 68.50132598 201.20982174 68.50144651 200.4635601 68.5015707 C198.13770261 68.50082912 195.81192699 68.49323553 193.48608398 68.4853363 C192.04264362 68.48386454 190.59920272 68.48284528 189.15576172 68.48228455 C183.82575679 68.47705877 178.49576332 68.4630975 173.16577148 68.45018005 C161.24452148 68.42955505 149.32327148 68.40893005 137.04077148 68.38768005 C137.04077148 94.45768005 137.04077148 120.52768005 137.04077148 147.38768005 C142.65077148 147.38768005 148.26077148 147.38768005 154.04077148 147.38768005 C154.0059668 146.0625238 153.97116211 144.73736755 153.93530273 143.37205505 C153.90716114 141.62727607 153.87986138 139.88248337 153.85327148 138.13768005 C153.82813477 137.26498474 153.80299805 136.39228943 153.77709961 135.4931488 C153.76743164 134.64881287 153.75776367 133.80447693 153.74780273 132.93455505 C153.73209229 132.15950623 153.71638184 131.3844574 153.70019531 130.58592224 C154.14475361 127.71652949 155.04152414 126.48558225 157.04077148 124.38768005 C159.42466736 123.87974548 159.42466736 123.87974548 162.27490234 123.87010193 C163.87687721 123.85118896 163.87687721 123.85118896 165.51121521 123.83189392 C167.24094322 123.84403931 167.24094322 123.84403931 169.00561523 123.85643005 C170.19047012 123.85260315 171.37532501 123.84877625 172.59608459 123.84483337 C175.10361581 123.84210949 177.61117521 123.84950377 180.11865234 123.86619568 C183.95987299 123.88757764 187.79921899 123.86641773 191.64038086 123.84080505 C194.07462979 123.84344861 196.50887755 123.84857417 198.94311523 123.85643005 C200.6698069 123.84428467 200.6698069 123.84428467 202.43138123 123.83189392 C204.03808434 123.85080688 204.03808434 123.85080688 205.67724609 123.87010193 C206.61861923 123.8732843 207.55999237 123.87646667 208.52989197 123.87974548 C211.85964479 124.55333279 213.0310058 125.67810459 215.04077148 128.38768005 C215.55543518 130.80917358 215.55543518 130.80917358 215.57421875 133.53587341 C215.59005508 134.56051193 215.60589142 135.58515045 215.62220764 136.64083862 C215.61476784 138.29249779 215.61476784 138.29249779 215.60717773 139.9775238 C215.61337631 141.11419998 215.61957489 142.25087616 215.6259613 143.42199707 C215.63306336 145.82518151 215.62987884 148.22841511 215.6171875 150.63157654 C215.60333485 154.30836119 215.63737544 157.98259528 215.67553711 161.65916443 C215.67648841 163.99445151 215.67462889 166.32974178 215.66967773 168.6650238 C215.68293594 169.76410568 215.69619415 170.86318756 215.70985413 171.99557495 C215.65404295 176.57242783 215.51168587 179.56255478 213.21826172 183.58103943 C208.40835366 186.31583156 204.01724987 186.08380158 198.57202148 186.0165863 C197.4589563 186.01899826 196.34589111 186.02141022 195.19909668 186.02389526 C192.84892204 186.02291702 190.4987243 186.00952906 188.14868164 185.98460388 C184.55332078 185.95029979 180.96041832 185.9639471 177.36499023 185.98338318 C175.07982353 185.97648458 172.79466317 185.96681209 170.50952148 185.9540863 C169.43545044 185.95904617 168.36137939 185.96400604 167.25476074 185.96911621 C162.7750146 185.89849424 159.82737749 185.82000899 155.85449219 183.63645935 C153.79986328 181.08898501 153.44347157 180.06775761 153.55249023 176.84080505 C153.56860352 175.99646912 153.5847168 175.15213318 153.60131836 174.2822113 C153.64321289 173.40951599 153.68510742 172.53682068 153.72827148 171.63768005 C153.75083008 170.74951599 153.77338867 169.86135193 153.79663086 168.9462738 C153.85544596 166.75835194 153.93755881 164.57388334 154.04077148 162.38768005 C152.94406128 162.41124573 152.94406128 162.41124573 151.82519531 162.43528748 C148.50129989 162.49778357 145.17752828 162.53671758 141.85327148 162.57518005 C140.7027832 162.60031677 139.55229492 162.62545349 138.36694336 162.65135193 C136.69921875 162.66585388 136.69921875 162.66585388 134.99780273 162.6806488 C133.46603394 162.70421448 133.46603394 162.70421448 131.90332031 162.72825623 C128.29706003 162.29919583 125.62552713 160.97243569 123.04077148 158.38768005 C122.94557781 155.58778286 122.91523204 152.81261831 122.92724609 150.01243591 C122.92710007 149.13446854 122.92695404 148.25650116 122.92680359 147.35192871 C122.92750304 144.4354357 122.93529693 141.51900572 122.94311523 138.6025238 C122.9449793 136.58613113 122.94640326 134.56973801 122.94740295 132.55334473 C122.95122904 127.23502868 122.9610601 121.91673975 122.97210693 116.59843445 C122.98231911 111.17597317 122.98690016 105.75350754 122.99194336 100.33103943 C123.00268229 89.68323911 123.02027982 79.03546608 123.04077148 68.38768005 C112.48077148 68.38768005 101.92077148 68.38768005 91.04077148 68.38768005 C91.05124512 71.03251404 91.06171875 73.67734802 91.07250977 76.40232849 C91.10563165 85.13545504 91.12773404 93.86858435 91.14439583 102.60175705 C91.15483833 107.89729379 91.1690061 113.19276625 91.19165039 118.48826599 C91.21336204 123.59756859 91.2253366 128.70680931 91.23052597 133.81615448 C91.23422473 135.7666191 91.24144738 137.7170803 91.2522316 139.66751862 C91.26672415 142.39690503 91.26875036 145.12603486 91.26782227 147.85545349 C91.27501282 148.66393738 91.28220337 149.47242126 91.28961182 150.30540466 C91.26373097 157.32736247 91.26373097 157.32736247 89.04077148 160.38768005 C86.27459586 161.77076787 84.03059149 161.49978202 80.93920898 161.4853363 C79.72749023 161.48211365 78.51577148 161.47889099 77.26733398 161.47557068 C75.99631836 161.46719177 74.72530273 161.45881287 73.41577148 161.45018005 C72.13702148 161.44566833 70.85827148 161.44115662 69.54077148 161.43650818 C66.37405856 161.42469209 63.20743793 161.4082182 60.04077148 161.38768005 C60.07557617 162.62904724 60.11038086 163.87041443 60.14624023 165.1493988 C60.17438732 166.79131231 60.2016865 168.43324051 60.22827148 170.07518005 C60.2534082 170.89180115 60.27854492 171.70842224 60.30444336 172.54978943 C60.36247634 177.32783827 60.18981019 180.52191099 57.04077148 184.38768005 C54.56008117 185.62802521 52.87889268 185.52792752 50.10375977 185.54881287 C49.07574249 185.55842041 48.04772522 185.56802795 46.98855591 185.57792664 C45.31670731 185.58430145 45.31670731 185.58430145 43.61108398 185.59080505 C42.46920624 185.59650513 41.32732849 185.6022052 40.15084839 185.608078 C37.7315158 185.61753699 35.31217028 185.62406554 32.89282227 185.62791443 C29.18800428 185.6376218 25.48374046 185.66863821 21.77905273 185.70018005 C19.43139979 185.70670971 17.08374286 185.71196033 14.73608398 185.71580505 C13.62556671 185.72815186 12.51504944 185.74049866 11.37088013 185.7532196 C10.33655853 185.75021851 9.30223694 185.74721741 8.23657227 185.74412537 C6.87328293 185.74959381 6.87328293 185.74959381 5.48245239 185.75517273 C2.53113086 185.31097503 1.18292319 184.44041086 -0.95922852 182.38768005 C-1.92186488 179.49977097 -2.09619451 177.63239481 -2.12036133 174.62840271 C-2.12996887 173.66375092 -2.13957642 172.69909912 -2.1494751 171.70521545 C-2.15372498 170.6645694 -2.15797485 169.62392334 -2.16235352 168.55174255 C-2.16805359 167.48023956 -2.17375366 166.40873657 -2.17962646 165.30476379 C-2.18907589 163.03683968 -2.19561022 160.76890183 -2.19946289 158.5009613 C-2.20917087 155.03326968 -2.24019635 151.56617012 -2.27172852 148.09861755 C-2.27825842 145.89549607 -2.28350894 143.69237036 -2.28735352 141.48924255 C-2.29970032 140.45264496 -2.31204712 139.41604736 -2.32476807 138.34803772 C-2.307271 132.68714998 -2.17566772 128.60411926 2.04077148 124.38768005 C3.71238701 124.27849299 5.38858646 124.23861201 7.0637207 124.22654724 C8.6707637 124.21213593 8.6707637 124.21213593 10.31027222 124.19743347 C11.47688385 124.19318359 12.64349548 124.18893372 13.84545898 124.18455505 C15.03551544 124.17885498 16.2255719 124.17315491 17.45169067 124.1672821 C19.97535305 124.15781478 22.49902788 124.15129128 25.02270508 124.14744568 C28.89222695 124.13773911 32.76121817 124.10673075 36.63061523 124.07518005 C39.07722665 124.06865058 41.52384188 124.06339989 43.97045898 124.05955505 C45.13302216 124.04720825 46.29558533 124.03486145 47.49337769 124.0221405 C48.57104401 124.0251416 49.64871033 124.0281427 50.7590332 124.03123474 C51.70865936 124.02758911 52.65828552 124.02394348 53.63668823 124.02018738 C56.49318812 124.45683731 57.34067188 125.09048483 59.04077148 127.38768005 C59.94315896 130.09484248 60.15928451 131.62544774 60.13842773 134.3993988 C60.13520508 135.15672302 60.13198242 135.91404724 60.12866211 136.69432068 C60.1202832 137.48000427 60.1119043 138.26568787 60.10327148 139.07518005 C60.09875977 139.87246521 60.09424805 140.66975037 60.08959961 141.49119568 C60.07782999 143.45672262 60.05989497 145.4222109 60.04077148 147.38768005 C65.32077148 147.38768005 70.60077148 147.38768005 76.04077148 147.38768005 C76.04077148 121.31768005 76.04077148 95.24768005 76.04077148 68.38768005 C55.25077148 68.38768005 34.46077148 68.38768005 13.04077148 68.38768005 C13.23849819 82.35935695 13.23849819 82.35935695 13.49121094 96.33006287 C13.50581609 98.08362814 13.51855669 99.83721037 13.52905273 101.59080505 C13.55463257 102.49878845 13.5802124 103.40677185 13.60656738 104.3422699 C13.61096997 110.69959901 13.61096997 110.69959901 10.89624023 113.97557068 C7.60367331 115.60383736 5.52586964 115.85044061 1.86499023 115.77830505 C0.70805664 115.76541443 -0.44887695 115.7525238 -1.64086914 115.73924255 C-2.83905273 115.70572693 -4.03723633 115.6722113 -5.27172852 115.63768005 C-6.48924805 115.61963318 -7.70676758 115.6015863 -8.96118164 115.58299255 C-11.96133273 115.53593136 -14.9598774 115.47019315 -17.95922852 115.38768005 C-17.92780762 116.21960876 -17.92780762 116.21960876 -17.89575195 117.06834412 C-17.81239304 119.59127028 -17.76050984 122.11390654 -17.70922852 124.63768005 C-17.67571289 125.51037537 -17.64219727 126.38307068 -17.60766602 127.2822113 C-17.58833008 128.54871521 -17.58833008 128.54871521 -17.56860352 129.84080505 C-17.53718262 131.0033783 -17.53718262 131.0033783 -17.50512695 132.18943787 C-18.14690688 135.29620476 -19.53456809 136.39010987 -21.95922852 138.38768005 C-24.42541504 138.89561462 -24.42541504 138.89561462 -27.21508789 138.90525818 C-28.78691833 138.92417114 -28.78691833 138.92417114 -30.39050293 138.94346619 C-31.51661987 138.93536926 -32.64273682 138.92727234 -33.80297852 138.91893005 C-35.54484436 138.92467041 -35.54484436 138.92467041 -37.32189941 138.93052673 C-39.77637601 138.93324797 -42.2308815 138.9258721 -44.68530273 138.90916443 C-48.44523693 138.88775971 -52.20326011 138.90896093 -55.96313477 138.93455505 C-58.34725357 138.93191182 -60.73137119 138.92678693 -63.11547852 138.91893005 C-64.24159546 138.92702698 -65.3677124 138.9351239 -66.5279541 138.94346619 C-67.57584106 138.93085754 -68.62372803 138.9182489 -69.70336914 138.90525818 C-70.62396118 138.90207581 -71.54455322 138.89889343 -72.49304199 138.89561462 C-75.7937201 138.21580857 -76.96492882 137.07522679 -78.95922852 134.38768005 C-79.46716309 131.92149353 -79.46716309 131.92149353 -79.47680664 129.13182068 C-79.48941528 128.08393372 -79.50202393 127.03604675 -79.51501465 125.95640564 C-79.50691772 124.8302887 -79.4988208 123.70417175 -79.49047852 122.54393005 C-79.49430542 121.38268616 -79.49813232 120.22144226 -79.5020752 119.02500916 C-79.50479644 116.57053256 -79.49742056 114.11602707 -79.48071289 111.66160583 C-79.45930817 107.90167164 -79.4805094 104.14364846 -79.50610352 100.3837738 C-79.50346028 97.999655 -79.49833539 95.61553738 -79.49047852 93.23143005 C-79.49857544 92.10531311 -79.50667236 90.97919617 -79.51501465 89.81895447 C-79.50240601 88.7710675 -79.48979736 87.72318054 -79.47680664 86.64353943 C-79.47203308 85.26265137 -79.47203308 85.26265137 -79.46716309 83.85386658 C-78.78804845 80.5565455 -77.63997861 79.38394454 -74.95922852 77.38768005 C-72.53773499 76.87301636 -72.53773499 76.87301636 -69.81103516 76.85423279 C-68.78639664 76.83839645 -67.76175812 76.82256012 -66.70606995 76.8062439 C-65.60496384 76.81120377 -64.50385773 76.81616364 -63.36938477 76.8212738 C-62.23270859 76.81507523 -61.09603241 76.80887665 -59.9249115 76.80249023 C-57.52172706 76.79538818 -55.11849345 76.7985727 -52.71533203 76.81126404 C-49.03854738 76.82511669 -45.36431329 76.7910761 -41.68774414 76.75291443 C-39.35245706 76.75196313 -37.01716679 76.75382265 -34.68188477 76.7587738 C-33.58280289 76.74551559 -32.48372101 76.73225739 -31.35133362 76.71859741 C-23.77536924 76.81098043 -23.77536924 76.81098043 -19.75708008 79.65037537 C-17.94447805 82.41013826 -17.35458467 83.57858112 -17.47094727 86.8134613 C-17.48706055 87.6094574 -17.50317383 88.40545349 -17.51977539 89.22557068 C-17.56166992 90.04219177 -17.60356445 90.85881287 -17.64672852 91.70018005 C-17.66928711 92.53613708 -17.6918457 93.37209412 -17.71508789 94.23338318 C-17.77372242 96.28559154 -17.86339637 98.33687207 -17.95922852 100.38768005 C-12.67922852 100.38768005 -7.39922852 100.38768005 -1.95922852 100.38768005 C-1.95922852 89.82768005 -1.95922852 79.26768005 -1.95922852 68.38768005 C-7.03168945 68.4340863 -12.10415039 68.48049255 -17.33032227 68.52830505 C-20.5796922 68.54878797 -23.82898044 68.56804668 -27.07836914 68.58299255 C-32.2150158 68.60673265 -37.35137235 68.63454784 -42.48779297 68.68943787 C-46.63757018 68.73349721 -50.78703549 68.75694102 -54.93702888 68.76718903 C-56.50557415 68.77447438 -58.07410598 68.78869375 -59.64251518 68.81060028 C-84.93365094 69.14919787 -108.2916252 60.81077649 -126.95922852 43.38768005 C-128.48414849 40.3378401 -128.194854 37.74534316 -127.95922852 34.38768005 C-126.95922852 32.45018005 -126.95922852 32.45018005 -124.95922852 31.38768005 C-120.60584038 30.54755252 -118.36603978 30.45138214 -114.63500977 32.93455505 C-112.95801961 34.32799615 -111.29472096 35.73802066 -109.64282227 37.16111755 C-93.49583481 50.55818138 -73.51556497 53.63820822 -53.22875977 53.80174255 C-51.74231441 53.82049589 -50.25587923 53.84007225 -48.76945496 53.86042786 C-44.89478615 53.91131586 -41.02008299 53.9511706 -37.14526367 53.98857117 C-32.47600239 54.0359986 -27.80690573 54.09740706 -23.13777924 54.15641785 C-16.07833038 54.24410049 -9.01890455 54.31424242 -1.95922852 54.38768005 C-1.95922852 41.18768005 -1.95922852 27.98768005 -1.95922852 14.38768005 C-3.60922852 14.05768005 -5.25922852 13.72768005 -6.95922852 13.38768005 C-9.55258756 10.79432101 -9.23649415 8.90020973 -9.32250977 5.3603363 C-8.36473206 0.15950039 -4.62875638 0.01036874 0 0 Z M13.04077148 14.38768005 C13.04077148 27.58768005 13.04077148 40.78768005 13.04077148 54.38768005 C33.83077148 54.38768005 54.62077148 54.38768005 76.04077148 54.38768005 C76.04077148 41.18768005 76.04077148 27.98768005 76.04077148 14.38768005 C55.25077148 14.38768005 34.46077148 14.38768005 13.04077148 14.38768005 Z M90.04077148 14.38768005 C90.04077148 27.58768005 90.04077148 40.78768005 90.04077148 54.38768005 C100.60077148 54.38768005 111.16077148 54.38768005 122.04077148 54.38768005 C122.04077148 41.18768005 122.04077148 27.98768005 122.04077148 14.38768005 C111.48077148 14.38768005 100.92077148 14.38768005 90.04077148 14.38768005 Z M-64.95922852 92.38768005 C-64.95922852 102.94768005 -64.95922852 113.50768005 -64.95922852 124.38768005 C-54.39922852 124.38768005 -43.83922852 124.38768005 -32.95922852 124.38768005 C-32.95922852 113.82768005 -32.95922852 103.26768005 -32.95922852 92.38768005 C-43.51922852 92.38768005 -54.07922852 92.38768005 -64.95922852 92.38768005 Z M13.04077148 138.38768005 C13.04077148 148.94768005 13.04077148 159.50768005 13.04077148 170.38768005 C23.60077148 170.38768005 34.16077148 170.38768005 45.04077148 170.38768005 C45.04077148 159.82768005 45.04077148 149.26768005 45.04077148 138.38768005 C34.48077148 138.38768005 23.92077148 138.38768005 13.04077148 138.38768005 Z M168.04077148 138.38768005 C168.04077148 148.94768005 168.04077148 159.50768005 168.04077148 170.38768005 C178.60077148 170.38768005 189.16077148 170.38768005 200.04077148 170.38768005 C200.04077148 159.82768005 200.04077148 149.26768005 200.04077148 138.38768005 C189.48077148 138.38768005 178.92077148 138.38768005 168.04077148 138.38768005 Z " fill="#FFFFFF" transform="translate(199.959228515625,318.61231994628906)"/>
<path d="M0 0 C0.83273437 0.69867188 1.66546875 1.39734375 2.5234375 2.1171875 C26.06260647 22.46951513 39.60586393 52.2479234 42 83 C42.29012784 90.33339388 42.20514314 97.66534379 42 105 C42.71542969 105.268125 43.43085938 105.53625 44.16796875 105.8125 C69.06327034 115.60314901 88.23216754 133.47047513 99 158 C108.99690407 182.4231295 108.81121644 209.65293118 98.79296875 234.04296875 C94.33562541 244.22723151 87.23826136 258.74852777 77.0546875 264.00390625 C75.25 264.4375 75.25 264.4375 72 264 C69 262 69 262 67 259 C66.72638579 255.3746117 67.11275584 253.15163784 69.36328125 250.23046875 C70.55618187 248.92787612 71.75746933 247.63293829 72.96484375 246.34375 C85.8785388 231.47193228 92.04360424 210.44645316 90.7890625 190.9140625 C89.18418327 172.30856095 82.47540077 154.04963501 68.7890625 140.87109375 C67 139 67 139 67 137 C66.41734375 136.73445312 65.8346875 136.46890625 65.234375 136.1953125 C62.93388999 134.96463346 61.22488125 133.57339787 59.25 131.875 C50.4769172 124.94050056 39.7156686 120.14542454 29.0390625 116.984375 C26.40948022 115.71492148 26.03056227 114.69745679 25 112 C25.01464844 109.79541016 25.01464844 109.79541016 25.359375 107.4140625 C28.96362952 78.29211253 22.33115248 49.59559948 4.1796875 26.3125 C-12.9170242 5.20266119 -37.52185278 -9.64621067 -64.78173828 -12.80078125 C-94.97324902 -15.51223544 -122.98357982 -7.73924617 -146.47167969 11.703125 C-156.50635691 20.21817379 -164.72777891 30.51244141 -170.8125 42.1875 C-172.1515256 44.65777137 -173.19857395 46.20424749 -175.1875 48.25 C-179.0328495 49.27542653 -181.42649807 48.24292128 -185.1328125 46.97265625 C-201.34124584 41.47415502 -216.65991038 41.3863918 -232.3125 48.75 C-236.95062082 51.19499614 -240.72748511 54.02552346 -244.4765625 57.6796875 C-246 59 -246 59 -248 59 C-248.26167969 59.56976563 -248.52335937 60.13953125 -248.79296875 60.7265625 C-250.08942339 63.16842853 -251.62706514 65.18505582 -253.3125 67.375 C-261.87905381 79.42898178 -263.31339266 92.2006488 -262.609375 106.4765625 C-262.45296092 113.35878203 -262.45296092 113.35878203 -265.1328125 116.5 C-268.09319387 118.04875538 -270.96750698 119.2811265 -274.125 120.375 C-284.18177 124.09804804 -292.87559075 128.98687778 -301 136 C-301.66644531 136.57105469 -302.33289063 137.14210937 -303.01953125 137.73046875 C-317.23269743 150.87834831 -326.47617631 171.35372798 -327.23828125 190.6171875 C-327.54662665 205.34348361 -325.51217648 217.32310037 -319.6953125 230.94921875 C-318.67448069 233.96009907 -318.91863693 236.04427427 -320 239 C-321.125 240.875 -321.125 240.875 -323 242 C-326.4375 242.5 -326.4375 242.5 -330 242 C-341.99756419 229.29803336 -343.44166666 208.36974412 -343.21875 191.7421875 C-342.3680527 165.6151468 -330.07412108 141.68546011 -311.296875 123.890625 C-301.78494278 115.29883133 -290.91891248 109.51780042 -279 105 C-278.96261719 103.83984375 -278.92523438 102.6796875 -278.88671875 101.484375 C-278.06697049 80.33441582 -272.30133001 62.23480248 -257 47 C-239.83993692 31.95587965 -220.96980002 26.69630019 -198.58056641 27.79345703 C-192.91711112 28.24674778 -187.46029338 29.43459166 -182 31 C-181.21689453 29.69289063 -181.21689453 29.69289063 -180.41796875 28.359375 C-175.08512463 19.65259027 -169.20900031 12.2190547 -162 5 C-161.14792969 4.13632813 -160.29585937 3.27265625 -159.41796875 2.3828125 C-116.06355779 -39.34662054 -44.75840924 -38.34352323 0 0 Z " fill="#FFFFFF" transform="translate(386,96)"/>
<path d="M0 0 C1.30692055 -0.00074776 1.30692055 -0.00074776 2.64024353 -0.00151062 C4.47673837 0.00082375 6.31323677 0.01051465 8.1496582 0.02709961 C10.95878715 0.0507303 13.7669685 0.04765096 16.57617188 0.04101562 C18.3632869 0.04659163 20.15039794 0.05370102 21.9375 0.0625 C22.77612076 0.06158859 23.61474152 0.06067719 24.47877502 0.05973816 C25.65535927 0.07403618 25.65535927 0.07403618 26.85571289 0.08862305 C27.88566124 0.09553413 27.88566124 0.09553413 28.93641663 0.10258484 C31.28253704 0.41369768 32.88211322 1.14416174 34.90234375 2.36328125 C36.58447242 4.98530189 37.25254386 7.46362525 37.75390625 10.515625 C37.8828125 11.29228516 38.01171875 12.06894531 38.14453125 12.86914062 C38.27085937 13.67158203 38.3971875 14.47402344 38.52734375 15.30078125 C38.7284375 16.49864258 38.7284375 16.49864258 38.93359375 17.72070312 C39.56980574 21.63860044 40.07941259 25.37923243 39.90234375 29.36328125 C45.06480243 30.70600904 45.06480243 30.70600904 50.03027344 29.33691406 C52.20195176 27.80869599 54.24274858 26.19459277 56.27734375 24.48828125 C57.68048708 23.36525728 59.08410994 22.24283212 60.48828125 21.12109375 C61.4016626 20.36530029 61.4016626 20.36530029 62.33349609 19.59423828 C65.81413419 16.86324275 68.53965958 16.85840172 72.90234375 17.36328125 C75.60221786 19.02738848 77.7150772 21.17032776 79.9296875 23.42578125 C80.56346817 24.05049316 81.19724884 24.67520508 81.85023499 25.31884766 C83.18236907 26.64185704 84.50567258 27.97381002 85.82055664 29.31396484 C87.8321561 31.35547927 89.88052359 33.35387611 91.93554688 35.3515625 C93.2276776 36.64472466 94.51747364 37.94022475 95.8046875 39.23828125 C96.41706772 39.83133057 97.02944794 40.42437988 97.66038513 41.03540039 C100.58632618 44.07664491 102.2873424 46.22191891 102.46777344 50.53344727 C101.90305614 54.35845599 101.42171224 55.89766078 98.953125 58.765625 C98.35306641 59.51134766 97.75300781 60.25707031 97.13476562 61.02539062 C95.85184812 62.54583711 94.56009808 64.05887339 93.25976562 65.56445312 C89.77683263 69.67889257 89.77683263 69.67889257 89.1640625 74.78027344 C89.93389276 77.14812567 89.93389276 77.14812567 90.98754883 79.28588867 C92.52698848 82.78177658 92.29258184 85.59097969 91.90234375 89.36328125 C90.31809888 92.09170297 89.03911027 92.31868347 86.02734375 93.30078125 C82.90234375 93.36328125 82.90234375 93.36328125 80.41796875 91.828125 C77.40931927 88.88020913 75.99534067 85.85223168 74.52734375 81.98828125 C74.25535156 81.34117188 73.98335937 80.6940625 73.703125 80.02734375 C71.99902504 75.69281256 71.43092643 72.79457666 72.90234375 68.36328125 C74.5767031 65.43569811 76.48789394 62.71800221 78.46484375 59.98828125 C78.98498047 59.25222656 79.50511719 58.51617187 80.04101562 57.7578125 C81.3187225 55.95261197 82.60584283 54.15500667 83.90234375 52.36328125 C82.58113547 49.43097932 81.15596178 47.37663226 78.86328125 45.12890625 C77.99316406 44.26845703 77.99316406 44.26845703 77.10546875 43.390625 C76.5021875 42.80410156 75.89890625 42.21757813 75.27734375 41.61328125 C74.66632813 41.01128906 74.0553125 40.40929688 73.42578125 39.7890625 C71.92245751 38.3092282 70.41299519 36.83563449 68.90234375 35.36328125 C66.19285881 36.54697038 63.88961496 38.04861533 61.51171875 39.78125 C60.88394531 40.23048828 60.25617188 40.67972656 59.609375 41.14257812 C58.30933843 42.07803358 57.02002222 43.0285784 55.7421875 43.99414062 C52.38500112 46.3564785 50.01947922 47.74864033 45.84375 47.3359375 C42.05576528 46.5594237 38.60306704 45.23028082 35.08984375 43.61328125 C33.99027344 43.1234375 32.89070312 42.63359375 31.7578125 42.12890625 C28.4214947 40.06595735 27.40059038 38.97924187 25.90234375 35.36328125 C25.14442479 31.9465958 24.66405709 28.5199397 24.21484375 25.05078125 C23.78171875 21.85390625 23.34859375 18.65703125 22.90234375 15.36328125 C14.98234375 15.36328125 7.06234375 15.36328125 -1.09765625 15.36328125 C-1.96231797 21.71843819 -1.96231797 21.71843819 -2.80200195 28.0769043 C-4.05603647 36.84807593 -4.05603647 36.84807593 -7.09765625 40.36328125 C-9.953125 42.12890625 -9.953125 42.12890625 -13.28515625 43.61328125 C-14.37183594 44.1134375 -15.45851563 44.61359375 -16.578125 45.12890625 C-25.88045759 48.39143355 -25.88045759 48.39143355 -30.16674805 46.40380859 C-32.31626966 45.00389622 -34.33115182 43.51099908 -36.34765625 41.92578125 C-37.72173962 40.87734031 -39.1017534 39.83661484 -40.48828125 38.8046875 C-41.08672852 38.33748291 -41.68517578 37.87027832 -42.30175781 37.38891602 C-44.33187834 36.03266605 -44.33187834 36.03266605 -48.09765625 36.36328125 C-49.91769187 37.63353854 -49.91769187 37.63353854 -51.55078125 39.42578125 C-52.16953125 40.05742188 -52.78828125 40.6890625 -53.42578125 41.33984375 C-54.06 42.00757813 -54.69421875 42.6753125 -55.34765625 43.36328125 C-55.99734375 44.03101563 -56.64703125 44.69875 -57.31640625 45.38671875 C-58.91949914 47.03696143 -60.51253459 48.69579916 -62.09765625 50.36328125 C-60.39184504 55.3688584 -57.4288914 59.28469182 -54.28710938 63.45898438 C-51.65344004 67.10129304 -50.18404281 69.84238445 -50.09765625 74.36328125 C-50.85202541 77.0688007 -51.64541173 79.42535826 -52.72265625 81.98828125 C-52.97144531 82.643125 -53.22023437 83.29796875 -53.4765625 83.97265625 C-55.26145669 88.35941114 -56.98644032 90.98991172 -61.09765625 93.36328125 C-64.08782617 94.22452526 -67.08079733 94.69077034 -70.16015625 95.11328125 C-70.96259766 95.23832031 -71.76503906 95.36335938 -72.59179688 95.4921875 C-76.17252739 96.03301153 -79.4580474 96.36328125 -83.09765625 96.36328125 C-82.76765625 104.28328125 -82.43765625 112.20328125 -82.09765625 120.36328125 C-75.04043017 121.51733674 -75.04043017 121.51733674 -67.97753906 122.63574219 C-67.09420898 122.78817383 -66.21087891 122.94060547 -65.30078125 123.09765625 C-64.40004883 123.24428711 -63.49931641 123.39091797 -62.57128906 123.54199219 C-58.26830672 124.97065707 -56.465803 127.68407117 -54.359375 131.5703125 C-53.83988281 132.76011719 -53.32039063 133.94992188 -52.78515625 135.17578125 C-52.25277344 136.35785156 -51.72039062 137.53992188 -51.171875 138.7578125 C-49.91501478 142.97629244 -49.87733629 145.13657918 -51.09765625 149.36328125 C-52.75385954 152.11014635 -54.69796802 154.56753121 -56.72265625 157.05078125 C-57.76801841 158.33708664 -58.80246192 159.6323653 -59.82421875 160.9375 C-60.28393066 161.50041748 -60.74364258 162.06333496 -61.21728516 162.64331055 C-62.25789057 164.32835923 -62.25789057 164.32835923 -62.01708984 166.29492188 C-60.74895065 169.14772996 -58.93819667 170.7533689 -56.66015625 172.8828125 C-55.76554687 173.74068359 -54.8709375 174.59855469 -53.94921875 175.48242188 C-52.05401681 177.27247905 -50.15299069 179.05639073 -48.24609375 180.83398438 C-47.35148437 181.69572266 -46.456875 182.55746094 -45.53515625 183.4453125 C-44.70886719 184.22108643 -43.88257813 184.99686035 -43.03125 185.79614258 C-40.59095979 189.03599757 -40.21389062 191.34011904 -40.09765625 195.36328125 C-42.09765625 198.36328125 -42.09765625 198.36328125 -45.09765625 200.36328125 C-50.63723367 200.3682532 -53.33840437 198.81999239 -57.13412476 195.10919189 C-57.70732452 194.51757263 -58.28052429 193.92595337 -58.87109375 193.31640625 C-59.4803067 192.70819031 -60.08951965 192.09997437 -60.7171936 191.47332764 C-61.99659725 190.18925921 -63.26865924 188.89783856 -64.53369141 187.59960938 C-66.47001274 185.61598933 -68.43172712 183.66047629 -70.3984375 181.70703125 C-71.64091682 180.45340063 -72.8818569 179.1982422 -74.12109375 177.94140625 C-74.7064389 177.35788391 -75.29178406 176.77436157 -75.89486694 176.17315674 C-78.8806817 173.08152229 -80.97999696 170.87760569 -81.09765625 166.36328125 C-78.8799977 160.50577008 -74.72183784 155.80366638 -70.7734375 151.01757812 C-67.99087245 147.42681447 -67.06534851 146.11003066 -67.26953125 141.390625 C-67.5428125 140.39160156 -67.81609375 139.39257812 -68.09765625 138.36328125 C-69.20222168 138.21294434 -69.20222168 138.21294434 -70.32910156 138.05957031 C-73.67128969 137.59476269 -77.00922772 137.1043344 -80.34765625 136.61328125 C-81.50652344 136.45601562 -82.66539063 136.29875 -83.859375 136.13671875 C-85.53193359 135.88535156 -85.53193359 135.88535156 -87.23828125 135.62890625 C-88.26469727 135.48227539 -89.29111328 135.33564453 -90.34863281 135.18457031 C-93.82650767 134.14553203 -95.08374366 133.41305515 -97.09765625 130.36328125 C-97.68242322 127.14277546 -97.65804963 123.97297425 -97.62890625 120.70703125 C-97.63273315 119.7677478 -97.63656006 118.82846436 -97.64050293 117.86071777 C-97.64322201 115.87702359 -97.63586109 113.89329355 -97.61914062 111.90966797 C-97.59773086 108.87386109 -97.61894232 105.84042079 -97.64453125 102.8046875 C-97.64188797 100.87629686 -97.636763 98.94790769 -97.62890625 97.01953125 C-97.63700317 96.1121521 -97.6451001 95.20477295 -97.65344238 94.26989746 C-97.56088218 88.04707211 -97.56088218 88.04707211 -95.38305664 84.83227539 C-92.82396502 83.18735986 -91.00341996 82.63759579 -88 82.203125 C-87.03384766 82.04908203 -86.06769531 81.89503906 -85.07226562 81.73632812 C-84.07001953 81.59259766 -83.06777344 81.44886719 -82.03515625 81.30078125 C-80.04261422 81.00847368 -78.05159555 80.70553191 -76.0625 80.390625 C-75.18198975 80.26421631 -74.30147949 80.13780762 -73.39428711 80.00756836 C-70.74231549 79.26359546 -69.73137802 78.56270586 -68.09765625 76.36328125 C-67.12434866 74.46978706 -67.12434866 74.46978706 -67.09765625 72.36328125 C-68.13615731 70.24099354 -68.13615731 70.24099354 -69.80859375 68.2109375 C-70.39382812 67.43427734 -70.9790625 66.65761719 -71.58203125 65.85742188 C-72.2059375 65.05498047 -72.82984375 64.25253906 -73.47265625 63.42578125 C-74.69669698 61.83939374 -75.91314647 60.24711334 -77.12109375 58.6484375 C-77.66685059 57.945979 -78.21260742 57.24352051 -78.77490234 56.51977539 C-80.32091275 53.99930475 -80.95050556 52.32419177 -81.09765625 49.36328125 C-79.09331301 44.82411437 -75.57513325 41.47152294 -72.14453125 37.96875 C-71.56608459 37.37653152 -70.98763794 36.78431305 -70.3916626 36.17414856 C-69.17075274 34.93005361 -67.94687427 33.68886578 -66.72021484 32.45043945 C-64.85152774 30.55470877 -63.00820788 28.63636893 -61.1640625 26.71679688 C-59.97154998 25.50763548 -58.77758666 24.29990284 -57.58203125 23.09375 C-57.03697937 22.51884323 -56.49192749 21.94393646 -55.93035889 21.35160828 C-53.00213813 18.45611051 -51.66365143 17.44416483 -47.45874023 16.84326172 C-44.09063393 17.36436773 -42.50429954 17.91572526 -39.8359375 19.953125 C-39.10955078 20.49001953 -38.38316406 21.02691406 -37.63476562 21.58007812 C-36.90064453 22.14791016 -36.16652344 22.71574219 -35.41015625 23.30078125 C-33.93107506 24.41936037 -32.44813287 25.53285682 -30.9609375 26.640625 C-30.31423096 27.13812256 -29.66752441 27.63562012 -29.0012207 28.14819336 C-25.96812915 30.08428373 -23.89283629 30.48978716 -20.34765625 29.92578125 C-19.23390625 29.64734375 -19.23390625 29.64734375 -18.09765625 29.36328125 C-18.04158203 28.43322266 -18.04158203 28.43322266 -17.984375 27.484375 C-17.55717537 21.72974475 -16.8403477 16.0451791 -15.84765625 10.36328125 C-15.63625 9.10515625 -15.42484375 7.84703125 -15.20703125 6.55078125 C-14.09765625 3.36328125 -14.09765625 3.36328125 -12.09692383 1.68676758 C-7.99196608 -0.12462648 -4.43842217 -0.04886077 0 0 Z " fill="#FFFFFF" transform="translate(117.09765625,7.63671875)"/>
<path d="M0 0 C2.5 2.125 2.5 2.125 4 5 C3.90017931 9.79139329 2.42165067 12.12955728 -0.99804688 15.4375 C-1.51431641 15.911875 -2.03058594 16.38625 -2.5625 16.875 C-3.08263672 17.37257813 -3.60277344 17.87015625 -4.13867188 18.3828125 C-5.41467789 19.60028612 -6.70586944 20.80180992 -8 22 C-6.26565704 22.00546844 -6.26565704 22.00546844 -4.49627686 22.01104736 C6.39259331 22.04796597 17.28117985 22.10570429 28.16983414 22.18390274 C33.76801996 22.22343572 39.36604711 22.25559567 44.96435547 22.27099609 C50.36563507 22.28612427 55.76647861 22.32050158 61.16756439 22.36830902 C63.22962405 22.38316247 65.29174596 22.39104328 67.35385895 22.39188385 C70.23931029 22.39424333 73.12354652 22.42124069 76.00878906 22.45410156 C76.86402664 22.4490712 77.71926422 22.44404083 78.60041809 22.43885803 C82.42549953 22.50639182 84.37755634 22.54651111 87.53460693 24.84661865 C89.52886236 27.77715827 89.5070761 29.52290672 89 33 C87.22015595 36.1359157 86.47691793 36.84102736 83 38 C80.12540889 38.1204002 77.27327277 38.18540098 74.39770508 38.20532227 C73.51944565 38.21522186 72.64118622 38.22512146 71.73631287 38.23532104 C68.8307465 38.26693119 65.92516378 38.29169161 63.01953125 38.31640625 C61.00599236 38.33697619 58.99245778 38.35797268 56.97892761 38.37937927 C51.67712903 38.43459577 46.37529151 38.48400695 41.07342529 38.53222656 C35.66414928 38.58244463 30.25492987 38.63812911 24.84570312 38.69335938 C14.2305171 38.8009358 3.61528194 38.90238196 -7 39 C-5.93458984 39.96099609 -5.93458984 39.96099609 -4.84765625 40.94140625 C-3.46900391 42.23884766 -3.46900391 42.23884766 -2.0625 43.5625 C-0.68771484 44.83287109 -0.68771484 44.83287109 0.71484375 46.12890625 C3.43450779 49.54592005 3.92416597 51.6673489 4 56 C2 59 2 59 -1 61 C-7.11718505 60.94642412 -10.24409816 58.657738 -14.37109375 54.4609375 C-14.93828629 53.90185699 -15.50547882 53.34277649 -16.08985901 52.76675415 C-17.27951945 51.58552533 -18.46162974 50.39664891 -19.63647461 49.20068359 C-21.43431986 47.37822368 -23.26420508 45.59313063 -25.09960938 43.80859375 C-26.25469983 42.65313287 -27.40776713 41.49564518 -28.55859375 40.3359375 C-29.10535263 39.80648529 -29.65211151 39.27703308 -30.21543884 38.73153687 C-32.80398037 36.04507005 -33.96100061 34.19583402 -34.69384766 30.51586914 C-33.762984 25.79899107 -31.71230054 23.69857562 -28.33984375 20.41015625 C-27.75715225 19.82076767 -27.17446075 19.23137909 -26.57411194 18.62413025 C-25.34095941 17.38622727 -24.09897406 16.15706845 -22.84887695 14.9362793 C-20.94306373 13.06795429 -19.07748746 11.16522031 -17.21289062 9.25585938 C-16.00744627 8.05504091 -14.79983215 6.85639584 -13.58984375 5.66015625 C-13.03538071 5.09152359 -12.48091766 4.52289093 -11.90965271 3.93702698 C-8.04443966 0.22974248 -5.5564649 -0.83332339 0 0 Z " fill="#FFFFFF" transform="translate(213,241)"/>
<path d="M0 0 C2.1660929 1.74318059 4.09267904 3.43773342 6.0546875 5.3828125 C6.60109894 5.91591034 7.14751038 6.44900818 7.71047974 6.9982605 C8.85679907 8.12441456 9.99783021 9.25597421 11.13378906 10.39257812 C12.87044837 12.12047134 14.63657089 13.81383633 16.40625 15.5078125 C17.52018181 16.61000922 18.6322279 17.71411569 19.7421875 18.8203125 C20.27020966 19.31959259 20.79823181 19.81887268 21.34225464 20.33328247 C23.98121367 23.03973858 25.38514735 25.25053283 25.66650391 28.98193359 C25.32679951 33.61789541 22.81858399 36.33997998 19.59375 39.46875 C19.03562622 40.03452759 18.47750244 40.60030518 17.90246582 41.18322754 C16.7218094 42.36930697 15.53107238 43.54542722 14.33105469 44.71191406 C12.5045458 46.49556087 10.72469321 48.3179082 8.9453125 50.1484375 C7.78901451 51.29944864 6.63023711 52.44797543 5.46875 53.59375 C4.94132202 54.13737183 4.41389404 54.68099365 3.8704834 55.24108887 C0.90390337 58.06378735 -1.24377472 59.33717214 -5.27929688 59.40039062 C-9 59 -9 59 -11 58 C-12.25813849 55.48372302 -12.88710207 53.21551397 -12.83935547 50.39257812 C-11.6033874 46.86945798 -9.10233744 44.71977145 -6.4453125 42.21875 C-5.92461182 41.7144043 -5.40391113 41.21005859 -4.86743164 40.69042969 C-3.58634429 39.4518985 -2.29422726 38.2247939 -1 37 C-2.15622864 36.99857498 -3.31245728 36.99714996 -4.50372314 36.99568176 C-15.39261764 36.97902247 -26.28113791 36.93628152 -37.16983414 36.86790943 C-42.76806257 36.83359798 -48.3660169 36.80852296 -53.96435547 36.80444336 C-59.36569568 36.80016937 -64.76641711 36.77178108 -70.16756439 36.72656822 C-72.22962594 36.71356446 -74.29176142 36.70929568 -76.35385895 36.71384621 C-79.23951788 36.7187317 -82.123354 36.69275111 -85.00878906 36.65942383 C-85.86402664 36.66804947 -86.71926422 36.67667511 -87.60041809 36.68556213 C-91.74273499 36.60520127 -93.39314708 36.54651625 -96.56585693 33.68925476 C-98.51643023 30.03160816 -98.11254767 27.93100177 -97 24 C-93.06709522 21.37806348 -89.68884322 21.69263834 -85.12231445 21.68115234 C-84.21479431 21.67110672 -83.30727417 21.6610611 -82.37225342 21.65071106 C-79.36926921 21.61979298 -76.36637449 21.60281994 -73.36328125 21.5859375 C-71.28247808 21.56723279 -69.20168255 21.54765991 -67.12089539 21.5272522 C-61.64155576 21.47585135 -56.16219151 21.43626818 -50.68273926 21.39910889 C-45.09246696 21.35911907 -39.50229775 21.30800385 -33.91210938 21.2578125 C-22.94147858 21.16095905 -11.97078969 21.07658442 -1 21 C-1.71027344 20.30132812 -2.42054688 19.60265625 -3.15234375 18.8828125 C-4.07144531 17.97273438 -4.99054688 17.06265625 -5.9375 16.125 C-6.85402344 15.22007812 -7.77054687 14.31515625 -8.71484375 13.3828125 C-11.56874986 10.40694459 -11.94890717 9.70252643 -12.25 5.5625 C-12 2 -12 2 -10.6875 0.125 C-6.60478529 -2.59680981 -4.30015761 -1.88522594 0 0 Z " fill="#FFFFFF" transform="translate(331,204)"/>
<path d="M0 0 C10.14285339 6.91227455 16.44127997 16.79270289 20.0234375 28.4765625 C20.73362731 32.48310504 20.38503663 34.44134901 18.1875 37.875 C15.1875 39.75 15.1875 39.75 11.5625 39.8125 C7.76635421 38.61741706 7.21549805 38.01733019 5.1875 34.75 C4.50673599 32.99984685 3.88428485 31.22622518 3.3125 29.4375 C-0.25134953 19.46137102 -5.27425428 14.59773477 -14.8125 9.75 C-23.63702407 6.59439487 -32.22012612 7.16450866 -40.8125 10.75 C-49.80337278 15.51688395 -53.89905125 21.65824352 -58.1875 30.625 C-60.01193261 39.74716304 -59.34673472 48.53319899 -54.8125 56.75 C-52.6510886 59.51613841 -50.38600703 62.04828201 -47.93359375 64.55859375 C-46.00085162 66.55540468 -44.28305235 68.39237252 -42.8125 70.75 C-43.13977273 77.07727273 -43.13977273 77.07727273 -45.8125 79.75 C-49.89999366 80.38426626 -52.36043535 80.66566763 -55.90625 78.4296875 C-58.0012916 76.63278644 -59.91318173 74.75198412 -61.8125 72.75 C-62.63427734 71.93982422 -62.63427734 71.93982422 -63.47265625 71.11328125 C-71.35855084 62.78367904 -74.74058517 51.6156847 -74.84375 40.33203125 C-74.35735914 29.18152075 -71.36739669 19.79190161 -64.8125 10.75 C-64.39484375 10.15574219 -63.9771875 9.56148437 -63.546875 8.94921875 C-48.31802441 -10.78702153 -20.08838883 -11.89515707 0 0 Z " fill="#FFFFFF" transform="translate(154.8125,76.25)"/>
<path d="M0 0 C7.84445105 4.10908211 14.64672591 8.87610208 21.17285156 14.88818359 C21.80191406 15.43732422 22.43097656 15.98646484 23.07910156 16.55224609 C39.41220996 31.62325066 47.72837077 54.08459147 49.39550781 75.78662109 C49.55770008 80.59597452 49.58898427 83.22287414 46.17285156 86.88818359 C42.51406794 88.08126521 40.87287464 88.21486103 37.36035156 86.57568359 C35.17285156 84.88818359 35.17285156 84.88818359 34.17285156 82.88818359 C33.97978766 80.95124903 33.79100059 79.0137464 33.62890625 77.07397461 C31.78292852 55.81242309 23.23694475 36.84837676 6.78222656 22.83349609 C-6.54992538 12.89425707 -21.19083288 7.50365066 -37.76464844 6.51318359 C-41.08944039 6.22820143 -42.61648867 6.01555927 -45.51464844 4.26318359 C-47.35127755 0.93975948 -47.30236842 -1.37794514 -46.82714844 -5.11181641 C-38.97559502 -16.32832128 -9.52126089 -4.68960744 0 0 Z " fill="#FFFFFF" transform="translate(347.8271484375,107.11181640625)"/>
</svg>
